<svg width="30" height="30" viewBox="0 0 30 30" fill="none" xmlns="http://www.w3.org/2000/svg">
<g clip-path="url(#clip0_1_1539)">
<mask id="mask0_1_1539" style="mask-type:luminance" maskUnits="userSpaceOnUse" x="0" y="0" width="30" height="30">
<path d="M29.03 0H0V29.17H29.03V0Z" fill="white"/>
</mask>
<g mask="url(#mask0_1_1539)">
<path d="M6.73004 7.38H21.3C21.54 7.38 21.74 7.18 21.74 6.94C21.74 6.7 21.54 6.5 21.3 6.5H6.73004C6.49004 6.5 6.29004 6.7 6.29004 6.94C6.29004 7.18 6.49004 7.38 6.73004 7.38Z" fill="white"/>
<path d="M6.73004 7.38H21.3C21.54 7.38 21.74 7.18 21.74 6.94C21.74 6.7 21.54 6.5 21.3 6.5H6.73004C6.49004 6.5 6.29004 6.7 6.29004 6.94C6.29004 7.18 6.49004 7.38 6.73004 7.38Z" stroke="#F55C1C" stroke-width="0.18" stroke-miterlimit="10"/>
<path d="M6.73004 9.84997H21.3C21.54 9.84997 21.74 9.64997 21.74 9.40997C21.74 9.16997 21.54 8.96997 21.3 8.96997H6.73004C6.49004 8.96997 6.29004 9.16997 6.29004 9.40997C6.29004 9.64997 6.49004 9.84997 6.73004 9.84997Z" fill="white"/>
<path d="M6.73004 9.84997H21.3C21.54 9.84997 21.74 9.64997 21.74 9.40997C21.74 9.16997 21.54 8.96997 21.3 8.96997H6.73004C6.49004 8.96997 6.29004 9.16997 6.29004 9.40997C6.29004 9.64997 6.49004 9.84997 6.73004 9.84997Z" stroke="#F55C1C" stroke-width="0.18" stroke-miterlimit="10"/>
<path d="M25.78 17.51L23.44 19.98L22.5 19.3C22.3 19.16 22.03 19.2 21.89 19.4C21.75 19.6 21.79 19.87 21.99 20.01L23.25 20.91C23.44 21.04 23.7 21.01 23.84 20.83L26.42 18.11C26.59 17.93 26.58 17.66 26.4 17.49C26.22 17.32 25.95 17.33 25.78 17.51Z" fill="white"/>
<path d="M25.78 17.51L23.44 19.98L22.5 19.3C22.3 19.16 22.03 19.2 21.89 19.4C21.75 19.6 21.79 19.87 21.99 20.01L23.25 20.91C23.44 21.04 23.7 21.01 23.84 20.83L26.42 18.11C26.59 17.93 26.58 17.66 26.4 17.49C26.22 17.32 25.95 17.33 25.78 17.51Z" stroke="#F55C1C" stroke-width="0.18" stroke-miterlimit="10"/>
<path d="M24.9298 23C23.1098 23.36 21.2898 22.39 20.5798 20.67C19.8698 18.96 20.4698 16.98 22.0098 15.95C23.5498 14.92 25.6098 15.12 26.9198 16.43C27.6498 17.16 28.0598 18.15 28.0598 19.18C28.0598 21.03 26.7498 22.63 24.9298 22.99M23.2998 24.71C23.2998 24.81 23.2598 24.9 23.1798 24.97C23.0998 25.05 22.9898 25.09 22.8798 25.09H4.71984V0.969966H19.7598V3.90997C19.7598 4.14997 19.9598 4.34997 20.1998 4.34997H23.2898V14.5C22.0898 14.72 21.0198 15.4 20.3098 16.38H6.72984C6.60984 16.38 6.49984 16.42 6.40984 16.5C6.32984 16.58 6.27984 16.7 6.27984 16.82C6.27984 16.94 6.32984 17.05 6.40984 17.13C6.48984 17.21 6.60984 17.26 6.72984 17.25H19.8098C19.5898 17.75 19.4598 18.29 19.4198 18.84H6.72984C6.60984 18.84 6.49984 18.88 6.40984 18.96C6.31984 19.04 6.27984 19.16 6.27984 19.27C6.27984 19.38 6.32984 19.5 6.40984 19.59C6.48984 19.67 6.60984 19.72 6.72984 19.71H19.4398C19.4998 20.27 19.6598 20.8 19.9198 21.3H6.72984C6.60984 21.3 6.49984 21.34 6.40984 21.42C6.31984 21.5 6.27984 21.62 6.27984 21.74C6.27984 21.86 6.32984 21.97 6.40984 22.05C6.48984 22.13 6.60984 22.18 6.72984 22.17H20.4898C20.5898 22.29 20.6998 22.41 20.8098 22.52C21.4898 23.2 22.3598 23.66 23.3098 23.84V24.68L23.2998 24.71ZM19.5398 27.83C19.5398 27.93 19.4998 28.02 19.4198 28.09C19.3398 28.17 19.2298 28.21 19.1198 28.21H0.969844V4.07997H3.84984V25.53C3.84984 25.77 4.04984 25.97 4.28984 25.97H19.5498V27.82L19.5398 27.83ZM20.6398 1.54997L22.6398 3.46997H20.6398V1.54997ZM28.2998 16.81C27.4498 15.33 25.8798 14.43 24.1698 14.43V3.90997C24.1698 3.76997 24.1098 3.64997 23.9998 3.55997L20.5398 0.239966C20.4598 0.139966 20.3398 0.0899658 20.1998 0.0899658H4.27984C4.03984 0.0899658 3.83984 0.289966 3.83984 0.529966V3.19997H0.529844C0.409844 3.19997 0.299844 3.24997 0.219844 3.32997C0.139844 3.40997 0.0898438 3.51997 0.0898438 3.63997V28.64C0.0898438 28.88 0.289844 29.08 0.529844 29.08H19.1298C19.4698 29.08 19.7998 28.95 20.0398 28.71C20.2898 28.48 20.4198 28.15 20.4298 27.82V25.97H22.8898C23.2298 25.97 23.5498 25.84 23.7998 25.61C24.0498 25.38 24.1798 25.05 24.1898 24.71V23.95C25.8898 23.95 27.4598 23.04 28.3198 21.57C29.1698 20.1 29.1698 18.28 28.3198 16.81" fill="white"/>
<path d="M24.9298 23C23.1098 23.36 21.2898 22.39 20.5798 20.67C19.8698 18.96 20.4698 16.98 22.0098 15.95C23.5498 14.92 25.6098 15.12 26.9198 16.43C27.6498 17.16 28.0598 18.15 28.0598 19.18C28.0598 21.03 26.7498 22.63 24.9298 22.99V23ZM23.2998 24.71C23.2998 24.81 23.2598 24.9 23.1798 24.97C23.0998 25.05 22.9898 25.09 22.8798 25.09H4.71984V0.969966H19.7598V3.90997C19.7598 4.14997 19.9598 4.34997 20.1998 4.34997H23.2898V14.5C22.0898 14.72 21.0198 15.4 20.3098 16.38H6.72984C6.60984 16.38 6.49984 16.42 6.40984 16.5C6.32984 16.58 6.27984 16.7 6.27984 16.82C6.27984 16.94 6.32984 17.05 6.40984 17.13C6.48984 17.21 6.60984 17.26 6.72984 17.25H19.8098C19.5898 17.75 19.4598 18.29 19.4198 18.84H6.72984C6.60984 18.84 6.49984 18.88 6.40984 18.96C6.31984 19.04 6.27984 19.16 6.27984 19.27C6.27984 19.38 6.32984 19.5 6.40984 19.59C6.48984 19.67 6.60984 19.72 6.72984 19.71H19.4398C19.4998 20.27 19.6598 20.8 19.9198 21.3H6.72984C6.60984 21.3 6.49984 21.34 6.40984 21.42C6.31984 21.5 6.27984 21.62 6.27984 21.74C6.27984 21.86 6.32984 21.97 6.40984 22.05C6.48984 22.13 6.60984 22.18 6.72984 22.17H20.4898C20.5898 22.29 20.6998 22.41 20.8098 22.52C21.4898 23.2 22.3598 23.66 23.3098 23.84V24.68L23.2998 24.71ZM19.5398 27.83C19.5398 27.93 19.4998 28.02 19.4198 28.09C19.3398 28.17 19.2298 28.21 19.1198 28.21H0.969844V4.07997H3.84984V25.53C3.84984 25.77 4.04984 25.97 4.28984 25.97H19.5498V27.82L19.5398 27.83ZM20.6398 1.54997L22.6398 3.46997H20.6398V1.54997ZM28.2998 16.81C27.4498 15.33 25.8798 14.43 24.1698 14.43V3.90997C24.1698 3.76997 24.1098 3.64997 23.9998 3.55997L20.5398 0.239966C20.4598 0.139966 20.3398 0.0899658 20.1998 0.0899658H4.27984C4.03984 0.0899658 3.83984 0.289966 3.83984 0.529966V3.19997H0.529844C0.409844 3.19997 0.299844 3.24997 0.219844 3.32997C0.139844 3.40997 0.0898438 3.51997 0.0898438 3.63997V28.64C0.0898438 28.88 0.289844 29.08 0.529844 29.08H19.1298C19.4698 29.08 19.7998 28.95 20.0398 28.71C20.2898 28.48 20.4198 28.15 20.4298 27.82V25.97H22.8898C23.2298 25.97 23.5498 25.84 23.7998 25.61C24.0498 25.38 24.1798 25.05 24.1898 24.71V23.95C25.8898 23.95 27.4598 23.04 28.3198 21.57C29.1698 20.1 29.1698 18.28 28.3198 16.81H28.2998Z" stroke="#F55C1C" stroke-width="0.18" stroke-miterlimit="10"/>
<path d="M6.73004 14.7899H21.3C21.54 14.7899 21.74 14.5899 21.74 14.3499C21.74 14.1099 21.54 13.9099 21.3 13.9099H6.73004C6.49004 13.9099 6.29004 14.1099 6.29004 14.3499C6.29004 14.5899 6.49004 14.7899 6.73004 14.7899Z" fill="white"/>
<path d="M6.73004 14.7899H21.3C21.54 14.7899 21.74 14.5899 21.74 14.3499C21.74 14.1099 21.54 13.9099 21.3 13.9099H6.73004C6.49004 13.9099 6.29004 14.1099 6.29004 14.3499C6.29004 14.5899 6.49004 14.7899 6.73004 14.7899Z" stroke="#F55C1C" stroke-width="0.18" stroke-miterlimit="10"/>
<path d="M6.73004 12.3199H21.3C21.54 12.3199 21.74 12.1199 21.74 11.8799C21.74 11.6399 21.54 11.4399 21.3 11.4399H6.73004C6.49004 11.4399 6.29004 11.6399 6.29004 11.8799C6.29004 12.1199 6.49004 12.3199 6.73004 12.3199Z" fill="white"/>
<path d="M6.73004 12.3199H21.3C21.54 12.3199 21.74 12.1199 21.74 11.8799C21.74 11.6399 21.54 11.4399 21.3 11.4399H6.73004C6.49004 11.4399 6.29004 11.6399 6.29004 11.8799C6.29004 12.1199 6.49004 12.3199 6.73004 12.3199Z" stroke="#F55C1C" stroke-width="0.18" stroke-miterlimit="10"/>
</g>
</g>
<defs>
<clipPath id="clip0_1_1539">
<rect width="29.03" height="29.17" fill="white"/>
</clipPath>
</defs>
</svg>
