<svg width="23" height="29" viewBox="0 0 23 29" fill="none" xmlns="http://www.w3.org/2000/svg">
<g clip-path="url(#clip0_1_1328)">
<mask id="mask0_1_1328" style="mask-type:luminance" maskUnits="userSpaceOnUse" x="0" y="0" width="23" height="29">
<path d="M22.94 0H0V28.62H22.94V0Z" fill="white"/>
</mask>
<g mask="url(#mask0_1_1328)">
<path d="M11.47 2.93998C11.73 2.93998 11.94 2.72998 11.94 2.46998V0.569976C11.94 0.309976 11.73 0.0999756 11.47 0.0999756C11.21 0.0999756 11 0.309976 11 0.569976V2.45998C11 2.71998 11.21 2.92998 11.47 2.92998" fill="#F55C1C"/>
<path d="M11.47 2.93998C11.73 2.93998 11.94 2.72998 11.94 2.46998V0.569976C11.94 0.309976 11.73 0.0999756 11.47 0.0999756C11.21 0.0999756 11 0.309976 11 0.569976V2.45998C11 2.71998 11.21 2.92998 11.47 2.92998V2.93998Z" stroke="#F7ECE0" stroke-width="0.2" stroke-miterlimit="10"/>
<path d="M22.3602 10.99H20.4602C20.2002 10.99 19.9902 11.2 19.9902 11.46C19.9902 11.72 20.2002 11.93 20.4602 11.93H22.3602C22.6202 11.93 22.8302 11.72 22.8302 11.46C22.8302 11.2 22.6202 10.99 22.3602 10.99Z" fill="#F55C1C"/>
<path d="M22.3602 10.99H20.4602C20.2002 10.99 19.9902 11.2 19.9902 11.46C19.9902 11.72 20.2002 11.93 20.4602 11.93H22.3602C22.6202 11.93 22.8302 11.72 22.8302 11.46C22.8302 11.2 22.6202 10.99 22.3602 10.99Z" stroke="#F7ECE0" stroke-width="0.2" stroke-miterlimit="10"/>
<path d="M2.4701 10.99H0.570098C0.310098 10.99 0.100098 11.2 0.100098 11.46C0.100098 11.72 0.310098 11.93 0.570098 11.93H2.4601C2.7201 11.93 2.9301 11.72 2.9301 11.46C2.9301 11.2 2.7201 10.99 2.4601 10.99" fill="#F55C1C"/>
<path d="M2.4701 10.99H0.570098C0.310098 10.99 0.100098 11.2 0.100098 11.46C0.100098 11.72 0.310098 11.93 0.570098 11.93H2.4601C2.7201 11.93 2.9301 11.72 2.9301 11.46C2.9301 11.2 2.7201 10.99 2.4601 10.99H2.4701Z" stroke="#F7ECE0" stroke-width="0.2" stroke-miterlimit="10"/>
<path d="M18.8402 3.42992L17.5002 4.76992C17.3202 4.94992 17.3202 5.24992 17.5002 5.43992C17.5902 5.53992 17.7102 5.57992 17.8402 5.57992C17.9702 5.57992 18.0802 5.52992 18.1802 5.43992L19.5202 4.09992C19.7002 3.91992 19.7002 3.61992 19.5202 3.42992C19.3402 3.24992 19.0402 3.24992 18.8502 3.42992H18.8402Z" fill="#F55C1C"/>
<path d="M18.8402 3.42992L17.5002 4.76992C17.3202 4.94992 17.3202 5.24992 17.5002 5.43992C17.5902 5.53992 17.7102 5.57992 17.8402 5.57992C17.9702 5.57992 18.0802 5.52992 18.1802 5.43992L19.5202 4.09992C19.7002 3.91992 19.7002 3.61992 19.5202 3.42992C19.3402 3.24992 19.0402 3.24992 18.8502 3.42992H18.8402Z" stroke="#F7ECE0" stroke-width="0.2" stroke-miterlimit="10"/>
<path d="M4.76992 17.4999L3.42992 18.8399C3.24992 19.0199 3.24992 19.3199 3.42992 19.5099C3.52992 19.6099 3.63992 19.6499 3.76992 19.6499C3.89992 19.6499 4.00992 19.5999 4.10992 19.5099L5.44992 18.1699C5.62992 17.9799 5.62992 17.6899 5.44992 17.4999C5.26992 17.3099 4.96992 17.3099 4.77992 17.4999H4.76992Z" fill="#F55C1C"/>
<path d="M4.76992 17.4999L3.42992 18.8399C3.24992 19.0199 3.24992 19.3199 3.42992 19.5099C3.52992 19.6099 3.63992 19.6499 3.76992 19.6499C3.89992 19.6499 4.00992 19.5999 4.10992 19.5099L5.44992 18.1699C5.62992 17.9799 5.62992 17.6899 5.44992 17.4999C5.26992 17.3099 4.96992 17.3099 4.77992 17.4999H4.76992Z" stroke="#F7ECE0" stroke-width="0.2" stroke-miterlimit="10"/>
<path d="M18.1699 17.4999C17.9899 17.3099 17.6899 17.3099 17.4999 17.4999C17.3099 17.6899 17.3099 17.9799 17.4999 18.1699L18.8399 19.5099C18.9299 19.6099 19.0499 19.6499 19.1799 19.6499C19.3099 19.6499 19.4199 19.5999 19.5199 19.5099C19.7099 19.3299 19.7099 19.0299 19.5199 18.8399L18.1799 17.4999H18.1699Z" fill="#F55C1C"/>
<path d="M18.1699 17.4999C17.9899 17.3099 17.6899 17.3099 17.4999 17.4999C17.3099 17.6899 17.3099 17.9799 17.4999 18.1699L18.8399 19.5099C18.9299 19.6099 19.0499 19.6499 19.1799 19.6499C19.3099 19.6499 19.4199 19.5999 19.5199 19.5099C19.7099 19.3299 19.7099 19.0299 19.5199 18.8399L18.1799 17.4999H18.1699Z" stroke="#F7ECE0" stroke-width="0.2" stroke-miterlimit="10"/>
<path d="M4.77018 5.43998C4.86018 5.52998 4.98018 5.57998 5.11018 5.57998C5.24018 5.57998 5.35018 5.52998 5.45018 5.43998C5.63018 5.25998 5.63018 4.95998 5.45018 4.76998L4.11018 3.42998C3.92018 3.23998 3.63018 3.23998 3.44018 3.42998C3.26018 3.60998 3.26018 3.90998 3.44018 4.09998L4.78018 5.43998H4.77018Z" fill="#F55C1C"/>
<path d="M4.77018 5.43998C4.86018 5.52998 4.98018 5.57998 5.11018 5.57998C5.24018 5.57998 5.35018 5.52998 5.45018 5.43998C5.63018 5.25998 5.63018 4.95998 5.45018 4.76998L4.11018 3.42998C3.92018 3.23998 3.63018 3.23998 3.44018 3.42998C3.26018 3.60998 3.26018 3.90998 3.44018 4.09998L4.78018 5.43998H4.77018Z" stroke="#F7ECE0" stroke-width="0.2" stroke-miterlimit="10"/>
<path d="M14.3302 20H8.62018C8.52018 18.58 7.89018 17.24 6.83018 16.2C5.49018 14.89 4.77018 13.07 4.85018 11.2C4.99018 7.79 7.76018 5 11.1602 4.85C13.0002 4.76 14.7302 5.41 16.0502 6.68C17.3702 7.95 18.1002 9.65 18.1002 11.48C18.1002 13.31 17.4002 14.92 16.1402 16.18C15.0602 17.25 14.4202 18.6 14.3202 20.01L14.3302 20ZM14.7902 21.89H7.68018V20.94H15.2602V21.89H14.7902ZM14.3102 23.78H8.63018V22.83H14.3102V23.78ZM14.3102 25.21C14.3102 25.47 14.1002 25.68 13.8402 25.68H9.10018C8.84018 25.68 8.63018 25.47 8.63018 25.21V24.74H14.3102V25.21ZM11.4702 27.57C10.8502 27.57 10.3202 27.17 10.1302 26.62H12.8102C12.6202 27.17 12.0902 27.57 11.4702 27.57ZM19.0502 11.47C19.0502 9.38 18.2202 7.43 16.7102 5.99C15.2002 4.54 13.2102 3.81 11.1202 3.9C7.23018 4.08 4.06018 7.27 3.90018 11.16C3.81018 13.3 4.64018 15.38 6.17018 16.87C7.05018 17.73 7.57018 18.83 7.67018 19.99C7.16018 19.99 6.74018 20.42 6.74018 20.94V21.89C6.74018 22.41 7.17018 22.84 7.69018 22.84V23.79H7.22018C6.96018 23.79 6.75018 24 6.75018 24.26C6.75018 24.52 6.96018 24.73 7.22018 24.73H7.69018V25.2C7.69018 25.98 8.33018 26.62 9.11018 26.62H9.16018C9.38018 27.7 10.3402 28.51 11.4802 28.51C12.6202 28.51 13.5802 27.7 13.8002 26.62H13.8502C14.6302 26.62 15.2702 25.98 15.2702 25.2V24.73H15.7402C16.0002 24.73 16.2102 24.52 16.2102 24.26C16.2102 24 16.0002 23.79 15.7402 23.79H15.2702V22.84C15.7902 22.84 16.2202 22.41 16.2202 21.89V20.94C16.2202 20.42 15.8102 20.01 15.3002 19.99C15.4002 18.83 15.9402 17.72 16.8302 16.83C18.2702 15.4 19.0702 13.49 19.0702 11.46L19.0502 11.47Z" fill="#F55C1C"/>
<path d="M14.3302 20H8.62018C8.52018 18.58 7.89018 17.24 6.83018 16.2C5.49018 14.89 4.77018 13.07 4.85018 11.2C4.99018 7.79 7.76018 5 11.1602 4.85C13.0002 4.76 14.7302 5.41 16.0502 6.68C17.3702 7.95 18.1002 9.65 18.1002 11.48C18.1002 13.31 17.4002 14.92 16.1402 16.18C15.0602 17.25 14.4202 18.6 14.3202 20.01L14.3302 20ZM14.7902 21.89H7.68018V20.94H15.2602V21.89H14.7902ZM14.3102 23.78H8.63018V22.83H14.3102V23.78ZM14.3102 25.21C14.3102 25.47 14.1002 25.68 13.8402 25.68H9.10018C8.84018 25.68 8.63018 25.47 8.63018 25.21V24.74H14.3102V25.21ZM11.4702 27.57C10.8502 27.57 10.3202 27.17 10.1302 26.62H12.8102C12.6202 27.17 12.0902 27.57 11.4702 27.57ZM19.0502 11.47C19.0502 9.38 18.2202 7.43 16.7102 5.99C15.2002 4.54 13.2102 3.81 11.1202 3.9C7.23018 4.08 4.06018 7.27 3.90018 11.16C3.81018 13.3 4.64018 15.38 6.17018 16.87C7.05018 17.73 7.57018 18.83 7.67018 19.99C7.16018 19.99 6.74018 20.42 6.74018 20.94V21.89C6.74018 22.41 7.17018 22.84 7.69018 22.84V23.79H7.22018C6.96018 23.79 6.75018 24 6.75018 24.26C6.75018 24.52 6.96018 24.73 7.22018 24.73H7.69018V25.2C7.69018 25.98 8.33018 26.62 9.11018 26.62H9.16018C9.38018 27.7 10.3402 28.51 11.4802 28.51C12.6202 28.51 13.5802 27.7 13.8002 26.62H13.8502C14.6302 26.62 15.2702 25.98 15.2702 25.2V24.73H15.7402C16.0002 24.73 16.2102 24.52 16.2102 24.26C16.2102 24 16.0002 23.79 15.7402 23.79H15.2702V22.84C15.7902 22.84 16.2202 22.41 16.2202 21.89V20.94C16.2202 20.42 15.8102 20.01 15.3002 19.99C15.4002 18.83 15.9402 17.72 16.8302 16.83C18.2702 15.4 19.0702 13.49 19.0702 11.46L19.0502 11.47Z" stroke="#F7ECE0" stroke-width="0.2" stroke-miterlimit="10"/>
<path d="M13.3599 11.9399H12.8899V11.4699C12.8899 11.2099 13.0999 10.9999 13.3599 10.9999C13.6199 10.9999 13.8299 11.2099 13.8299 11.4699C13.8299 11.7299 13.6199 11.9399 13.3599 11.9399ZM9.0999 11.4699C9.0999 11.2099 9.3099 10.9999 9.5699 10.9999C9.8299 10.9999 10.0399 11.2099 10.0399 11.4699V11.9399H9.5699C9.3099 11.9399 9.0999 11.7299 9.0999 11.4699ZM13.3599 10.0499C12.5799 10.0499 11.9399 10.6899 11.9399 11.4699V11.9399H10.9899V11.4699C10.9899 10.6899 10.3499 10.0499 9.5699 10.0499C8.7899 10.0499 8.1499 10.6899 8.1499 11.4699C8.1499 12.2499 8.7899 12.8899 9.5699 12.8899H10.0399V18.5799C10.0399 18.8399 10.2499 19.0499 10.5099 19.0499C10.7699 19.0499 10.9799 18.8399 10.9799 18.5799V12.8899H11.9299V18.5799C11.9299 18.8399 12.1399 19.0499 12.3999 19.0499C12.6599 19.0499 12.8699 18.8399 12.8699 18.5799V12.8899H13.3399C14.1199 12.8899 14.7599 12.2499 14.7599 11.4699C14.7599 10.6899 14.1199 10.0499 13.3399 10.0499" fill="#F55C1C"/>
<path d="M13.3599 11.9399H12.8899V11.4699C12.8899 11.2099 13.0999 10.9999 13.3599 10.9999C13.6199 10.9999 13.8299 11.2099 13.8299 11.4699C13.8299 11.7299 13.6199 11.9399 13.3599 11.9399ZM9.0999 11.4699C9.0999 11.2099 9.3099 10.9999 9.5699 10.9999C9.8299 10.9999 10.0399 11.2099 10.0399 11.4699V11.9399H9.5699C9.3099 11.9399 9.0999 11.7299 9.0999 11.4699ZM13.3599 10.0499C12.5799 10.0499 11.9399 10.6899 11.9399 11.4699V11.9399H10.9899V11.4699C10.9899 10.6899 10.3499 10.0499 9.5699 10.0499C8.7899 10.0499 8.1499 10.6899 8.1499 11.4699C8.1499 12.2499 8.7899 12.8899 9.5699 12.8899H10.0399V18.5799C10.0399 18.8399 10.2499 19.0499 10.5099 19.0499C10.7699 19.0499 10.9799 18.8399 10.9799 18.5799V12.8899H11.9299V18.5799C11.9299 18.8399 12.1399 19.0499 12.3999 19.0499C12.6599 19.0499 12.8699 18.8399 12.8699 18.5799V12.8899H13.3399C14.1199 12.8899 14.7599 12.2499 14.7599 11.4699C14.7599 10.6899 14.1199 10.0499 13.3399 10.0499H13.3599Z" stroke="#F7ECE0" stroke-width="0.2" stroke-miterlimit="10"/>
</g>
</g>
<defs>
<clipPath id="clip0_1_1328">
<rect width="22.94" height="28.62" fill="white"/>
</clipPath>
</defs>
</svg>
