<svg width="31" height="32" viewBox="0 0 31 32" fill="none" xmlns="http://www.w3.org/2000/svg">
<g clip-path="url(#clip0_1_1557)">
<mask id="mask0_1_1557" style="mask-type:luminance" maskUnits="userSpaceOnUse" x="0" y="0" width="31" height="32">
<path d="M30.52 0H0V31.44H30.52V0Z" fill="white"/>
</mask>
<g mask="url(#mask0_1_1557)">
<path d="M18.0298 12.48L14.4798 16.23L13.0498 15.2C12.7498 14.99 12.3298 15.05 12.1198 15.35C11.9098 15.65 11.9698 16.07 12.2798 16.28L14.1898 17.65C14.4698 17.85 14.8698 17.8 15.0898 17.53L19.0098 13.39C19.2598 13.12 19.2498 12.7 18.9898 12.45C18.7198 12.2 18.2998 12.21 18.0498 12.47" fill="white"/>
<path d="M18.0298 12.48L14.4798 16.23L13.0498 15.2C12.7498 14.99 12.3298 15.05 12.1198 15.35C11.9098 15.65 11.9698 16.07 12.2798 16.28L14.1898 17.65C14.4698 17.85 14.8698 17.8 15.0898 17.53L19.0098 13.39C19.2598 13.12 19.2498 12.7 18.9898 12.45C18.7198 12.2 18.2998 12.21 18.0498 12.47L18.0298 12.48Z" stroke="#F55C1C" stroke-width="0.53" stroke-miterlimit="10"/>
<path d="M17.7298 28.37H12.7898C13.0098 29.53 14.0198 30.38 15.1998 30.41H15.2598C15.2598 30.41 15.2998 30.41 15.3198 30.41C15.9798 30.39 16.5998 30.12 17.0598 29.65C17.4098 29.3 17.6398 28.85 17.7298 28.37ZM18.7698 26.26H11.7398V26.44C11.7398 26.7 11.8298 26.95 12.0098 27.14H12.0298C12.2098 27.33 12.4598 27.43 12.7198 27.43H17.7798C18.0298 27.43 18.2698 27.33 18.4498 27.16L18.4698 27.14C18.6498 26.95 18.7598 26.71 18.7598 26.44V26.26H18.7698ZM11.7398 25.31H18.7698V24.45C18.7698 22.66 19.7498 21.67 20.8598 20.54C22.1198 19.25 23.5698 17.76 23.5698 14.51C23.5698 11.54 21.9898 8.80997 19.4198 7.31997C16.8498 5.83997 13.6898 5.83997 11.1198 7.31997C8.54984 8.79997 6.96984 11.54 6.96984 14.51C6.96984 17.76 8.40984 19.23 9.66984 20.52C10.7698 21.64 11.7598 22.65 11.7598 24.45V25.31H11.7398ZM22.2798 5.59997L23.7998 2.96997C23.8898 2.74997 23.7998 2.48997 23.5998 2.36997C23.3898 2.24997 23.1198 2.30997 22.9798 2.50997L21.4598 5.13997C21.3298 5.36997 21.3998 5.65997 21.6298 5.78997C21.8598 5.91997 22.1498 5.83997 22.2798 5.61997V5.59997ZM26.1798 10.61C26.0698 10.7 25.9298 10.74 25.7998 10.72C25.6598 10.7 25.5398 10.61 25.4698 10.49C25.3998 10.37 25.3898 10.23 25.4298 10.09C25.4798 9.95997 25.5798 9.84997 25.7098 9.80997L28.3398 8.28997C28.4498 8.19997 28.5898 8.15997 28.7198 8.18997C28.8598 8.20997 28.9798 8.29997 29.0498 8.41997C29.1198 8.53997 29.1298 8.68997 29.0898 8.81997C29.0398 8.94997 28.9398 9.05997 28.8098 9.10997L26.1798 10.63V10.61ZM26.9598 17.29C26.7198 17.27 26.5298 17.06 26.5298 16.82C26.5298 16.58 26.7198 16.37 26.9598 16.35H29.9998C30.2498 16.37 30.4398 16.58 30.4398 16.82C30.4398 17.06 30.2498 17.27 29.9998 17.29H26.9598ZM15.1398 4.04997C14.9298 3.98997 14.7898 3.80997 14.7898 3.58997V0.549966C14.7898 0.339966 14.9298 0.149966 15.1398 0.0899658H15.3798C15.5898 0.149966 15.7298 0.339966 15.7298 0.549966V3.58997C15.7298 3.79997 15.5898 3.98997 15.3798 4.04997H15.1398ZM9.04984 5.11997L7.52984 2.50997C7.39984 2.27997 7.10984 2.20997 6.87984 2.33997C6.64984 2.46997 6.57984 2.75997 6.70984 2.98997L8.22984 5.61997C8.35984 5.84997 8.64984 5.91997 8.87984 5.78997C9.10984 5.65997 9.17984 5.36997 9.04984 5.13997V5.11997ZM4.80984 9.80997C4.92984 9.86997 5.00984 9.96997 5.04984 10.1C5.08984 10.22 5.06984 10.36 4.99984 10.47C4.93984 10.58 4.82984 10.66 4.69984 10.69C4.56984 10.72 4.43984 10.69 4.32984 10.62L1.69984 9.08997C1.58984 9.02997 1.50984 8.91997 1.47984 8.79997C1.44984 8.67997 1.46984 8.54996 1.52984 8.43997C1.65984 8.20997 1.94984 8.13997 2.17984 8.26997L4.80984 9.79997V9.80997ZM3.56984 16.35C3.81984 16.37 3.99984 16.58 3.99984 16.83C3.99984 17.08 3.80984 17.28 3.56984 17.3H0.529844C0.279844 17.28 0.0898438 17.07 0.0898438 16.83C0.0898438 16.59 0.279844 16.38 0.529844 16.35H3.56984ZM19.7198 24.45V26.44C19.7198 26.95 19.5198 27.44 19.1498 27.81L19.1198 27.84C18.9998 27.96 18.8598 28.06 18.6998 28.15C18.5798 29.93 17.1098 31.33 15.3198 31.37H15.1698C13.3798 31.33 11.9198 29.94 11.7898 28.16C11.6198 28.07 11.4698 27.95 11.3398 27.81L11.3098 27.78C10.9598 27.42 10.7698 26.94 10.7698 26.44V24.46C10.7698 23.04 9.91984 22.17 8.96984 21.19C7.59984 19.77 5.99984 18.16 5.99984 14.52C5.99984 11.22 7.75984 8.15997 10.6198 6.50997C13.4798 4.85997 16.9998 4.85997 19.8698 6.50997C22.7298 8.15997 24.4898 11.21 24.4898 14.52C24.4898 18.16 22.8898 19.78 21.4998 21.2C20.5398 22.18 19.6898 23.05 19.6898 24.46L19.7198 24.45Z" fill="white"/>
<path d="M17.7298 28.37H12.7898C13.0098 29.53 14.0198 30.38 15.1998 30.41H15.2598C15.2598 30.41 15.2998 30.41 15.3198 30.41C15.9798 30.39 16.5998 30.12 17.0598 29.65C17.4098 29.3 17.6398 28.85 17.7298 28.37ZM18.7698 26.26H11.7398V26.44C11.7398 26.7 11.8298 26.95 12.0098 27.14H12.0298C12.2098 27.33 12.4598 27.43 12.7198 27.43H17.7798C18.0298 27.43 18.2698 27.33 18.4498 27.16L18.4698 27.14C18.6498 26.95 18.7598 26.71 18.7598 26.44V26.26H18.7698ZM11.7398 25.31H18.7698V24.45C18.7698 22.66 19.7498 21.67 20.8598 20.54C22.1198 19.25 23.5698 17.76 23.5698 14.51C23.5698 11.54 21.9898 8.80997 19.4198 7.31997C16.8498 5.83997 13.6898 5.83997 11.1198 7.31997C8.54984 8.79997 6.96984 11.54 6.96984 14.51C6.96984 17.76 8.40984 19.23 9.66984 20.52C10.7698 21.64 11.7598 22.65 11.7598 24.45V25.31H11.7398ZM22.2798 5.59997L23.7998 2.96997C23.8898 2.74997 23.7998 2.48997 23.5998 2.36997C23.3898 2.24997 23.1198 2.30997 22.9798 2.50997L21.4598 5.13997C21.3298 5.36997 21.3998 5.65997 21.6298 5.78997C21.8598 5.91997 22.1498 5.83997 22.2798 5.61997V5.59997ZM26.1798 10.61C26.0698 10.7 25.9298 10.74 25.7998 10.72C25.6598 10.7 25.5398 10.61 25.4698 10.49C25.3998 10.37 25.3898 10.23 25.4298 10.09C25.4798 9.95997 25.5798 9.84997 25.7098 9.80997L28.3398 8.28997C28.4498 8.19997 28.5898 8.15997 28.7198 8.18997C28.8598 8.20997 28.9798 8.29997 29.0498 8.41997C29.1198 8.53997 29.1298 8.68997 29.0898 8.81997C29.0398 8.94997 28.9398 9.05997 28.8098 9.10997L26.1798 10.63V10.61ZM26.9598 17.29C26.7198 17.27 26.5298 17.06 26.5298 16.82C26.5298 16.58 26.7198 16.37 26.9598 16.35H29.9998C30.2498 16.37 30.4398 16.58 30.4398 16.82C30.4398 17.06 30.2498 17.27 29.9998 17.29H26.9598ZM15.1398 4.04997C14.9298 3.98997 14.7898 3.80997 14.7898 3.58997V0.549966C14.7898 0.339966 14.9298 0.149966 15.1398 0.0899658H15.3798C15.5898 0.149966 15.7298 0.339966 15.7298 0.549966V3.58997C15.7298 3.79997 15.5898 3.98997 15.3798 4.04997H15.1398ZM9.04984 5.11997L7.52984 2.50997C7.39984 2.27997 7.10984 2.20997 6.87984 2.33997C6.64984 2.46997 6.57984 2.75997 6.70984 2.98997L8.22984 5.61997C8.35984 5.84997 8.64984 5.91997 8.87984 5.78997C9.10984 5.65997 9.17984 5.36997 9.04984 5.13997V5.11997ZM4.80984 9.80997C4.92984 9.86997 5.00984 9.96997 5.04984 10.1C5.08984 10.22 5.06984 10.36 4.99984 10.47C4.93984 10.58 4.82984 10.66 4.69984 10.69C4.56984 10.72 4.43984 10.69 4.32984 10.62L1.69984 9.08997C1.58984 9.02997 1.50984 8.91997 1.47984 8.79997C1.44984 8.67997 1.46984 8.54997 1.52984 8.43997C1.65984 8.20997 1.94984 8.13997 2.17984 8.26997L4.80984 9.79997V9.80997ZM3.56984 16.35C3.81984 16.37 3.99984 16.58 3.99984 16.83C3.99984 17.08 3.80984 17.28 3.56984 17.3H0.529844C0.279844 17.28 0.0898438 17.07 0.0898438 16.83C0.0898438 16.59 0.279844 16.38 0.529844 16.35H3.56984ZM19.7198 24.45V26.44C19.7198 26.95 19.5198 27.44 19.1498 27.81L19.1198 27.84C18.9998 27.96 18.8598 28.06 18.6998 28.15C18.5798 29.93 17.1098 31.33 15.3198 31.37H15.1698C13.3798 31.33 11.9198 29.94 11.7898 28.16C11.6198 28.07 11.4698 27.95 11.3398 27.81L11.3098 27.78C10.9598 27.42 10.7698 26.94 10.7698 26.44V24.46C10.7698 23.04 9.91984 22.17 8.96984 21.19C7.59984 19.77 5.99984 18.16 5.99984 14.52C5.99984 11.22 7.75984 8.15997 10.6198 6.50997C13.4798 4.85997 16.9998 4.85997 19.8698 6.50997C22.7298 8.15997 24.4898 11.21 24.4898 14.52C24.4898 18.16 22.8898 19.78 21.4998 21.2C20.5398 22.18 19.6898 23.05 19.6898 24.46L19.7198 24.45Z" stroke="#F55C1C" stroke-width="0.18" stroke-miterlimit="10"/>
</g>
</g>
<defs>
<clipPath id="clip0_1_1557">
<rect width="30.52" height="31.44" fill="white"/>
</clipPath>
</defs>
</svg>
