<svg width="35" height="32" viewBox="0 0 35 32" fill="none" xmlns="http://www.w3.org/2000/svg">
<path d="M31.959 20.3352C31.7545 19.8912 31.4016 19.5533 30.9839 19.3575C30.5661 19.163 30.0835 19.1094 29.6134 19.2353C29.5087 19.264 29.4027 19.3027 29.2992 19.3501L29.2418 19.3713C29.672 18.7864 30.0436 18.1555 30.3442 17.4846C30.919 16.2027 31.2407 14.7849 31.2407 13.296C31.2407 10.4691 30.0948 7.90907 28.243 6.05731C26.3912 4.20556 23.8312 3.05959 21.0043 3.05959C18.1774 3.05959 15.6186 4.20556 13.7669 6.05731C11.9139 7.90907 10.7692 10.4691 10.7692 13.296C10.7692 14.3696 10.935 15.4059 11.2418 16.381C11.4288 16.9746 11.6695 17.5469 11.9588 18.0894L11.9575 18.0906C11.8391 18.0769 11.7206 18.0694 11.6034 18.0694C11.3216 18.0694 11.0398 18.1081 10.748 18.1866L5.09543 19.7005L4.71884 18.2964C4.64527 18.0208 4.36221 17.8574 4.08663 17.931L0.551457 18.8775C0.275876 18.951 0.112521 19.2341 0.184846 19.5097L3.42823 31.6153C3.50305 31.8909 3.78611 32.0542 4.06169 31.9819L7.59686 31.0342C7.87244 30.9606 8.03579 30.6776 7.96222 30.402L7.58688 28.9954L9.52717 28.4754C9.73667 28.4193 9.93244 28.3881 10.1182 28.3869C10.304 28.3856 10.4923 28.4118 10.6894 28.4717L14.0749 29.4867C14.4427 29.5964 14.8019 29.6363 15.161 29.6102C15.5189 29.5852 15.8705 29.4967 16.2172 29.347L30.8953 23.0411L30.8941 23.0399C31.3567 22.8516 31.7183 22.5012 31.9303 22.0772C32.1435 21.652 32.2084 21.1519 32.0762 20.6594C32.0463 20.5472 32.0064 20.4387 31.959 20.3352ZM11.8029 13.2985C11.8029 10.7584 12.8317 8.45774 14.4976 6.79303C16.1611 5.12707 18.463 4.09707 21.0031 4.09707C23.5444 4.09707 25.8438 5.12707 27.5098 6.79303C29.1745 8.45649 30.2045 10.7572 30.2045 13.2985C30.2045 14.644 29.9177 15.9196 29.4014 17.0681C28.8802 18.2315 28.1196 19.269 27.1831 20.1169L20.8397 22.4076C20.8933 21.9238 20.7836 21.4462 20.5504 21.0422C20.2611 20.5409 19.7823 20.1506 19.185 19.9898L13.3629 18.4298C12.8803 17.7115 12.4937 16.9172 12.2269 16.0705V16.073C11.95 15.1989 11.8029 14.2661 11.8029 13.2985ZM4.29362 30.8509L1.3171 19.7429L3.85344 19.062C4.7151 22.273 5.52564 25.5824 6.45463 28.7647L6.82997 30.1713L4.29362 30.8509ZM31.0125 21.6183C30.9065 21.8278 30.7295 21.9986 30.5025 22.0897L30.4888 22.0959L30.4876 22.0946L15.8094 28.4006C15.5675 28.5041 15.3281 28.5664 15.0924 28.5827C14.8567 28.5989 14.6161 28.5714 14.3692 28.4979L10.9836 27.4828C10.6906 27.3955 10.405 27.3556 10.1145 27.3581C9.8252 27.3619 9.54339 27.4043 9.25908 27.4803L7.31629 28.0003L5.36104 20.7018L11.0123 19.1867C11.2131 19.1318 11.4076 19.1056 11.5996 19.1056C11.7929 19.1056 11.9875 19.1318 12.1882 19.1867L18.9169 20.9898C19.2399 21.0759 19.4992 21.2866 19.6551 21.556C19.8122 21.8278 19.8646 22.1582 19.7773 22.4825C19.69 22.8054 19.4793 23.0648 19.2087 23.2207C19.2012 23.2244 19.1937 23.2294 19.1862 23.2331C18.9206 23.379 18.6014 23.4264 18.2859 23.3416L12.7706 21.8652C12.495 21.7916 12.2119 21.955 12.1383 22.2306C12.066 22.5061 12.2281 22.7892 12.5037 22.8628L18.0191 24.3404C18.6039 24.4963 19.2 24.404 19.6938 24.1297C19.705 24.1247 19.7174 24.1185 19.7274 24.1122C19.9082 24.0088 20.0753 23.8778 20.2225 23.7269L27.5933 21.0646C27.6208 21.0572 27.6457 21.0484 27.6706 21.036L29.6795 20.309C29.6945 20.3027 29.7094 20.2965 29.7232 20.2903V20.2928C29.7743 20.2703 29.8267 20.2504 29.8815 20.2354C30.1097 20.1756 30.3454 20.2017 30.5499 20.2965C30.7544 20.3925 30.9252 20.5559 31.0238 20.7691C31.0462 20.8177 31.0649 20.8714 31.0799 20.9275C31.146 21.1694 31.1148 21.4138 31.0125 21.6183Z" fill="#0000FF"/>
<path d="M30.4122 3.89579C28.0043 1.48789 24.6799 -0.000999065 21.0063 -0.000999065C17.3327 -0.000999065 14.007 1.48789 11.6004 3.89579C9.47303 6.02313 8.06145 8.86997 7.76467 12.041L7.33073 11.5684C7.13745 11.3577 6.80949 11.344 6.60125 11.5385C6.39051 11.7305 6.37679 12.0585 6.57132 12.268L7.82204 13.6284C7.91681 13.7456 8.0627 13.8217 8.22356 13.8217C8.3707 13.8217 8.50164 13.7606 8.59765 13.6633L9.9581 12.4126C10.1688 12.2206 10.1826 11.8926 9.98803 11.6831C9.79599 11.4737 9.46804 11.4599 9.2598 11.6545L9.25481 11.6457L8.79717 12.066C9.08647 9.17049 10.3808 6.57055 12.3298 4.62278C14.5495 2.40317 17.6158 1.03025 21.005 1.03025C24.3918 1.03025 27.4594 2.40317 29.6802 4.62278C31.8999 6.84364 33.2728 9.90995 33.2728 13.2992C33.2728 14.0636 33.2054 14.8056 33.0745 15.5201C32.9398 16.2558 32.7378 16.9703 32.4772 17.6599C32.3774 17.9255 32.5121 18.2235 32.7777 18.3245C33.0446 18.4255 33.3426 18.2909 33.4436 18.024C33.7254 17.2833 33.9424 16.5077 34.0895 15.7084C34.2329 14.9215 34.309 14.1172 34.309 13.3017C34.309 9.62813 32.8201 6.30245 30.4122 3.89579Z" fill="#0000FF"/>
<path d="M19.3423 17.1467C18.9395 16.7939 18.6901 16.3113 18.6901 15.7801C18.6901 15.4945 18.4595 15.2638 18.1739 15.2638C17.8871 15.2638 17.6564 15.4945 17.6564 15.7801C17.6564 16.6205 18.0417 17.3774 18.664 17.9224C19.149 18.3476 19.7837 18.6444 20.4883 18.7429V19.3227C20.4883 19.6095 20.719 19.8402 21.0045 19.8402C21.2913 19.8402 21.522 19.6095 21.522 19.3227V18.7429C22.2253 18.6444 22.8588 18.3501 23.3463 17.9224C23.9686 17.3774 24.3539 16.6205 24.3539 15.7801C24.3539 14.9147 23.9574 14.2675 23.3189 13.7737C22.8326 13.3983 22.2079 13.1215 21.522 12.9108V8.903C21.9659 8.98904 22.36 9.18232 22.6667 9.45042C23.0708 9.80332 23.3189 10.2871 23.3189 10.8171C23.3189 11.1027 23.5508 11.3334 23.8364 11.3334C24.122 11.3334 24.3539 11.1027 24.3539 10.8171C24.3539 9.97665 23.9686 9.21973 23.3463 8.6748C22.86 8.24959 22.2253 7.95281 21.522 7.85554V7.27445C21.522 6.98765 21.2913 6.75696 21.0045 6.75696C20.719 6.75696 20.4883 6.98765 20.4883 7.27445V7.85554C19.7837 7.95281 19.1515 8.24709 18.664 8.6748C18.0417 9.21973 17.6564 9.97665 17.6564 10.8171C17.6564 11.6838 18.0517 12.3297 18.6889 12.8235C19.1752 13.1988 19.7987 13.4744 20.4883 13.6864V17.6942C20.0431 17.6094 19.6491 17.4148 19.3423 17.1467ZM21.5233 13.9956C21.9772 14.1553 22.3799 14.3473 22.6892 14.588C23.0782 14.8885 23.3202 15.2738 23.3202 15.7776C23.3202 16.3075 23.072 16.7914 22.668 17.1443C22.3612 17.4124 21.9672 17.6056 21.5233 17.6917V13.9956ZM20.487 12.599C20.0306 12.4382 19.6279 12.2449 19.3186 12.0055C18.9296 11.7037 18.6901 11.3196 18.6901 10.8159C18.6901 10.2846 18.9395 9.80207 19.3423 9.44918C19.6491 9.18108 20.0431 8.9878 20.487 8.90051V12.599Z" fill="#0000FF"/>
</svg>
