<svg width="29" height="23" viewBox="0 0 29 23" fill="none" xmlns="http://www.w3.org/2000/svg">
<g clip-path="url(#clip0_1_1352)">
<mask id="mask0_1_1352" style="mask-type:luminance" maskUnits="userSpaceOnUse" x="0" y="0" width="29" height="23">
<path d="M28.77 0H0V22.69H28.77V0Z" fill="white"/>
</mask>
<g mask="url(#mask0_1_1352)">
<path d="M25.0199 19.08C21.0199 17.94 15.0899 19.08 14.3399 19.24C13.5899 19.09 7.65989 17.94 3.65989 19.08C3.46989 19.14 3.27989 19.2 3.08989 19.26L4.16989 8.88997C4.43989 8.76997 5.04989 8.51997 5.83989 8.30997L4.89989 17.35C4.87989 17.56 4.95989 17.75 5.12989 17.88C5.28989 18 5.51989 18.03 5.69989 17.95C9.25989 16.44 13.6399 17.34 14.1999 17.46C14.2599 17.48 14.3199 17.49 14.3799 17.49C14.4099 17.49 14.4499 17.49 14.4899 17.47C14.9899 17.36 19.4099 16.43 22.9999 17.96C23.0799 17.99 23.1499 18.01 23.2299 18.01C23.3499 18.01 23.4799 17.97 23.5799 17.9C23.7399 17.78 23.8299 17.58 23.8099 17.38L22.8799 8.50997L22.8599 8.33997C23.6299 8.53997 24.2399 8.78997 24.5299 8.90997L25.6099 19.27C25.4199 19.2 25.2299 19.14 25.0399 19.08H25.0199ZM14.3299 21.32C13.5999 21.16 8.30989 20.09 3.87989 21.86L4.09989 19.74C8.10989 18.72 14.1799 19.98 14.2399 19.99C14.2699 19.99 14.2899 19.99 14.3199 19.99H14.3399C14.3399 19.99 14.3899 19.99 14.4199 19.99C14.4799 19.98 20.5499 18.72 24.5599 19.74L24.7799 21.86C20.3499 20.09 15.0499 21.16 14.3299 21.32ZM13.9499 6.73997V16.66C12.6499 16.42 8.89989 15.9 5.65989 17.16L6.62989 7.87997L6.73989 6.79997C7.65989 6.39997 11.2799 4.98997 13.9499 6.73997ZM21.9199 6.79997L22.0299 7.89997L22.0999 8.57997L22.9999 17.16C21.3899 16.53 19.6499 16.35 18.1499 16.35C16.6499 16.35 15.3399 16.54 14.6899 16.66V6.74997C17.3699 4.97997 20.9999 6.39997 21.9199 6.79997ZM25.2399 8.60997C25.2299 8.47997 25.1499 8.36997 25.0299 8.30997C24.9899 8.28997 24.0699 7.83997 22.7599 7.52997L22.6699 6.62997C22.6499 6.41997 22.5299 6.24997 22.3399 6.15997C21.5399 5.79997 17.4399 4.08997 14.3399 6.08997C11.2399 4.08997 7.13989 5.78997 6.33989 6.15997C6.14989 6.24997 6.02989 6.41997 6.00989 6.62997L5.91989 7.53997C4.81989 7.79997 3.99989 8.15997 3.75989 8.26997C3.56989 8.35997 3.44989 8.52997 3.42989 8.73997L2.30989 19.49C2.28989 19.69 2.37989 19.89 2.53989 20.01C2.69989 20.13 2.90989 20.16 3.09989 20.08C3.17989 20.05 3.25989 20.02 3.33989 19.99L3.12989 22.02C3.10989 22.24 3.19989 22.45 3.37989 22.58C3.48989 22.66 3.61989 22.7 3.74989 22.7C3.82989 22.7 3.91989 22.68 3.99989 22.65C8.28989 20.83 13.5899 21.93 14.2099 22.07C14.2599 22.09 14.3199 22.1 14.3699 22.1C14.4099 22.1 14.4599 22.1 14.4999 22.08C15.0699 21.95 20.3999 20.83 24.7199 22.66C24.9199 22.75 25.1599 22.72 25.3299 22.59C25.5099 22.46 25.5999 22.25 25.5799 22.03L25.3699 20C25.5499 20.07 25.7299 20.14 25.8999 20.22C25.9499 20.24 26.0099 20.25 26.0599 20.25C26.1399 20.25 26.2099 20.23 26.2799 20.18C26.3899 20.1 26.4499 19.97 26.4399 19.83L25.2699 8.61997L25.2399 8.60997Z" fill="#F55C1C"/>
<path d="M8.32971 8.55993H12.6897C12.8997 8.55993 13.0697 8.38993 13.0697 8.17993C13.0697 7.96993 12.8997 7.79993 12.6897 7.79993H8.32971C8.11971 7.79993 7.94971 7.96993 7.94971 8.17993C7.94971 8.38993 8.11971 8.55993 8.32971 8.55993Z" fill="#F55C1C"/>
<path d="M8.09973 10.6999H12.4597C12.6697 10.6999 12.8397 10.5299 12.8397 10.3199C12.8397 10.1099 12.6697 9.93994 12.4597 9.93994H8.09973C7.88973 9.93994 7.71973 10.1099 7.71973 10.3199C7.71973 10.5299 7.88973 10.6999 8.09973 10.6999Z" fill="#F55C1C"/>
<path d="M7.85998 12.84H12.22C12.43 12.84 12.6 12.67 12.6 12.46C12.6 12.25 12.43 12.08 12.22 12.08H7.85998C7.64998 12.08 7.47998 12.25 7.47998 12.46C7.47998 12.67 7.64998 12.84 7.85998 12.84Z" fill="#F55C1C"/>
<path d="M7.63 14.98H11.99C12.2 14.98 12.37 14.81 12.37 14.6C12.37 14.39 12.2 14.22 11.99 14.22H7.63C7.42 14.22 7.25 14.39 7.25 14.6C7.25 14.81 7.42 14.98 7.63 14.98Z" fill="#F55C1C"/>
<path d="M16.0397 8.55993H20.3997C20.6097 8.55993 20.7797 8.38993 20.7797 8.17993C20.7797 7.96993 20.6097 7.79993 20.3997 7.79993H16.0397C15.8297 7.79993 15.6597 7.96993 15.6597 8.17993C15.6597 8.38993 15.8297 8.55993 16.0397 8.55993Z" fill="#F55C1C"/>
<path d="M16.2696 9.93994C16.0596 9.93994 15.8896 10.1099 15.8896 10.3199C15.8896 10.5299 16.0596 10.6999 16.2696 10.6999H20.6296C20.8396 10.6999 21.0096 10.5299 21.0096 10.3199C21.0096 10.1099 20.8396 9.93994 20.6296 9.93994H16.2696Z" fill="#F55C1C"/>
<path d="M16.4996 12.09C16.2896 12.09 16.1196 12.26 16.1196 12.47C16.1196 12.68 16.2896 12.85 16.4996 12.85H20.8596C21.0696 12.85 21.2396 12.68 21.2396 12.47C21.2396 12.26 21.0696 12.09 20.8596 12.09H16.4996Z" fill="#F55C1C"/>
<path d="M16.7399 14.23C16.5299 14.23 16.3599 14.4 16.3599 14.61C16.3599 14.82 16.5299 14.99 16.7399 14.99H21.0999C21.3099 14.99 21.4799 14.82 21.4799 14.61C21.4799 14.4 21.3099 14.23 21.0999 14.23H16.7399Z" fill="#F55C1C"/>
<path d="M14.5099 3.97004C14.7199 3.97004 14.8899 3.80004 14.8899 3.59004V1.30004C14.8899 1.09004 14.7199 0.920044 14.5099 0.920044C14.2999 0.920044 14.1299 1.09004 14.1299 1.30004V3.60004C14.1299 3.81004 14.2999 3.98004 14.5099 3.98004" fill="#F55C1C"/>
<path d="M2.52982 8.45002L0.649824 6.57002C0.499824 6.42002 0.259824 6.42002 0.119824 6.57002C-0.0301758 6.72002 -0.0301758 6.96002 0.119824 7.10002L1.99982 8.99002C2.07982 9.06002 2.16982 9.10002 2.26982 9.10002C2.36982 9.10002 2.45982 9.06002 2.53982 8.99002C2.68982 8.84002 2.68982 8.60002 2.53982 8.46002" fill="#F55C1C"/>
<path d="M28.6598 6.87996C28.5098 6.72996 28.2698 6.72996 28.1298 6.87996L26.5598 8.44996C26.4098 8.59996 26.4098 8.83996 26.5598 8.97996C26.6398 9.05996 26.7298 9.08996 26.8298 9.08996C26.9298 9.08996 27.0198 9.04996 27.0998 8.97996L28.6698 7.40996C28.8098 7.26996 28.8098 7.02996 28.6698 6.87996" fill="#F55C1C"/>
<path d="M6.45988 3.17C6.51988 3.31 6.65988 3.4 6.79988 3.4C6.84988 3.4 6.89988 3.39 6.94988 3.37C7.13988 3.29 7.22988 3.07 7.13988 2.87L6.10988 0.48C6.02988 0.29 5.80988 0.2 5.60988 0.29C5.41988 0.37 5.32988 0.6 5.41988 0.79L6.45988 3.17Z" fill="#F55C1C"/>
<path d="M21.83 3.07999C21.83 3.07999 21.92 3.10999 21.97 3.10999C22.12 3.10999 22.26 3.01999 22.32 2.86999L23.24 0.519987C23.32 0.329987 23.22 0.109987 23.03 0.0299866C22.84 -0.0400134 22.62 0.0499866 22.54 0.239987L21.62 2.58999C21.54 2.77999 21.64 2.99999 21.83 3.07999Z" fill="#F55C1C"/>
</g>
</g>
<defs>
<clipPath id="clip0_1_1352">
<rect width="28.77" height="22.69" fill="white"/>
</clipPath>
</defs>
</svg>
