<svg width="28" height="26" viewBox="0 0 28 26" fill="none" xmlns="http://www.w3.org/2000/svg">
<g clip-path="url(#clip0_1_492)">
<mask id="mask0_1_492" style="mask-type:luminance" maskUnits="userSpaceOnUse" x="0" y="0" width="28" height="26">
<path d="M27.38 0H0V25.66H27.38V0Z" fill="white"/>
</mask>
<g mask="url(#mask0_1_492)">
<path d="M24.74 17.34C24.66 17.51 24.51 17.64 24.33 17.72H24.32L12.55 22.78C12.36 22.86 12.16 22.91 11.98 22.93C11.8 22.95 11.6 22.93 11.4 22.86L8.69 22.05C8.45 21.98 8.23 21.95 7.99 21.95C7.76 21.95 7.53 21.99 7.3 22.05L5.74 22.47L4.17 16.62L8.7 15.4C8.86 15.36 9.02 15.34 9.17 15.34C9.32 15.34 9.48 15.36 9.64 15.4L15.04 16.85C15.3 16.92 15.51 17.09 15.63 17.3C15.76 17.52 15.8 17.78 15.73 18.04C15.66 18.3 15.49 18.51 15.27 18.63C15.27 18.63 15.26 18.63 15.25 18.63C15.04 18.75 14.78 18.79 14.53 18.72L10.11 17.53C9.89 17.47 9.66 17.6 9.6 17.82C9.54 18.04 9.67 18.27 9.89 18.33L14.31 19.51C14.78 19.63 15.26 19.56 15.65 19.34C15.65 19.34 15.67 19.34 15.68 19.33C15.83 19.25 15.96 19.14 16.08 19.02L21.99 16.88C21.99 16.88 22.03 16.87 22.05 16.86L23.66 16.28C23.67 16.28 23.68 16.27 23.69 16.26C23.69 16.26 23.77 16.23 23.82 16.22C24 16.17 24.19 16.19 24.36 16.27C24.52 16.35 24.66 16.48 24.74 16.65C24.76 16.69 24.77 16.73 24.79 16.78C24.84 16.97 24.82 17.17 24.74 17.33M3.31 24.74L0.920002 15.83L2.95 15.28C3.64 17.85 4.29 20.51 5.04 23.06L5.34 24.19L3.31 24.73V24.74ZM9.33 10.67C9.33 8.62996 10.15 6.78996 11.49 5.44996C12.82 4.10996 14.67 3.28996 16.71 3.28996C18.75 3.28996 20.59 4.11996 21.93 5.44996C23.27 6.77996 24.09 8.62996 24.09 10.67C24.09 11.75 23.86 12.77 23.45 13.69C23.03 14.62 22.42 15.45 21.67 16.13L16.58 17.97C16.62 17.58 16.53 17.2 16.35 16.88C16.12 16.48 15.73 16.16 15.25 16.04L10.58 14.79C10.19 14.21 9.88 13.58 9.67 12.9C9.45 12.2 9.33 11.45 9.33 10.68M25.49 16.31C25.33 15.95 25.04 15.68 24.71 15.53C24.37 15.37 23.99 15.33 23.61 15.43C23.53 15.45 23.44 15.48 23.36 15.52L23.31 15.54C23.66 15.07 23.95 14.57 24.19 14.03C24.65 13 24.91 11.87 24.91 10.67C24.91 8.39996 23.99 6.34996 22.51 4.85996C21.03 3.36996 18.97 2.45996 16.7 2.45996C14.43 2.45996 12.38 3.37996 10.9 4.85996C9.41 6.33996 8.5 8.39996 8.5 10.67C8.5 11.53 8.63 12.36 8.88 13.14C9.03 13.62 9.22 14.08 9.46 14.51C9.37 14.5 9.27 14.49 9.18 14.49C8.95 14.49 8.73 14.52 8.49 14.58L3.96 15.79L3.66 14.66C3.6 14.44 3.37 14.31 3.15 14.37L0.310002 15.13C0.0900021 15.19 -0.0399979 15.42 0.0200021 15.64L2.62 25.35C2.68 25.57 2.91 25.7 3.13 25.64L5.96 24.88C6.18 24.82 6.31 24.59 6.25 24.37L5.95 23.24L7.51 22.82C7.68 22.77 7.84 22.75 7.98 22.75C8.13 22.75 8.28 22.77 8.44 22.82L11.15 23.63C11.45 23.72 11.73 23.75 12.02 23.73C12.31 23.71 12.59 23.64 12.87 23.52L24.64 18.46C25.01 18.31 25.3 18.03 25.47 17.69C25.64 17.35 25.69 16.95 25.59 16.55C25.57 16.46 25.53 16.37 25.5 16.29" fill="#0000FF"/>
<path d="M24.2499 3.13C22.3199 1.19 19.6599 0 16.7099 0C13.7599 0 11.0999 1.19 9.16988 3.12C7.45988 4.83 6.32988 7.11 6.08988 9.65L5.73988 9.27C5.57988 9.1 5.31988 9.09 5.15988 9.25C4.98988 9.41 4.97988 9.67 5.13988 9.84L6.13988 10.93C6.21988 11.02 6.32988 11.08 6.45988 11.08C6.57988 11.08 6.67988 11.03 6.75988 10.95L7.84988 9.95C8.01988 9.8 8.02988 9.53 7.86988 9.36C7.71988 9.19 7.44988 9.18 7.28988 9.34L6.91988 9.67C7.14988 7.35 8.18988 5.26 9.74988 3.7C11.5299 1.92 13.9899 0.82 16.7099 0.82C19.4299 0.82 21.8899 1.92 23.6699 3.7C25.4499 5.48 26.5499 7.94 26.5499 10.66C26.5499 11.27 26.4999 11.87 26.3899 12.44C26.2799 13.03 26.1199 13.6 25.9099 14.16C25.8299 14.37 25.9399 14.61 26.1499 14.69C26.3599 14.77 26.5999 14.66 26.6799 14.45C26.9099 13.86 27.0799 13.23 27.1999 12.59C27.3099 11.96 27.3799 11.31 27.3799 10.66C27.3799 7.71 26.1899 5.05 24.2599 3.12" fill="#0000FF"/>
<path d="M16.29 10.1C15.92 9.97003 15.6 9.82003 15.35 9.62003C15.04 9.38003 14.85 9.07003 14.85 8.67003C14.85 8.24003 15.05 7.86003 15.37 7.57003C15.62 7.35003 15.93 7.20003 16.29 7.13003V10.09V10.1ZM17.13 11.22C17.49 11.35 17.82 11.5 18.06 11.7C18.37 11.94 18.57 12.25 18.57 12.65C18.57 13.08 18.37 13.46 18.05 13.75C17.8 13.97 17.49 14.12 17.13 14.19V11.23V11.22ZM15.38 13.75C15.06 13.47 14.86 13.08 14.86 12.65C14.86 12.42 14.67 12.24 14.45 12.24C14.23 12.24 14.04 12.43 14.04 12.65C14.04 13.32 14.35 13.93 14.85 14.37C15.24 14.71 15.75 14.95 16.31 15.03V15.5C16.31 15.73 16.49 15.91 16.72 15.91C16.95 15.91 17.13 15.73 17.13 15.5V15.03C17.69 14.95 18.2 14.72 18.59 14.37C19.09 13.93 19.4 13.32 19.4 12.65C19.4 11.98 19.08 11.44 18.57 11.04C18.18 10.74 17.68 10.52 17.13 10.35V7.14003C17.49 7.21003 17.8 7.36003 18.05 7.58003C18.37 7.86003 18.57 8.25003 18.57 8.68003C18.57 8.91003 18.76 9.10003 18.99 9.10003C19.22 9.10003 19.4 8.91003 19.4 8.68003C19.4 8.01003 19.09 7.40003 18.59 6.96003C18.2 6.62003 17.69 6.38003 17.13 6.30003V5.83003C17.13 5.60003 16.95 5.41003 16.72 5.41003C16.49 5.41003 16.31 5.60003 16.31 5.83003V6.30003C15.74 6.38003 15.24 6.61003 14.85 6.96003C14.35 7.40003 14.04 8.00003 14.04 8.68003C14.04 9.36003 14.36 9.89003 14.87 10.29C15.26 10.59 15.76 10.81 16.31 10.98V14.19C15.95 14.12 15.64 13.97 15.39 13.75" fill="#0000FF"/>
</g>
</g>
<defs>
<clipPath id="clip0_1_492">
<rect width="27.38" height="25.66" fill="white"/>
</clipPath>
</defs>
</svg>
