<svg width="29" height="27" viewBox="0 0 29 27" fill="none" xmlns="http://www.w3.org/2000/svg">
<g clip-path="url(#clip0_1_453)">
<mask id="mask0_1_453" style="mask-type:luminance" maskUnits="userSpaceOnUse" x="0" y="0" width="29" height="27">
<path d="M28.49 0H0V26.4H28.49V0Z" fill="white"/>
</mask>
<g mask="url(#mask0_1_453)">
<path d="M10.72 13.2C10.72 12.06 11.65 11.13 12.79 11.13C13.93 11.13 14.86 12.06 14.86 13.2C14.86 14.34 13.93 15.27 12.79 15.27C11.65 15.27 10.72 14.34 10.72 13.2ZM15.56 13.2C15.56 11.67 14.31 10.42 12.78 10.42C11.25 10.42 10 11.66 10 13.2C10 14.74 11.25 15.98 12.78 15.98C14.31 15.98 15.56 14.73 15.56 13.2ZM10.97 16.39C10.8 16.39 10.64 16.44 10.49 16.53L10.05 16.82C9.98 16.87 9.89 16.86 9.83 16.8L9.18 16.15C9.12 16.09 9.11 16 9.16 15.93L9.45 15.49C9.61 15.24 9.64 14.93 9.52 14.65C9.5 14.59 9.47 14.54 9.45 14.48C9.34 14.2 9.11 14 8.81 13.93L8.3 13.82C8.21 13.8 8.16 13.73 8.16 13.65V12.73C8.16 12.65 8.22 12.58 8.3 12.56L8.81 12.45C9.11 12.39 9.34 12.19 9.45 11.9C9.47 11.84 9.5 11.79 9.52 11.73C9.64 11.45 9.62 11.14 9.45 10.89L9.16 10.45C9.11 10.38 9.12 10.29 9.18 10.23L9.83 9.58C9.89 9.52 9.98 9.51 10.05 9.56L10.49 9.85C10.74 10.02 11.05 10.04 11.33 9.92C11.39 9.9 11.44 9.87 11.5 9.85C11.78 9.74 11.98 9.51 12.05 9.21L12.16 8.7C12.18 8.62 12.25 8.56 12.33 8.56H13.25C13.33 8.56 13.4 8.62 13.42 8.7L13.53 9.21C13.59 9.51 13.79 9.74 14.08 9.85C14.14 9.87 14.19 9.9 14.25 9.92C14.53 10.05 14.83 10.02 15.09 9.85L15.53 9.56C15.6 9.51 15.69 9.52 15.75 9.58L16.4 10.23C16.46 10.29 16.47 10.38 16.42 10.45L16.13 10.89C15.97 11.14 15.94 11.45 16.06 11.73C16.08 11.79 16.11 11.84 16.13 11.9C16.24 12.18 16.47 12.38 16.77 12.45L17.28 12.56C17.36 12.58 17.42 12.65 17.42 12.73V13.65C17.42 13.73 17.36 13.8 17.28 13.82L16.77 13.93C16.47 13.99 16.24 14.19 16.13 14.48C16.11 14.54 16.08 14.59 16.06 14.65C15.93 14.93 15.96 15.24 16.13 15.49L16.42 15.93C16.46 16 16.46 16.09 16.4 16.15L15.75 16.8C15.69 16.86 15.6 16.87 15.53 16.82L15.09 16.53C14.84 16.37 14.53 16.34 14.25 16.46C14.19 16.48 14.14 16.51 14.08 16.53C13.8 16.64 13.6 16.87 13.53 17.17L13.42 17.68C13.4 17.76 13.33 17.82 13.25 17.82H12.33C12.25 17.82 12.18 17.76 12.16 17.68L12.05 17.17C11.98 16.87 11.79 16.64 11.5 16.53C11.45 16.51 11.39 16.48 11.33 16.46C11.22 16.41 11.09 16.38 10.97 16.38M15.47 8.85C15.42 8.69 15.39 8.52 15.39 8.35C15.39 7.44 16.13 6.69 17.05 6.69C17.97 6.69 18.71 7.43 18.71 8.35C18.71 9.27 17.98 9.99 17.08 10.01C17.04 9.92 16.98 9.83 16.9 9.75L16.25 9.1C16.04 8.89 15.75 8.8 15.48 8.85M13.75 7.79C14.02 7.73 14.23 7.55 14.33 7.3C14.35 7.25 14.37 7.21 14.39 7.16C14.5 6.91 14.48 6.63 14.33 6.4L14.09 6.03C14.09 6.03 14.07 5.95 14.1 5.93L14.64 5.39C14.64 5.39 14.71 5.36 14.74 5.38L15.11 5.62C15.34 5.77 15.62 5.79 15.87 5.68C15.92 5.66 15.96 5.64 16.01 5.62C16.26 5.52 16.44 5.31 16.5 5.04L16.59 4.61C16.59 4.61 16.63 4.54 16.67 4.54H17.43C17.43 4.54 17.5 4.56 17.51 4.61L17.6 5.04C17.66 5.31 17.84 5.52 18.09 5.62C18.14 5.64 18.18 5.66 18.23 5.68C18.48 5.79 18.76 5.77 18.98 5.62L19.35 5.38C19.35 5.38 19.43 5.36 19.45 5.39L19.99 5.93C19.99 5.93 20.02 6 20 6.03L19.76 6.4C19.61 6.63 19.59 6.91 19.7 7.16C19.72 7.21 19.74 7.25 19.76 7.3C19.86 7.55 20.07 7.73 20.34 7.79L20.77 7.88C20.77 7.88 20.84 7.92 20.84 7.96V8.72C20.84 8.72 20.82 8.79 20.77 8.8L20.34 8.89C20.07 8.95 19.86 9.12 19.76 9.38C19.74 9.42 19.72 9.47 19.7 9.52C19.59 9.77 19.61 10.05 19.76 10.28L20 10.65C20 10.65 20.02 10.73 19.99 10.75L19.45 11.29C19.45 11.29 19.38 11.32 19.35 11.3L18.98 11.06C18.75 10.91 18.48 10.89 18.23 11C18.18 11.02 18.14 11.04 18.09 11.06C17.84 11.16 17.65 11.37 17.6 11.63L17.54 11.9C17.54 11.9 17.47 11.88 17.43 11.87L16.92 11.76C16.86 11.75 16.82 11.71 16.79 11.65C16.76 11.58 16.73 11.51 16.71 11.45C16.68 11.39 16.69 11.34 16.72 11.29L17.01 10.85C17.01 10.85 17.07 10.76 17.08 10.71C18.37 10.69 19.41 9.64 19.41 8.34C19.41 7.04 18.35 5.97 17.04 5.97C15.73 5.97 14.68 7.03 14.68 8.34C14.68 8.62 14.73 8.91 14.83 9.17L14.69 9.26C14.64 9.29 14.58 9.3 14.53 9.27C14.46 9.24 14.4 9.21 14.33 9.18C14.27 9.16 14.23 9.11 14.22 9.05L14.11 8.54C14.03 8.18 13.75 7.91 13.39 7.85L13.74 7.77L13.75 7.79ZM11.35 17.33L11.46 17.84C11.55 18.25 11.9 18.54 12.32 18.54H13.24C13.66 18.54 14.02 18.25 14.1 17.84L14.21 17.33C14.22 17.27 14.26 17.23 14.32 17.2C14.39 17.17 14.46 17.14 14.52 17.11C14.58 17.08 14.63 17.09 14.68 17.12L15.12 17.41C15.47 17.64 15.93 17.59 16.22 17.29L16.87 16.64C17.17 16.34 17.22 15.89 16.99 15.54L16.7 15.1C16.67 15.04 16.66 14.99 16.69 14.94C16.72 14.87 16.75 14.8 16.78 14.74C16.81 14.68 16.84 14.64 16.91 14.63L17.42 14.52C17.83 14.43 18.12 14.08 18.12 13.66V12.74C18.12 12.65 18.11 12.57 18.08 12.49C18.13 12.41 18.17 12.32 18.19 12.22L18.28 11.79C18.28 11.79 18.3 11.74 18.33 11.73C18.39 11.71 18.45 11.68 18.5 11.66C18.53 11.65 18.55 11.65 18.58 11.66L18.95 11.9C19.27 12.1 19.68 12.06 19.95 11.8L20.49 11.26C20.76 10.99 20.8 10.58 20.59 10.27L20.35 9.9C20.35 9.9 20.33 9.85 20.35 9.82C20.37 9.76 20.4 9.71 20.42 9.65C20.43 9.62 20.45 9.6 20.48 9.6L20.91 9.51C21.28 9.43 21.54 9.11 21.54 8.74V7.98C21.54 7.6 21.28 7.28 20.91 7.21L20.48 7.12C20.48 7.12 20.43 7.1 20.42 7.07C20.4 7.01 20.37 6.95 20.35 6.9C20.34 6.87 20.34 6.85 20.35 6.82L20.59 6.45C20.79 6.13 20.75 5.72 20.49 5.45L19.95 4.91C19.68 4.64 19.27 4.6 18.95 4.81L18.58 5.05C18.58 5.05 18.53 5.07 18.5 5.05C18.44 5.03 18.39 5 18.33 4.98C18.3 4.97 18.28 4.95 18.28 4.92L18.19 4.49C18.11 4.12 17.79 3.86 17.42 3.86H16.66C16.28 3.86 15.96 4.12 15.89 4.49L15.8 4.92C15.8 4.92 15.78 4.97 15.75 4.98C15.69 5 15.63 5.03 15.58 5.05C15.55 5.06 15.53 5.06 15.5 5.05L15.13 4.81C14.81 4.61 14.4 4.65 14.14 4.91L13.6 5.45C13.33 5.72 13.29 6.13 13.5 6.45L13.74 6.82C13.74 6.82 13.76 6.87 13.74 6.9C13.72 6.96 13.69 7.01 13.67 7.07C13.66 7.1 13.64 7.12 13.61 7.12L13.18 7.21C12.85 7.28 12.6 7.55 12.56 7.88H12.33C11.91 7.88 11.55 8.17 11.47 8.58L11.36 9.09C11.35 9.15 11.31 9.19 11.25 9.22C11.18 9.25 11.11 9.28 11.05 9.31C10.99 9.34 10.94 9.33 10.88 9.3L10.44 9.01C10.09 8.78 9.63 8.83 9.34 9.13L8.69 9.78C8.39 10.08 8.34 10.53 8.57 10.88L8.86 11.32C8.89 11.38 8.9 11.43 8.87 11.48C8.84 11.55 8.81 11.62 8.78 11.68C8.76 11.74 8.72 11.78 8.66 11.79L8.15 11.9C7.74 11.99 7.45 12.34 7.45 12.76V13.68C7.45 14.1 7.74 14.46 8.15 14.54L8.66 14.65C8.72 14.66 8.76 14.7 8.78 14.76C8.81 14.83 8.84 14.9 8.87 14.96C8.9 15.02 8.89 15.07 8.86 15.12L8.57 15.56C8.34 15.91 8.39 16.37 8.69 16.66L9.34 17.31C9.64 17.61 10.09 17.66 10.44 17.43L10.88 17.14C10.94 17.11 10.99 17.1 11.05 17.13C11.12 17.16 11.19 17.19 11.25 17.22C11.31 17.24 11.35 17.28 11.36 17.35M25.62 18.03V11.28C26.91 11.89 27.78 13.21 27.78 14.66C27.78 16.11 26.91 17.43 25.62 18.04M24.91 18.73C24.91 19.26 24.48 19.69 23.95 19.69C23.42 19.69 22.99 19.26 22.99 18.73V10.58C22.99 10.05 23.42 9.62 23.95 9.62C24.48 9.62 24.91 10.05 24.91 10.58V18.73ZM15.57 25.69H12.81C12.28 25.69 11.85 25.26 11.85 24.73C11.85 24.2 12.28 23.77 12.81 23.77H15.57C16.1 23.77 16.53 24.2 16.53 24.73C16.53 25.26 16.1 25.69 15.57 25.69ZM5.46 10.58V18.73C5.46 19.26 5.03 19.69 4.5 19.69C3.97 19.69 3.54 19.26 3.54 18.73V10.58C3.54 10.05 3.97 9.62 4.5 9.62C5.03 9.62 5.46 10.05 5.46 10.58ZM0.71 14.66C0.71 13.21 1.55 11.91 2.83 11.3V18.02C1.54 17.41 0.71 16.11 0.71 14.66ZM27.6 12.01C27.1 11.33 26.39 10.81 25.61 10.51C25.58 9.75 25.04 9.13 24.33 8.95C24.04 6.55 22.9 4.33 21.1 2.67C19.22 0.95 16.79 0 14.24 0C11.69 0 9.26 0.95 7.38 2.68C5.58 4.33 4.44 6.55 4.15 8.95C3.42 9.11 2.86 9.75 2.83 10.53C1.13 11.19 0 12.82 0 14.66C0 16.5 1.13 18.13 2.83 18.79C2.86 19.68 3.6 20.4 4.5 20.4C5.4 20.4 6.17 19.65 6.17 18.73V10.58C6.17 9.78 5.61 9.12 4.87 8.95C5.47 4.3 9.52 0.71 14.24 0.71C18.96 0.71 23.01 4.3 23.62 8.95C22.86 9.1 22.28 9.78 22.28 10.58V18.74C22.28 19.58 22.9 20.27 23.71 20.39C23.69 23.53 20.78 24.09 17.2 24.36C17.03 23.62 16.36 23.07 15.57 23.07H12.81C11.89 23.07 11.14 23.82 11.14 24.74C11.14 25.66 11.89 26.41 12.81 26.41H15.57C16.37 26.41 17.05 25.84 17.2 25.08C18.88 24.95 20.74 24.75 22.11 24.09C23.67 23.34 24.43 22.11 24.41 20.35C25.08 20.15 25.58 19.54 25.61 18.82C26.39 18.52 27.09 18 27.6 17.32C28.18 16.55 28.48 15.63 28.48 14.67C28.48 13.71 28.18 12.8 27.6 12.03" fill="#0000FF"/>
</g>
</g>
<defs>
<clipPath id="clip0_1_453">
<rect width="28.49" height="26.4" fill="white"/>
</clipPath>
</defs>
</svg>
