<svg width="33" height="29" viewBox="0 0 33 29" fill="none" xmlns="http://www.w3.org/2000/svg">
<g clip-path="url(#clip0_1_1584)">
<mask id="mask0_1_1584" style="mask-type:luminance" maskUnits="userSpaceOnUse" x="0" y="0" width="33" height="29">
<path d="M32.43 0H0V28.08H32.43V0Z" fill="white"/>
</mask>
<g mask="url(#mask0_1_1584)">
<path d="M13.68 8.96H29.65C30.27 8.96 30.74 9.43 30.74 10.05V20.21C30.74 20.83 30.27 21.3 29.65 21.3H27.86C27.46 21.3 27.14 21.62 27.13 22.02V24.84L24.81 21.6C24.67 21.41 24.45 21.3 24.22 21.3H13.69C13.08 21.3 12.6 20.83 12.6 20.21V10.05C12.6 9.43 13.07 8.96 13.69 8.96H13.68ZM2.79 1.7H18.76C19.38 1.7 19.85 2.17 19.85 2.79V7.51H13.68C12.29 7.51 11.14 8.66 11.14 10.05V14.04H8.23C8 14.04 7.78 14.15 7.64 14.34L5.33 17.58V14.76C5.31 14.36 4.99 14.05 4.59 14.05H2.8C2.18 14.05 1.71 13.58 1.71 12.96V2.79C1.71 2.18 2.18 1.7 2.8 1.7H2.79ZM2.79 0.25C1.4 0.25 0.25 1.4 0.25 2.79V12.95C0.25 14.35 1.39 15.49 2.79 15.49H3.86L3.88 19.84C3.88 20.24 4.21 20.56 4.61 20.56C4.84 20.56 5.06 20.45 5.2 20.26L8.6 15.49H11.14V20.21C11.14 21.61 12.29 22.75 13.68 22.75H23.84L27.24 27.52C27.47 27.85 27.93 27.92 28.25 27.69C28.44 27.55 28.55 27.34 28.55 27.1L28.57 22.74H29.63C31.03 22.74 32.17 21.59 32.17 20.2V10.04C32.17 8.65 31.02 7.5 29.63 7.5H21.28V2.79C21.28 1.4 20.13 0.25 18.74 0.25H2.79Z" fill="white"/>
<path d="M13.68 8.96H29.65C30.27 8.96 30.74 9.43 30.74 10.05V20.21C30.74 20.83 30.27 21.3 29.65 21.3H27.86C27.46 21.3 27.14 21.62 27.13 22.02V24.84L24.81 21.6C24.67 21.41 24.45 21.3 24.22 21.3H13.69C13.08 21.3 12.6 20.83 12.6 20.21V10.05C12.6 9.43 13.07 8.96 13.69 8.96H13.68ZM2.79 1.7H18.76C19.38 1.7 19.85 2.17 19.85 2.79V7.51H13.68C12.29 7.51 11.14 8.66 11.14 10.05V14.04H8.23C8 14.04 7.78 14.15 7.64 14.34L5.33 17.58V14.76C5.31 14.36 4.99 14.05 4.59 14.05H2.8C2.18 14.05 1.71 13.58 1.71 12.96V2.79C1.71 2.18 2.18 1.7 2.8 1.7H2.79ZM2.79 0.25C1.4 0.25 0.25 1.4 0.25 2.79V12.95C0.25 14.35 1.39 15.49 2.79 15.49H3.86L3.88 19.84C3.88 20.24 4.21 20.56 4.61 20.56C4.84 20.56 5.06 20.45 5.2 20.26L8.6 15.49H11.14V20.21C11.14 21.61 12.29 22.75 13.68 22.75H23.84L27.24 27.52C27.47 27.85 27.93 27.92 28.25 27.69C28.44 27.55 28.55 27.34 28.55 27.1L28.57 22.74H29.63C31.03 22.74 32.17 21.59 32.17 20.2V10.04C32.17 8.65 31.02 7.5 29.63 7.5H21.28V2.79C21.28 1.4 20.13 0.25 18.74 0.25H2.79Z" stroke="#F55C1C" stroke-width="0.5" stroke-miterlimit="10"/>
</g>
</g>
<defs>
<clipPath id="clip0_1_1584">
<rect width="32.43" height="28.08" fill="white"/>
</clipPath>
</defs>
</svg>
