<svg width="30" height="31" viewBox="0 0 30 31" fill="none" xmlns="http://www.w3.org/2000/svg">
<g clip-path="url(#clip0_1_1531)">
<mask id="mask0_1_1531" style="mask-type:luminance" maskUnits="userSpaceOnUse" x="0" y="0" width="30" height="31">
<path d="M29.82 0H0V30.68H29.82V0Z" fill="white"/>
</mask>
<g mask="url(#mask0_1_1531)">
<path d="M10.8699 25.03C11.6099 25.03 12.2199 24.41 12.2199 23.65C12.2199 22.89 11.6199 22.27 10.8699 22.27C10.1199 22.27 9.52986 22.89 9.52986 23.65C9.52986 24.41 10.1299 25.03 10.8699 25.03ZM10.8699 25.95C9.62986 25.95 8.62986 24.92 8.62986 23.64C8.62986 22.36 9.62986 21.33 10.8699 21.33C12.1099 21.33 13.1099 22.36 13.1099 23.64C13.1099 24.92 12.1099 25.95 10.8699 25.95ZM4.14986 17.65C3.89986 17.65 3.69986 17.44 3.69986 17.19C3.69986 16.94 3.89986 16.73 4.14986 16.73H13.1199C13.3699 16.73 13.5699 16.94 13.5699 17.19C13.5699 17.44 13.3699 17.65 13.1199 17.65H4.14986ZM4.14986 13.03C3.89986 13.03 3.69986 12.82 3.69986 12.57C3.69986 12.32 3.89986 12.11 4.14986 12.11H13.1199C13.3699 12.11 13.5699 12.32 13.5699 12.57C13.5699 12.82 13.3699 13.03 13.1199 13.03H4.14986ZM22.5299 18.57V10.26C22.5299 8.73 21.3299 7.49 19.8399 7.49C18.3499 7.49 17.1499 8.73 17.1499 10.26V21.33H23.7399C22.9999 20.65 22.5299 19.66 22.5299 18.56M3.24986 7.5C2.00986 7.5 1.00986 8.53 1.00986 9.81V29.19C1.00986 29.45 1.20986 29.65 1.45986 29.65H15.8099C16.0599 29.65 16.2599 29.44 16.2599 29.19V10.26C16.2599 9.16 16.7299 8.17 17.4799 7.49H3.24986V7.5ZM12.6699 6.57H19.8399C21.8199 6.57 23.4299 8.22 23.4299 10.26V18.57C23.4299 20.1 24.6299 21.34 26.1199 21.34C27.6099 21.34 28.8099 20.1 28.8099 18.57V1.5C28.8099 1.24 28.6099 1.04 28.3599 1.04H13.1199C12.8699 1.04 12.6699 1.25 12.6699 1.5V6.58V6.57ZM17.1499 22.26V29.18C17.1499 29.94 16.5499 30.56 15.7999 30.56H1.45986C0.719863 30.56 0.109863 29.94 0.109863 29.18V9.8C0.109863 8.02 1.51986 6.57 3.24986 6.57H11.7699V1.5C11.7699 0.739995 12.3699 0.119995 13.1199 0.119995H28.3599C29.0999 0.119995 29.7099 0.739995 29.7099 1.5V18.57C29.7099 20.61 28.0999 22.26 26.1199 22.26H17.1499Z" fill="white"/>
<path d="M10.8699 25.03C11.6099 25.03 12.2199 24.41 12.2199 23.65C12.2199 22.89 11.6199 22.27 10.8699 22.27C10.1199 22.27 9.52986 22.89 9.52986 23.65C9.52986 24.41 10.1299 25.03 10.8699 25.03ZM10.8699 25.95C9.62986 25.95 8.62986 24.92 8.62986 23.64C8.62986 22.36 9.62986 21.33 10.8699 21.33C12.1099 21.33 13.1099 22.36 13.1099 23.64C13.1099 24.92 12.1099 25.95 10.8699 25.95ZM4.14986 17.65C3.89986 17.65 3.69986 17.44 3.69986 17.19C3.69986 16.94 3.89986 16.73 4.14986 16.73H13.1199C13.3699 16.73 13.5699 16.94 13.5699 17.19C13.5699 17.44 13.3699 17.65 13.1199 17.65H4.14986ZM4.14986 13.03C3.89986 13.03 3.69986 12.82 3.69986 12.57C3.69986 12.32 3.89986 12.11 4.14986 12.11H13.1199C13.3699 12.11 13.5699 12.32 13.5699 12.57C13.5699 12.82 13.3699 13.03 13.1199 13.03H4.14986ZM22.5299 18.57V10.26C22.5299 8.73 21.3299 7.49 19.8399 7.49C18.3499 7.49 17.1499 8.73 17.1499 10.26V21.33H23.7399C22.9999 20.65 22.5299 19.66 22.5299 18.56V18.57ZM3.24986 7.5C2.00986 7.5 1.00986 8.53 1.00986 9.81V29.19C1.00986 29.45 1.20986 29.65 1.45986 29.65H15.8099C16.0599 29.65 16.2599 29.44 16.2599 29.19V10.26C16.2599 9.16 16.7299 8.17 17.4799 7.49H3.24986V7.5ZM12.6699 6.57H19.8399C21.8199 6.57 23.4299 8.22 23.4299 10.26V18.57C23.4299 20.1 24.6299 21.34 26.1199 21.34C27.6099 21.34 28.8099 20.1 28.8099 18.57V1.5C28.8099 1.24 28.6099 1.04 28.3599 1.04H13.1199C12.8699 1.04 12.6699 1.25 12.6699 1.5V6.58V6.57ZM17.1499 22.26V29.18C17.1499 29.94 16.5499 30.56 15.7999 30.56H1.45986C0.719863 30.56 0.109863 29.94 0.109863 29.18V9.8C0.109863 8.02 1.51986 6.57 3.24986 6.57H11.7699V1.5C11.7699 0.739995 12.3699 0.119995 13.1199 0.119995H28.3599C29.0999 0.119995 29.7099 0.739995 29.7099 1.5V18.57C29.7099 20.61 28.0999 22.26 26.1199 22.26H17.1499Z" stroke="#F55C1C" stroke-width="0.22" stroke-miterlimit="10"/>
</g>
</g>
<defs>
<clipPath id="clip0_1_1531">
<rect width="29.82" height="30.68" fill="white"/>
</clipPath>
</defs>
</svg>
