<svg width="27" height="20" viewBox="0 0 27 20" fill="none" xmlns="http://www.w3.org/2000/svg">
<g clip-path="url(#clip0_1_1320)">
<mask id="mask0_1_1320" style="mask-type:luminance" maskUnits="userSpaceOnUse" x="0" y="0" width="27" height="20">
<path d="M26.14 0H0V19.84H26.14V0Z" fill="white"/>
</mask>
<g mask="url(#mask0_1_1320)">
<path d="M2.15988 7.44995C1.16988 7.44995 0.379883 8.24995 0.379883 9.22995V15.32C0.379883 16.3 1.17988 17.1 2.15988 17.1H3.93988V19.11L6.80988 17.1H13.8299C14.8099 17.1 15.6099 16.3 15.6099 15.32V9.22995C15.6099 8.24995 14.8099 7.44995 13.8299 7.44995H2.15988Z" stroke="#F55C1C" stroke-width="0.75"/>
<path d="M23.9798 0.380005C24.9698 0.380005 25.7598 1.18 25.7598 2.16V8.25C25.7598 9.23 24.9598 10.03 23.9798 10.03H22.1998V12.04L19.3298 10.03H12.3098C11.3298 10.03 10.5298 9.23 10.5298 8.25V2.16C10.5298 1.18 11.3298 0.380005 12.3098 0.380005H23.9898H23.9798Z" stroke="#F55C1C" stroke-width="0.75"/>
</g>
</g>
<defs>
<clipPath id="clip0_1_1320">
<rect width="26.14" height="19.84" fill="white"/>
</clipPath>
</defs>
</svg>
