<svg width="37" height="33" viewBox="0 0 37 33" fill="none" xmlns="http://www.w3.org/2000/svg">
<path d="M36.214 16.0965C36.1671 16.0002 31.1773 6.1814 18.5099 6.1814C5.84247 6.1814 0.852594 16.0002 0.805687 16.0965C0.734693 16.2347 0.734693 16.3957 0.805687 16.5339C0.852594 16.6302 5.84247 26.449 18.5099 26.449C31.1773 26.449 36.1671 16.6302 36.214 16.5339C36.285 16.3957 36.285 16.2347 36.214 16.0965ZM18.5099 25.3815C7.65409 25.3815 2.79986 17.7129 2.00118 16.3158C2.79479 14.9124 7.63634 7.24885 18.5099 7.24885C29.3834 7.24885 34.2199 14.9188 35.0185 16.3158C34.2249 17.7129 29.3834 25.3815 18.5099 25.3815Z" fill="#0000FF"/>
<path d="M18.5098 8.3147C13.615 8.3147 9.63043 11.905 9.63043 16.3155C9.63043 20.726 13.615 24.3163 18.5098 24.3163C23.4046 24.3163 27.3891 20.726 27.3891 16.3155C27.3891 11.905 23.4046 8.3147 18.5098 8.3147ZM18.5098 23.2488C14.2653 23.2488 10.8145 20.139 10.8145 16.3155C10.8145 12.4907 14.2653 9.38215 18.5098 9.38215C22.7542 9.38215 26.205 12.4907 26.205 16.3155C26.205 20.139 22.7542 23.2488 18.5098 23.2488Z" fill="#0000FF"/>
<path d="M18.5098 5.11505C18.8356 5.11505 19.1019 4.87545 19.1019 4.58133V0.847794C19.1019 0.554942 18.8356 0.315337 18.5098 0.315337C18.184 0.315337 17.9178 0.554942 17.9178 0.847794V4.58133C17.9178 4.87545 18.184 5.11505 18.5098 5.11505Z" fill="#0000FF"/>
<path d="M27.6845 6.64554C27.7796 6.69372 27.8798 6.71527 27.9799 6.71527C28.1878 6.71527 28.3831 6.61892 28.4959 6.44778L30.8628 2.71424C31.0225 2.45942 30.9287 2.13361 30.6447 1.98909C30.3595 1.84583 29.9995 1.93077 29.8397 2.18686L27.4716 5.92039C27.3118 6.17648 27.4069 6.50102 27.6909 6.64554H27.6845Z" fill="#0000FF"/>
<path d="M8.52443 6.44843C8.63092 6.61958 8.83249 6.71466 9.03913 6.71466C9.14055 6.71466 9.24071 6.69438 9.33579 6.6462C9.61976 6.50168 9.71992 6.17587 9.55384 5.91978L7.18695 2.18625C7.02721 1.93143 6.6659 1.84015 6.38192 1.98974C6.09795 2.133 5.99653 2.45881 6.1626 2.7149L8.53076 6.44843H8.52443Z" fill="#0000FF"/>
<path d="M18.5098 27.5156C18.184 27.5156 17.9178 27.7552 17.9178 28.0493V31.7829C17.9178 32.0757 18.184 32.3153 18.5098 32.3153C18.8356 32.3153 19.1019 32.0757 19.1019 31.7829V28.0493C19.1019 27.7552 18.8356 27.5156 18.5098 27.5156Z" fill="#0000FF"/>
<path d="M9.33498 25.985C9.05101 25.8354 8.6897 25.9267 8.52996 26.1828L6.1618 29.9163C6.00206 30.1711 6.09714 30.4969 6.38112 30.6415C6.4762 30.6896 6.57635 30.7112 6.67777 30.7112C6.88442 30.7112 7.07965 30.6148 7.19248 30.4437L9.55938 26.7102C9.71911 26.4541 9.6253 26.1295 9.34132 25.985H9.33498Z" fill="#0000FF"/>
<path d="M28.4953 26.1822C28.3355 25.9261 27.9679 25.8361 27.6903 25.9844C27.4063 26.1289 27.3061 26.4547 27.4709 26.7108L29.8391 30.4443C29.9456 30.6142 30.1472 30.7106 30.3538 30.7106C30.454 30.7106 30.5554 30.689 30.6505 30.6408C30.9344 30.4976 31.0346 30.1718 30.8685 29.9157L28.5016 26.1822H28.4953Z" fill="#0000FF"/>
</svg>
