<svg width="24" height="27" viewBox="0 0 24 27" fill="none" xmlns="http://www.w3.org/2000/svg">
<g clip-path="url(#clip0_1_438)">
<mask id="mask0_1_438" style="mask-type:luminance" maskUnits="userSpaceOnUse" x="0" y="0" width="24" height="27">
<path d="M23.76 0H0V26.28H23.76V0Z" fill="white"/>
</mask>
<g mask="url(#mask0_1_438)">
<path d="M20.0801 3.51999C20.8601 3.51999 21.5001 4.15999 21.5001 4.93999C21.5001 5.71999 20.8601 6.35999 20.0801 6.35999C19.3001 6.35999 18.6601 5.71999 18.6601 4.93999C18.6601 4.15999 19.3001 3.51999 20.0801 3.51999ZM20.0801 7.30999C21.3901 7.30999 22.4501 6.24999 22.4501 4.93999C22.4501 3.62999 21.3901 2.56999 20.0801 2.56999C18.7701 2.56999 17.7101 3.62999 17.7101 4.93999C17.7101 6.24999 18.7701 7.30999 20.0801 7.30999ZM3.68008 3.51999C4.46008 3.51999 5.10008 4.15999 5.10008 4.93999C5.10008 5.71999 4.46008 6.35999 3.68008 6.35999C2.90008 6.35999 2.26008 5.71999 2.26008 4.93999C2.26008 4.15999 2.90008 3.51999 3.68008 3.51999ZM3.68008 7.30999C4.99008 7.30999 6.05008 6.24999 6.05008 4.93999C6.05008 3.62999 4.99008 2.56999 3.68008 2.56999C2.37008 2.56999 1.31008 3.62999 1.31008 4.93999C1.31008 6.24999 2.37008 7.30999 3.68008 7.30999ZM11.8801 0.999988C13.0101 0.999988 13.9301 1.91999 13.9301 3.04999C13.9301 4.17999 13.0101 5.09999 11.8801 5.09999C10.7501 5.09999 9.83008 4.17999 9.83008 3.04999C9.83008 1.91999 10.7501 0.999988 11.8801 0.999988ZM11.8801 6.03999C13.5301 6.03999 14.8801 4.69999 14.8801 3.03999C14.8801 1.37999 13.5301 0.0499878 11.8801 0.0499878C10.2301 0.0499878 8.88008 1.38999 8.88008 3.04999C8.88008 4.70999 10.2201 6.04999 11.8801 6.04999M23.7101 10.63V13.14C23.7101 13.4 23.5001 13.61 23.2401 13.61C22.9801 13.61 22.7701 13.4 22.7701 13.14V10.63C22.7701 9.83999 22.1301 9.19999 21.3401 9.19999H18.8401C18.0501 9.19999 17.4101 9.83999 17.4101 10.63C17.4101 10.89 17.2001 11.1 16.9401 11.1C16.6801 11.1 16.4701 10.89 16.4701 10.63C16.4701 9.13999 15.2601 7.93999 13.7801 7.93999H10.0201C8.53008 7.93999 7.33008 9.14999 7.33008 10.63C7.33008 10.89 7.12008 11.1 6.86008 11.1C6.60008 11.1 6.39008 10.89 6.39008 10.63C6.39008 9.83999 5.75008 9.19999 4.96008 9.19999H2.45008C1.66008 9.19999 1.02008 9.83999 1.02008 10.63V13.14C1.02008 13.4 0.810078 13.61 0.550078 13.61C0.290078 13.61 0.0800781 13.4 0.0800781 13.14V10.63C0.0800781 9.31999 1.15008 8.24999 2.46008 8.24999H4.97008C5.68008 8.24999 6.32008 8.56999 6.75008 9.05999C7.34008 7.82999 8.58008 6.97999 10.0301 6.97999H13.7901C15.2401 6.97999 16.4801 7.82999 17.0701 9.05999C17.5101 8.55999 18.1501 8.24999 18.8601 8.24999H21.3601C22.6701 8.24999 23.7401 9.31999 23.7401 10.63H23.7101ZM11.8801 25.29C8.32008 25.29 5.41008 22.39 5.41008 18.82V16.77H8.25008V18.82C8.25008 20.82 9.88008 22.45 11.8801 22.45C13.8801 22.45 15.5101 20.82 15.5101 18.82V16.77H18.3501V18.82C18.3501 22.39 15.4501 25.29 11.8801 25.29ZM8.25008 15.82H5.41008V13.61H8.25008V15.82ZM18.3501 15.82H15.5101V13.61H18.3501V15.82ZM18.8201 12.67H15.0301C14.7701 12.67 14.5601 12.88 14.5601 13.14V18.82C14.5601 20.3 13.3601 21.5 11.8801 21.5C10.4001 21.5 9.20008 20.3 9.20008 18.82V13.14C9.20008 12.88 8.99008 12.67 8.73008 12.67H4.94008C4.68008 12.67 4.47008 12.88 4.47008 13.14V18.82C4.47008 22.91 7.79008 26.23 11.8801 26.23C15.9701 26.23 19.2901 22.91 19.2901 18.82V13.14C19.2901 12.88 19.0801 12.67 18.8201 12.67Z" fill="#0000FF"/>
<path d="M20.0801 3.51999C20.8601 3.51999 21.5001 4.15999 21.5001 4.93999C21.5001 5.71999 20.8601 6.35999 20.0801 6.35999C19.3001 6.35999 18.6601 5.71999 18.6601 4.93999C18.6601 4.15999 19.3001 3.51999 20.0801 3.51999ZM20.0801 7.30999C21.3901 7.30999 22.4501 6.24999 22.4501 4.93999C22.4501 3.62999 21.3901 2.56999 20.0801 2.56999C18.7701 2.56999 17.7101 3.62999 17.7101 4.93999C17.7101 6.24999 18.7701 7.30999 20.0801 7.30999ZM3.68008 3.51999C4.46008 3.51999 5.10008 4.15999 5.10008 4.93999C5.10008 5.71999 4.46008 6.35999 3.68008 6.35999C2.90008 6.35999 2.26008 5.71999 2.26008 4.93999C2.26008 4.15999 2.90008 3.51999 3.68008 3.51999ZM3.68008 7.30999C4.99008 7.30999 6.05008 6.24999 6.05008 4.93999C6.05008 3.62999 4.99008 2.56999 3.68008 2.56999C2.37008 2.56999 1.31008 3.62999 1.31008 4.93999C1.31008 6.24999 2.37008 7.30999 3.68008 7.30999ZM11.8801 0.999988C13.0101 0.999988 13.9301 1.91999 13.9301 3.04999C13.9301 4.17999 13.0101 5.09999 11.8801 5.09999C10.7501 5.09999 9.83008 4.17999 9.83008 3.04999C9.83008 1.91999 10.7501 0.999988 11.8801 0.999988ZM11.8801 6.03999C13.5301 6.03999 14.8801 4.69999 14.8801 3.03999C14.8801 1.37999 13.5301 0.0499878 11.8801 0.0499878C10.2301 0.0499878 8.88008 1.38999 8.88008 3.04999C8.88008 4.70999 10.2201 6.04999 11.8801 6.04999V6.03999ZM23.7101 10.63V13.14C23.7101 13.4 23.5001 13.61 23.2401 13.61C22.9801 13.61 22.7701 13.4 22.7701 13.14V10.63C22.7701 9.83999 22.1301 9.19999 21.3401 9.19999H18.8401C18.0501 9.19999 17.4101 9.83999 17.4101 10.63C17.4101 10.89 17.2001 11.1 16.9401 11.1C16.6801 11.1 16.4701 10.89 16.4701 10.63C16.4701 9.13999 15.2601 7.93999 13.7801 7.93999H10.0201C8.53008 7.93999 7.33008 9.14999 7.33008 10.63C7.33008 10.89 7.12008 11.1 6.86008 11.1C6.60008 11.1 6.39008 10.89 6.39008 10.63C6.39008 9.83999 5.75008 9.19999 4.96008 9.19999H2.45008C1.66008 9.19999 1.02008 9.83999 1.02008 10.63V13.14C1.02008 13.4 0.810078 13.61 0.550078 13.61C0.290078 13.61 0.0800781 13.4 0.0800781 13.14V10.63C0.0800781 9.31999 1.15008 8.24999 2.46008 8.24999H4.97008C5.68008 8.24999 6.32008 8.56999 6.75008 9.05999C7.34008 7.82999 8.58008 6.97999 10.0301 6.97999H13.7901C15.2401 6.97999 16.4801 7.82999 17.0701 9.05999C17.5101 8.55999 18.1501 8.24999 18.8601 8.24999H21.3601C22.6701 8.24999 23.7401 9.31999 23.7401 10.63H23.7101ZM11.8801 25.29C8.32008 25.29 5.41008 22.39 5.41008 18.82V16.77H8.25008V18.82C8.25008 20.82 9.88008 22.45 11.8801 22.45C13.8801 22.45 15.5101 20.82 15.5101 18.82V16.77H18.3501V18.82C18.3501 22.39 15.4501 25.29 11.8801 25.29ZM8.25008 15.82H5.41008V13.61H8.25008V15.82ZM18.3501 15.82H15.5101V13.61H18.3501V15.82ZM18.8201 12.67H15.0301C14.7701 12.67 14.5601 12.88 14.5601 13.14V18.82C14.5601 20.3 13.3601 21.5 11.8801 21.5C10.4001 21.5 9.20008 20.3 9.20008 18.82V13.14C9.20008 12.88 8.99008 12.67 8.73008 12.67H4.94008C4.68008 12.67 4.47008 12.88 4.47008 13.14V18.82C4.47008 22.91 7.79008 26.23 11.8801 26.23C15.9701 26.23 19.2901 22.91 19.2901 18.82V13.14C19.2901 12.88 19.0801 12.67 18.8201 12.67Z" stroke="#F2E0CC" stroke-width="0.1" stroke-miterlimit="10"/>
</g>
</g>
<defs>
<clipPath id="clip0_1_438">
<rect width="23.76" height="26.28" fill="white"/>
</clipPath>
</defs>
</svg>
