<svg width="47" height="31" viewBox="0 0 47 31" fill="none" xmlns="http://www.w3.org/2000/svg">
<mask id="mask0_1_1513" style="mask-type:luminance" maskUnits="userSpaceOnUse" x="0" y="0" width="47" height="31">
<path d="M46.39 0H0V30.71H46.39V0Z" fill="white"/>
</mask>
<g mask="url(#mask0_1_1513)">
<path d="M8.89006 8.45996C7.05006 8.45996 5.56006 9.94996 5.56006 11.79V26.89C5.56006 28.73 7.05006 30.22 8.89006 30.22H32.1801C34.0201 30.22 35.5101 28.73 35.5101 26.89V11.79C35.5101 9.94996 34.0201 8.45996 32.1801 8.45996H8.89006Z" stroke="white" stroke-width="0.67"/>
</g>
<path d="M14.172 17.274C14.172 17.474 14.096 17.646 13.944 17.79C13.8 17.926 13.62 17.994 13.404 17.994C13.108 17.994 12.86 17.89 12.66 17.682C12.468 17.474 12.372 17.206 12.372 16.878C12.372 16.278 12.604 15.85 13.068 15.594C13.404 15.41 13.676 15.318 13.884 15.318C13.972 15.318 14.016 15.35 14.016 15.414C14.016 15.47 13.968 15.51 13.872 15.534C13.208 15.71 12.876 16.042 12.876 16.53C12.876 16.746 12.932 16.93 13.044 17.082C13.06 16.81 13.232 16.674 13.56 16.674C13.736 16.674 13.88 16.734 13.992 16.854C14.112 16.966 14.172 17.106 14.172 17.274ZM11.964 17.274C11.964 17.474 11.888 17.646 11.736 17.79C11.592 17.926 11.416 17.994 11.208 17.994C10.904 17.994 10.656 17.89 10.464 17.682C10.272 17.466 10.176 17.194 10.176 16.866C10.176 16.274 10.408 15.85 10.872 15.594C11.208 15.41 11.476 15.318 11.676 15.318C11.764 15.318 11.808 15.35 11.808 15.414C11.808 15.47 11.76 15.51 11.664 15.534C11.008 15.71 10.68 16.046 10.68 16.542C10.68 16.75 10.736 16.93 10.848 17.082C10.864 16.81 11.032 16.674 11.352 16.674C11.528 16.674 11.672 16.734 11.784 16.854C11.904 16.966 11.964 17.106 11.964 17.274Z" fill="white"/>
<path d="M18.48 14H29.48" stroke="white" stroke-width="0.5"/>
<path d="M10.48 19.37H29.48" stroke="white" stroke-width="0.5"/>
<path d="M10.48 24.37H29.48" stroke="white" stroke-width="0.5"/>
<mask id="mask1_1_1513" style="mask-type:luminance" maskUnits="userSpaceOnUse" x="0" y="0" width="47" height="31">
<path d="M46.39 0H0V30.71H46.39V0Z" fill="white"/>
</mask>
<g mask="url(#mask1_1_1513)">
<path d="M34.9701 14.29C37.3701 14.29 39.3201 12.34 39.3201 9.93997C39.3201 7.53997 37.3701 5.58997 34.9701 5.58997C32.5701 5.58997 30.6201 7.53997 30.6201 9.93997C30.6201 12.34 32.5701 14.29 34.9701 14.29Z" fill="#F55C1C"/>
<path d="M34.9101 14.17C37.3001 14.17 39.2401 12.23 39.2401 9.84001C39.2401 7.45001 37.3001 5.51001 34.9101 5.51001C32.5201 5.51001 30.5801 7.45001 30.5801 9.84001C30.5801 12.23 32.5201 14.17 34.9101 14.17Z" stroke="white" stroke-width="0.75"/>
<path d="M36.5603 8.20999L34.2203 10.68L33.2803 9.99999C33.0803 9.85999 32.8103 9.89999 32.6703 10.1C32.5303 10.3 32.5703 10.57 32.7703 10.71L34.0303 11.61C34.2203 11.74 34.4703 11.71 34.6203 11.53L37.2003 8.80999C37.3703 8.63999 37.3603 8.35999 37.1803 8.18999C37.0003 8.01999 36.7303 8.02999 36.5603 8.19999" fill="white"/>
<path d="M36.5603 8.20999L34.2203 10.68L33.2803 9.99999C33.0803 9.85999 32.8103 9.89999 32.6703 10.1C32.5303 10.3 32.5703 10.57 32.7703 10.71L34.0303 11.61C34.2203 11.74 34.4703 11.71 34.6203 11.53L37.2003 8.80999C37.3703 8.63999 37.3603 8.35999 37.1803 8.18999C37.0003 8.01999 36.7303 8.02999 36.5603 8.19999V8.20999Z" stroke="#F55C1C" stroke-width="0.18" stroke-miterlimit="10"/>
</g>
</svg>
