<svg width="34" height="32" viewBox="0 0 34 32" fill="none" xmlns="http://www.w3.org/2000/svg">
<path d="M32.9484 14.5604C32.3456 13.741 31.5089 13.1057 30.5779 12.7457C30.5409 11.8304 29.9023 11.0691 29.0513 10.8618C28.7075 7.94999 27.3492 5.25999 25.1935 3.25249C22.9471 1.15286 20.0359 -1.47639e-06 17.0006 -1.47639e-06C13.9652 -1.47639e-06 11.054 1.15286 8.80765 3.25249C6.65557 5.25635 5.29724 7.94514 4.95348 10.8546C4.07737 11.0473 3.41253 11.8268 3.38269 12.7651C1.34878 13.5664 0 15.5399 0 17.7729C0 20.0059 1.34878 21.9795 3.38269 22.7808C3.41969 23.8645 4.2958 24.7361 5.37363 24.7361C6.46937 24.7361 7.36457 23.8306 7.36457 22.7141V12.8281C7.36457 11.8632 6.69615 11.0582 5.8081 10.8546C6.52427 5.21514 11.3644 0.855853 17.0006 0.855853C22.6332 0.855853 27.4697 5.20786 28.1966 10.8437C27.2871 11.0291 26.5996 11.8486 26.5996 12.8245V22.7105C26.5996 23.7275 27.3408 24.5701 28.3017 24.7107C28.2838 28.5172 24.8068 29.1924 20.5289 29.5185C20.3248 28.6239 19.5322 27.9571 18.5893 27.9571H15.2913C14.1956 27.9571 13.3004 28.8615 13.3004 29.978C13.3004 31.0908 14.192 32 15.2913 32H18.5893C19.5501 32 20.357 31.303 20.5396 30.3828C22.5485 30.2313 24.7662 29.978 26.3955 29.1803C28.2587 28.2687 29.1599 26.7837 29.1456 24.6513C29.9453 24.4137 30.5409 23.6754 30.5743 22.7929C31.5089 22.4329 32.342 21.7952 32.9448 20.9781C33.6347 20.0435 34 18.9306 34 17.7657C34.0036 16.6043 33.6383 15.4951 32.9484 14.5604ZM0.843883 17.7693C0.843883 16.0067 1.84174 14.438 3.37911 13.6961V21.8425C1.84174 21.1006 0.843883 19.5319 0.843883 17.7693ZM6.51353 12.8281V22.7141C6.51353 23.3566 6.00147 23.8754 5.37005 23.8754C4.73863 23.8754 4.22657 23.3566 4.22657 22.7141V12.8281C4.22657 12.1868 4.73863 11.6668 5.37005 11.6668C6.00147 11.6668 6.51353 12.1868 6.51353 12.8281ZM18.5893 31.1429H15.2913C14.6587 31.1429 14.1479 30.6241 14.1479 29.9816C14.1479 29.3403 14.6587 28.8215 15.2913 28.8215H18.5893C19.2219 28.8215 19.7328 29.3403 19.7328 29.9816C19.7328 30.6204 19.2183 31.1429 18.5893 31.1429ZM29.734 22.7105C29.734 23.353 29.2231 23.8718 28.5905 23.8718C27.9591 23.8718 27.4471 23.353 27.4471 22.7105V12.8281C27.4471 12.1868 27.9591 11.6668 28.5905 11.6668C29.2231 11.6668 29.734 12.1868 29.734 12.8281V22.7105ZM30.5779 21.8607V13.6779C32.1188 14.4113 33.1561 16.0188 33.1561 17.7693C33.1561 19.521 32.1224 21.1272 30.5779 21.8607ZM13.5522 21.0048L13.6835 21.6279C13.7862 22.1286 14.2099 22.4777 14.7136 22.4777H15.8094C16.3143 22.4777 16.738 22.1286 16.8394 21.6279L16.9707 21.0048C16.9863 20.9297 17.0256 20.8787 17.0997 20.8521C17.1796 20.8193 17.2632 20.7854 17.3443 20.7478C17.4136 20.7151 17.4756 20.7224 17.5413 20.7636L18.0677 21.1115C18.4866 21.3903 19.0309 21.3309 19.3854 20.9709L20.1601 20.1841C20.5146 19.8253 20.5731 19.2713 20.2985 18.8446L19.956 18.3112C19.9154 18.2445 19.9082 18.1815 19.9404 18.1111C19.9774 18.0287 20.0109 17.9475 20.0431 17.8663C20.0729 17.7923 20.1195 17.7511 20.1935 17.7366L20.807 17.602C21.3 17.499 21.6437 17.0686 21.6437 16.5558V15.443C21.6437 15.3363 21.6282 15.232 21.5996 15.1351C21.6616 15.0393 21.7058 14.9278 21.7309 14.809L21.8407 14.2901C21.8478 14.2525 21.8657 14.2307 21.9027 14.2149C21.972 14.1895 22.0412 14.1592 22.1068 14.1301C22.1438 14.1155 22.1689 14.1155 22.2023 14.1374L22.6404 14.4271C23.02 14.6756 23.5058 14.6271 23.828 14.301L24.4702 13.6476C24.7877 13.3251 24.839 12.8281 24.5943 12.4414L24.3102 11.9965C24.2876 11.9638 24.2876 11.9371 24.3019 11.9007C24.3317 11.8304 24.3604 11.7638 24.3866 11.6922C24.401 11.6559 24.4189 11.6365 24.4595 11.6292L24.9703 11.5177C25.4131 11.4219 25.7199 11.0364 25.7199 10.5794V9.652C25.7199 9.19256 25.4096 8.80585 24.9703 8.71372L24.4595 8.60219C24.4224 8.59492 24.401 8.57673 24.3866 8.53915C24.3604 8.46884 24.3317 8.39853 24.3019 8.33185C24.2876 8.29427 24.2876 8.26882 24.3102 8.23487L24.5943 7.78997C24.839 7.40448 24.7877 6.91109 24.4702 6.58378L23.828 5.93158C23.5093 5.60791 23.02 5.55699 22.6404 5.80551L22.2023 6.09403C22.1689 6.11706 22.1438 6.11706 22.1068 6.1013C22.0412 6.0722 21.972 6.04311 21.9027 6.01644C21.8657 6.00189 21.8478 5.98371 21.8407 5.94249L21.7309 5.42364C21.6354 4.9739 21.2558 4.66235 20.807 4.66235H19.8939C19.4403 4.66235 19.0608 4.97753 18.9688 5.42364L18.8602 5.94249C18.8519 5.98007 18.834 6.00189 18.7982 6.01644C18.7277 6.04311 18.6585 6.0722 18.5929 6.1013C18.557 6.11706 18.5308 6.11706 18.4986 6.09403L18.0593 5.80551C17.6797 5.55699 17.1939 5.60791 16.8729 5.93158L16.2295 6.58378C15.912 6.90745 15.8607 7.40448 16.1054 7.78997L16.3906 8.23487C16.4121 8.26882 16.4121 8.29427 16.3978 8.33185C16.368 8.39853 16.3393 8.46884 16.3143 8.53915C16.2987 8.57673 16.2808 8.59492 16.2403 8.60219L15.7294 8.71372C15.3307 8.79857 15.0431 9.12225 14.9882 9.52229H14.7136C14.2099 9.52229 13.7862 9.87142 13.6835 10.3721L13.5522 10.9952C13.5379 11.0691 13.4973 11.1213 13.4245 11.1479C13.3446 11.1807 13.2598 11.2146 13.1834 11.251C13.1142 11.2849 13.0521 11.2776 12.9865 11.2364L12.4601 10.8873C12.0399 10.6097 11.4957 10.6691 11.1412 11.0291L10.3665 11.8147C10.0132 12.1747 9.95471 12.7275 10.228 13.1542L10.5718 13.6888C10.6124 13.7555 10.6195 13.8185 10.5861 13.8889C10.5491 13.9701 10.5169 14.0525 10.4835 14.1337C10.4548 14.2077 10.4071 14.2489 10.3343 14.2634L9.72076 14.3968C9.2278 14.501 8.88404 14.9314 8.88404 15.443V16.5558C8.88404 17.0686 9.2278 17.499 9.72076 17.602L10.3343 17.7366C10.4071 17.7511 10.4584 17.7923 10.4835 17.8663C10.5169 17.9475 10.5491 18.0324 10.5861 18.1111C10.6195 18.1815 10.6124 18.2445 10.5718 18.3112L10.228 18.8446C9.95471 19.2713 10.0096 19.8253 10.3665 20.1841L11.1412 20.9709C11.4957 21.3309 12.0399 21.3903 12.4601 21.1115L12.9865 20.7636C13.0521 20.7224 13.1142 20.7151 13.1834 20.7478C13.2634 20.7854 13.3446 20.8193 13.4245 20.8521C13.4973 20.8824 13.5379 20.9297 13.5522 21.0048ZM16.4121 9.44471C16.7344 9.3744 16.9827 9.15861 17.0997 8.8507C17.1211 8.79494 17.1426 8.73917 17.1689 8.68462C17.3002 8.38034 17.2739 8.04576 17.0961 7.76815L16.8108 7.32204C16.7845 7.28204 16.7881 7.22991 16.8251 7.19597L17.4685 6.54377C17.5043 6.50619 17.552 6.50256 17.5926 6.52923L18.0307 6.81774C18.304 6.99958 18.6334 7.02625 18.933 6.89169C18.9879 6.86623 19.0428 6.84441 19.0978 6.82138C19.3997 6.70258 19.6158 6.44679 19.6814 6.12433L19.7912 5.60549C19.802 5.55699 19.839 5.52305 19.8903 5.52305H20.8034C20.8536 5.52305 20.8906 5.55336 20.9013 5.60549L21.0111 6.12433C21.0803 6.45043 21.2928 6.70258 21.5996 6.82138C21.6545 6.84441 21.7094 6.86623 21.7643 6.89169C22.0627 7.02625 22.3921 6.99958 22.6655 6.81774L23.1047 6.52923C23.1441 6.50256 23.1954 6.50619 23.2288 6.54377L23.871 7.19597C23.908 7.23355 23.9116 7.28204 23.8853 7.32204L23.6012 7.76815C23.4222 8.04576 23.3959 8.38034 23.5284 8.68462C23.5535 8.73917 23.575 8.79494 23.5977 8.8507C23.7146 9.15861 23.9665 9.37804 24.284 9.44471L24.7949 9.55624C24.8426 9.56715 24.876 9.60351 24.876 9.65564V10.583C24.876 10.6351 24.8462 10.6727 24.7949 10.6836L24.284 10.7952C23.9665 10.8655 23.7146 11.08 23.5977 11.3916C23.575 11.4474 23.5535 11.5031 23.5284 11.5589C23.3959 11.8632 23.4222 12.1977 23.6012 12.4754L23.8853 12.9203C23.9116 12.9615 23.908 13.0136 23.871 13.0463L23.2288 13.6997C23.1918 13.7373 23.1441 13.741 23.1047 13.7143L22.6655 13.4246C22.3921 13.2439 22.0627 13.2173 21.7643 13.3506C21.7094 13.3773 21.6545 13.3991 21.5996 13.4221C21.2964 13.5397 21.0803 13.7967 21.0147 14.1192L20.949 14.4416C20.9049 14.4271 20.8619 14.4113 20.8142 14.4004L20.2007 14.2671C20.1266 14.2525 20.0801 14.2113 20.0503 14.1374C20.018 14.0561 19.9846 13.9701 19.9488 13.8925C19.9154 13.8222 19.9225 13.7591 19.9631 13.6925L20.3057 13.1579C20.3427 13.1021 20.3725 13.0463 20.394 12.9918C21.9314 12.9687 23.1775 11.6922 23.1775 10.1236C23.1775 8.54279 21.9099 7.25537 20.3534 7.25537C18.7982 7.25537 17.5305 8.54279 17.5305 10.1236C17.5305 10.4691 17.5926 10.8097 17.7132 11.1322L17.5484 11.2401C17.4828 11.2813 17.4207 11.2886 17.3515 11.2546C17.2703 11.2182 17.1904 11.1843 17.1104 11.1504C17.0364 11.1213 16.997 11.0728 16.9827 10.9988L16.8502 10.3757C16.7595 9.93446 16.4193 9.61079 15.992 9.54048L16.4121 9.44471ZM18.4616 10.7285C18.3995 10.5321 18.3661 10.3272 18.3661 10.1199C18.3661 9.01072 19.2541 8.1088 20.3463 8.1088C21.4384 8.1088 22.3265 9.01072 22.3265 10.1199C22.3265 11.2182 21.4527 12.1117 20.3761 12.1262C20.3248 12.0159 20.252 11.908 20.1601 11.8147L19.3854 11.0291C19.1336 10.7721 18.7898 10.6691 18.4616 10.7285ZM13.0951 19.8689C12.8981 19.8689 12.7012 19.9283 12.5257 20.0435L11.9994 20.3926C11.9158 20.4484 11.8132 20.4363 11.7403 20.3659L10.9657 19.5792C10.8965 19.5089 10.8857 19.4022 10.9406 19.3161L11.2844 18.7815C11.4813 18.4748 11.51 18.099 11.3644 17.7657C11.3345 17.699 11.3059 17.6287 11.2808 17.562C11.1483 17.2165 10.8714 16.9753 10.5169 16.8977L9.90338 16.7643C9.79715 16.7413 9.7315 16.6601 9.7315 16.5558V15.443C9.7315 15.3436 9.79715 15.2575 9.89622 15.2393L10.5097 15.106C10.8642 15.0272 11.1447 14.7871 11.2725 14.4416C11.2987 14.3713 11.3274 14.3047 11.3572 14.238C11.5064 13.8998 11.4778 13.5288 11.2772 13.2209L10.9335 12.6875C10.8786 12.6014 10.8893 12.4972 10.9585 12.4232L11.7332 11.6365C11.8024 11.5662 11.9086 11.5553 11.9922 11.611L12.5186 11.9601C12.8218 12.1602 13.1906 12.1893 13.5236 12.0414C13.5892 12.0111 13.6585 11.982 13.7241 11.9565C14.0631 11.8219 14.3006 11.5407 14.3782 11.1807L14.5095 10.5576C14.531 10.4569 14.6122 10.3903 14.71 10.3903H15.8058C15.9048 10.3903 15.9884 10.4569 16.0075 10.5576L16.1388 11.1807C16.2152 11.5407 16.4527 11.8268 16.7917 11.9565C16.8585 11.982 16.9278 12.0111 16.9934 12.0414C17.3252 12.1941 17.6905 12.1638 17.9972 11.9601L18.5236 11.611C18.6072 11.5553 18.7098 11.5662 18.7826 11.6365L19.5573 12.4232C19.6265 12.4935 19.6373 12.6014 19.5836 12.6875L19.2398 13.2209C19.0428 13.5288 19.013 13.9034 19.1598 14.2416C19.1885 14.3083 19.2183 14.3786 19.2434 14.4453C19.3747 14.7908 19.6528 15.032 20.0073 15.1096L20.6208 15.2429C20.7187 15.2648 20.7843 15.3472 20.7843 15.4466V16.5595C20.7843 16.6601 20.7187 16.7449 20.6208 16.7643L20.0073 16.8977C19.6528 16.9753 19.3711 17.2165 19.2434 17.562C19.2183 17.6323 19.1885 17.699 19.1598 17.7657C19.0094 18.1039 19.0393 18.4748 19.2398 18.7864L19.5836 19.3198C19.6373 19.4058 19.6265 19.5089 19.5573 19.584L18.7826 20.3696C18.7134 20.4399 18.6072 20.452 18.5236 20.3963L17.9972 20.0471C17.6941 19.8471 17.3252 19.8168 16.9934 19.9659C16.9278 19.995 16.8585 20.0253 16.7917 20.0508C16.4527 20.1841 16.2152 20.4666 16.1388 20.8266L16.0075 21.4497C15.9848 21.5491 15.9048 21.617 15.8058 21.617H14.71C14.6122 21.617 14.5274 21.5491 14.5095 21.4497L14.3782 20.8266C14.3006 20.4666 14.0631 20.1805 13.7241 20.0508C13.6585 20.0253 13.5892 19.995 13.5236 19.9659C13.3875 19.9029 13.2419 19.8689 13.0951 19.8689ZM18.5785 15.9994C18.5785 14.1446 17.0913 12.6354 15.2651 12.6354C13.4389 12.6354 11.9492 14.1446 11.9492 15.9994C11.9492 17.8554 13.4353 19.3646 15.2615 19.3646C17.0877 19.3646 18.5785 17.8554 18.5785 15.9994ZM12.7967 15.9994C12.7967 14.6162 13.9032 13.4924 15.2651 13.4924C16.6282 13.4924 17.7347 14.6162 17.7347 15.9994C17.7347 17.3838 16.6282 18.5076 15.2651 18.5076C13.9032 18.5076 12.7967 17.3838 12.7967 15.9994Z" fill="#0000FF"/>
</svg>
