<svg width="30" height="33" viewBox="0 0 30 33" fill="none" xmlns="http://www.w3.org/2000/svg">
<path d="M22.9855 15.6073H18.3585C18.0395 15.6073 17.7805 15.8664 17.7805 16.1854V23.1258C17.7805 24.9345 16.3127 26.4023 14.5039 26.4023C12.6952 26.4023 11.2262 24.9345 11.2262 23.1258V16.1854C11.2262 15.8664 10.9671 15.6073 10.6482 15.6073H6.02121C5.70224 15.6073 5.44315 15.8664 5.44315 16.1854V23.1258C5.44315 28.1218 9.5067 32.1854 14.5039 32.1854C19.5 32.1854 23.5635 28.1218 23.5635 23.1258V16.1854C23.5635 15.8664 23.3044 15.6073 22.9855 15.6073ZM22.4074 19.4631H18.9378V16.7646H22.4074V19.4631ZM10.0701 19.4631H6.6005V16.7646H10.0701V19.4631ZM14.5039 31.0292C10.1471 31.0292 6.6005 27.4826 6.6005 23.1258V20.6192H10.0701V23.1258C10.0701 25.57 12.0597 27.5596 14.5039 27.5596C16.9482 27.5596 18.9378 25.57 18.9378 23.1258V20.6192H22.4074V23.1258C22.4074 27.4826 18.8608 31.0292 14.5039 31.0292ZM28.9616 13.113V16.1854C28.9616 16.5043 28.7025 16.7634 28.3836 16.7634C28.0634 16.7634 27.8043 16.5043 27.8043 16.1854V13.113C27.8043 12.1487 27.0221 11.3665 26.0579 11.3665H22.9965C22.0322 11.3665 21.2488 12.1487 21.2488 13.113C21.2488 13.4319 20.9897 13.691 20.6708 13.691C20.3518 13.691 20.0927 13.4319 20.0927 13.113C20.0927 11.2969 18.6164 9.82423 16.8028 9.82423H12.2027C10.3854 9.82423 8.91275 11.3005 8.91275 13.113C8.91275 13.4319 8.65366 13.691 8.33469 13.691C8.01571 13.691 7.75662 13.4319 7.75662 13.113C7.75662 12.1487 6.97324 11.3665 6.00899 11.3665H2.94758C1.98333 11.3665 1.20117 12.1487 1.20117 13.113L1.20239 16.1854C1.20239 16.5043 0.943301 16.7634 0.624328 16.7634C0.304132 16.7634 0.0450439 16.5043 0.0450439 16.1854V13.113C0.0450439 11.5132 1.34782 10.2092 2.9488 10.2092H6.01144C6.88281 10.2092 7.6613 10.5954 8.19292 11.204C8.91031 9.70324 10.4331 8.6681 12.2027 8.6681H16.8015C18.5712 8.6681 20.0939 9.70813 20.8101 11.204C21.3417 10.5954 22.1251 10.2092 22.9928 10.2092H26.0542C27.6589 10.2092 28.9616 11.512 28.9616 13.113ZM14.5039 7.51075C16.5229 7.51075 18.1666 5.86822 18.1666 3.84806C18.1666 1.82911 16.5229 0.185363 14.5039 0.185363C12.4838 0.185363 10.8413 1.82911 10.8413 3.84806C10.8413 5.86822 12.4838 7.51075 14.5039 7.51075ZM14.5039 1.34271C15.8825 1.34271 17.0093 2.46828 17.0093 3.84806C17.0093 5.22783 15.8825 6.35463 14.5039 6.35463C13.1242 6.35463 11.9974 5.22783 11.9974 3.84806C11.9974 2.46828 13.1242 1.34271 14.5039 1.34271ZM4.4789 9.05307C6.07621 9.05307 7.37043 7.75762 7.37043 6.16153C7.37043 4.56544 6.07621 3.27 4.4789 3.27C2.88281 3.27 1.58736 4.56544 1.58736 6.16153C1.58736 7.75762 2.88281 9.05307 4.4789 9.05307ZM4.4789 4.42612C5.43582 4.42612 6.21431 5.20584 6.21431 6.16153C6.21431 7.11723 5.43582 7.89694 4.4789 7.89694C3.5232 7.89694 2.74471 7.11723 2.74471 6.16153C2.74471 5.20584 3.5232 4.42612 4.4789 4.42612ZM24.5278 9.05307C26.1239 9.05307 27.4193 7.75762 27.4193 6.16153C27.4193 4.56544 26.1239 3.27 24.5278 3.27C22.9317 3.27 21.6362 4.56544 21.6362 6.16153C21.6362 7.75762 22.9317 9.05307 24.5278 9.05307ZM24.5278 4.42612C25.4835 4.42612 26.2632 5.20584 26.2632 6.16153C26.2632 7.11723 25.4835 7.89694 24.5278 7.89694C23.5709 7.89694 22.7924 7.11723 22.7924 6.16153C22.7924 5.20584 23.5709 4.42612 24.5278 4.42612Z" fill="#0000FF"/>
<path d="M22.9855 15.6073H18.3585C18.0395 15.6073 17.7805 15.8664 17.7805 16.1854V23.1258C17.7805 24.9345 16.3127 26.4023 14.5039 26.4023C12.6952 26.4023 11.2262 24.9345 11.2262 23.1258V16.1854C11.2262 15.8664 10.9671 15.6073 10.6482 15.6073H6.02121C5.70224 15.6073 5.44315 15.8664 5.44315 16.1854V23.1258C5.44315 28.1218 9.5067 32.1854 14.5039 32.1854C19.5 32.1854 23.5635 28.1218 23.5635 23.1258V16.1854C23.5635 15.8664 23.3044 15.6073 22.9855 15.6073ZM22.4074 19.4631H18.9378V16.7646H22.4074V19.4631ZM10.0701 19.4631H6.6005V16.7646H10.0701V19.4631ZM14.5039 31.0292C10.1471 31.0292 6.6005 27.4826 6.6005 23.1258V20.6192H10.0701V23.1258C10.0701 25.57 12.0597 27.5596 14.5039 27.5596C16.9482 27.5596 18.9378 25.57 18.9378 23.1258V20.6192H22.4074V23.1258C22.4074 27.4826 18.8608 31.0292 14.5039 31.0292ZM28.9616 13.113V16.1854C28.9616 16.5043 28.7025 16.7634 28.3836 16.7634C28.0634 16.7634 27.8043 16.5043 27.8043 16.1854V13.113C27.8043 12.1487 27.0221 11.3665 26.0579 11.3665H22.9965C22.0322 11.3665 21.2488 12.1487 21.2488 13.113C21.2488 13.4319 20.9897 13.691 20.6708 13.691C20.3518 13.691 20.0927 13.4319 20.0927 13.113C20.0927 11.2969 18.6164 9.82423 16.8028 9.82423H12.2027C10.3854 9.82423 8.91275 11.3005 8.91275 13.113C8.91275 13.4319 8.65366 13.691 8.33469 13.691C8.01571 13.691 7.75662 13.4319 7.75662 13.113C7.75662 12.1487 6.97324 11.3665 6.00899 11.3665H2.94758C1.98333 11.3665 1.20117 12.1487 1.20117 13.113L1.20239 16.1854C1.20239 16.5043 0.943301 16.7634 0.624328 16.7634C0.304132 16.7634 0.0450439 16.5043 0.0450439 16.1854V13.113C0.0450439 11.5132 1.34782 10.2092 2.9488 10.2092H6.01144C6.88281 10.2092 7.6613 10.5954 8.19292 11.204C8.91031 9.70324 10.4331 8.6681 12.2027 8.6681H16.8015C18.5712 8.6681 20.0939 9.70813 20.8101 11.204C21.3417 10.5954 22.1251 10.2092 22.9928 10.2092H26.0542C27.6589 10.2092 28.9616 11.512 28.9616 13.113ZM14.5039 7.51075C16.5229 7.51075 18.1666 5.86822 18.1666 3.84806C18.1666 1.82911 16.5229 0.185363 14.5039 0.185363C12.4838 0.185363 10.8413 1.82911 10.8413 3.84806C10.8413 5.86822 12.4838 7.51075 14.5039 7.51075ZM14.5039 1.34271C15.8825 1.34271 17.0093 2.46828 17.0093 3.84806C17.0093 5.22783 15.8825 6.35463 14.5039 6.35463C13.1242 6.35463 11.9974 5.22783 11.9974 3.84806C11.9974 2.46828 13.1242 1.34271 14.5039 1.34271ZM4.4789 9.05307C6.07621 9.05307 7.37043 7.75762 7.37043 6.16153C7.37043 4.56544 6.07621 3.27 4.4789 3.27C2.88281 3.27 1.58736 4.56544 1.58736 6.16153C1.58736 7.75762 2.88281 9.05307 4.4789 9.05307ZM4.4789 4.42612C5.43582 4.42612 6.21431 5.20584 6.21431 6.16153C6.21431 7.11723 5.43582 7.89694 4.4789 7.89694C3.5232 7.89694 2.74471 7.11723 2.74471 6.16153C2.74471 5.20584 3.5232 4.42612 4.4789 4.42612ZM24.5278 9.05307C26.1239 9.05307 27.4193 7.75762 27.4193 6.16153C27.4193 4.56544 26.1239 3.27 24.5278 3.27C22.9317 3.27 21.6362 4.56544 21.6362 6.16153C21.6362 7.75762 22.9317 9.05307 24.5278 9.05307ZM24.5278 4.42612C25.4835 4.42612 26.2632 5.20584 26.2632 6.16153C26.2632 7.11723 25.4835 7.89694 24.5278 7.89694C23.5709 7.89694 22.7924 7.11723 22.7924 6.16153C22.7924 5.20584 23.5709 4.42612 24.5278 4.42612Z" stroke="#F2E0CC" stroke-width="0.1" stroke-miterlimit="10"/>
</svg>
