<svg width="39" height="39" viewBox="0 0 39 39" fill="none" xmlns="http://www.w3.org/2000/svg">
<path d="M9.43249 10.2753H28.3452C28.6603 10.2753 28.9152 10.0282 28.9152 9.72386C28.9152 9.42111 28.6603 9.17242 28.3452 9.17242H9.43249C9.11738 9.17242 8.86251 9.42111 8.86251 9.72386C8.86251 10.0282 9.11738 10.2753 9.43249 10.2753Z" fill="#D6D1CF"/>
<path d="M9.43249 13.4905V13.4921L28.3452 13.4905C28.6603 13.4905 28.9152 13.2449 28.9152 12.9406C28.9152 12.6363 28.6603 12.3892 28.3452 12.3892H9.43249C9.11738 12.3892 8.86251 12.6363 8.86251 12.9406C8.86251 13.2449 9.11738 13.4905 9.43249 13.4905Z" fill="#D6D1CF"/>
<path d="M34.1888 23.5047V23.5063L31.1921 26.6867L29.9827 25.814C29.7293 25.6317 29.3787 25.6904 29.1964 25.9437C29.0157 26.1986 29.0744 26.5523 29.3277 26.7346H29.3246L30.9357 27.8946C31.1751 28.0676 31.5072 28.0259 31.6957 27.7958L35.0043 24.2848C35.2159 24.0577 35.2082 23.6993 34.9842 23.4846C34.7587 23.2699 34.4035 23.2792 34.1888 23.5047Z" fill="#D6D1CF"/>
<path d="M37.4598 22.5607C36.3538 20.6423 34.3103 19.4622 32.0999 19.4622V5.78736C32.0999 5.61127 32.018 5.44445 31.879 5.33632L27.3717 1.02056C27.2636 0.892354 27.106 0.819756 26.9376 0.819756H6.25011C5.93501 0.8213 5.68168 1.07617 5.68014 1.38973V4.86829H1.37056C1.21764 4.86829 1.07244 4.92853 0.965858 5.03511C0.857733 5.14169 0.797491 5.28689 0.797491 5.43981V37.9594C0.797491 38.2745 1.0539 38.5309 1.37056 38.5309H25.532C25.9738 38.5309 26.397 38.3625 26.7168 38.0552C27.035 37.7524 27.2172 37.3323 27.2188 36.892V34.4808H30.4147C30.8549 34.4824 31.2781 34.3125 31.5979 34.0082C31.9161 33.7054 32.0983 33.2837 32.0999 32.8435V31.8534C34.3103 31.8534 36.3538 30.6717 37.4598 28.7563C38.5658 26.8394 38.5658 24.4777 37.4598 22.5607ZM27.5076 2.72431L30.1104 5.21893H27.5076V2.72431ZM26.0773 36.892C26.0757 37.0218 26.0217 37.1454 25.9244 37.2365C25.8178 37.3353 25.6772 37.3894 25.532 37.3879H1.94053V6.01133H5.68014V33.9108C5.68014 34.2244 5.93501 34.4808 6.25011 34.4808H26.0773V36.892ZM30.9584 32.8435C30.9553 32.9717 30.9028 33.0968 30.807 33.1849C30.7004 33.2853 30.5599 33.3409 30.4147 33.3393H6.82009V1.96125H26.3661V5.7889C26.3661 6.10247 26.621 6.35888 26.9361 6.35888H30.9553V19.5657C29.3983 19.8561 28.0112 20.7319 27.0782 22.0155H9.42283C9.26991 22.0108 9.12162 22.0695 9.01041 22.1761C8.90074 22.2842 8.83586 22.431 8.83586 22.587C8.83586 22.7399 8.90074 22.8882 9.01041 22.9963C9.12162 23.1045 9.26991 23.1616 9.42283 23.1585H26.4217C26.1329 23.8135 25.9599 24.5132 25.9105 25.2268H9.42283C9.26991 25.2237 9.12008 25.2809 9.00886 25.389C8.89919 25.4971 8.83586 25.6439 8.83586 25.7983C8.83586 25.9543 8.89919 26.1011 9.00886 26.2092C9.12008 26.3158 9.26991 26.3745 9.42283 26.3699H25.9367C26.0186 27.0912 26.2287 27.7925 26.5546 28.4397H9.42283C9.26991 28.4351 9.12008 28.4938 9.00886 28.6019C8.89919 28.71 8.83586 28.8567 8.83586 29.0112C8.83586 29.1657 8.89919 29.314 9.00886 29.4205C9.12008 29.5287 9.26991 29.5874 9.42283 29.5827V29.5843H27.2976V29.5827C27.4288 29.7418 27.5663 29.8932 27.7115 30.0369C28.5951 30.925 29.7288 31.5228 30.9584 31.7499V32.8435ZM33.0715 30.613C30.7081 31.0857 28.3433 29.8175 27.4211 27.5901C26.5005 25.3627 27.279 22.794 29.2824 21.4563C31.2858 20.1156 33.9535 20.3781 35.6572 22.085C36.6041 23.0319 37.137 24.317 37.1339 25.6578C37.1339 28.069 35.4332 30.1434 33.0715 30.613Z" fill="#D6D1CF"/>
<path d="M9.43249 19.9239V19.9255L28.3452 19.9239C28.6603 19.9239 28.9152 19.6783 28.9152 19.374C28.9152 19.0697 28.6603 18.821 28.3452 18.821H9.43249C9.11738 18.821 8.86251 19.0697 8.86251 19.374C8.86251 19.6783 9.11738 19.9239 9.43249 19.9239Z" fill="#D6D1CF"/>
<path d="M9.43249 16.7071V16.7086L28.3452 16.7071C28.6603 16.7071 28.9152 16.4615 28.9152 16.1572C28.9152 15.8529 28.6603 15.6058 28.3452 15.6058H9.43249C9.11738 15.6058 8.86251 15.8529 8.86251 16.1572C8.86251 16.4615 9.11738 16.7071 9.43249 16.7071Z" fill="#D6D1CF"/>
</svg>
