<svg width="19" height="19" viewBox="0 0 19 19" fill="none" xmlns="http://www.w3.org/2000/svg">
<g clip-path="url(#clip0_1_1468)">
<mask id="mask0_1_1468" style="mask-type:luminance" maskUnits="userSpaceOnUse" x="0" y="0" width="19" height="19">
<path d="M18.58 0H0V18.57H18.58V0Z" fill="white"/>
</mask>
<g mask="url(#mask0_1_1468)">
<path d="M6.05988 8.85001C5.81988 8.61001 5.43988 8.61001 5.19988 8.85001C4.95988 9.09 4.95988 9.47001 5.19988 9.71L8.24988 12.76C8.36988 12.88 8.51988 12.94 8.67988 12.94C8.83988 12.94 8.98988 12.88 9.10988 12.76L18.2699 3.62C18.5099 3.38 18.5099 3.00001 18.2699 2.76C18.0299 2.52 17.6499 2.52 17.4099 2.76L8.67988 11.48L6.05988 8.86V8.85001ZM17.8499 6.06C18.2399 7.09 18.4399 8.17 18.4399 9.28C18.4399 14.33 14.3299 18.44 9.27988 18.44C4.22988 18.44 0.129883 14.34 0.129883 9.29C0.129883 4.24 4.23988 0.130005 9.28988 0.130005C11.6799 0.130005 13.9499 1.05 15.6799 2.73C15.9199 2.96 15.9199 3.35 15.6899 3.59C15.4599 3.83 15.0699 3.84 14.8299 3.6C13.3299 2.15 11.3599 1.35 9.28988 1.35C4.90988 1.35 1.34988 4.91 1.34988 9.29C1.34988 13.67 4.90988 17.23 9.28988 17.23C13.6699 17.23 17.2299 13.67 17.2299 9.29C17.2299 8.33 17.0599 7.39 16.7199 6.49C16.5999 6.17 16.7599 5.83 17.0699 5.7C17.3799 5.58 17.7399 5.74 17.8499 6.06Z" fill="white"/>
<path d="M6.05988 8.85001C5.81988 8.61001 5.43988 8.61001 5.19988 8.85001C4.95988 9.09001 4.95988 9.47 5.19988 9.71L8.24988 12.76C8.36988 12.88 8.51988 12.94 8.67988 12.94C8.83988 12.94 8.98988 12.88 9.10988 12.76L18.2699 3.62C18.5099 3.38 18.5099 3 18.2699 2.76C18.0299 2.52001 17.6499 2.52001 17.4099 2.76L8.67988 11.48L6.05988 8.86V8.85001ZM17.8499 6.06C18.2399 7.09 18.4399 8.17 18.4399 9.28C18.4399 14.33 14.3299 18.44 9.27988 18.44C4.22988 18.44 0.129883 14.34 0.129883 9.29C0.129883 4.24 4.23988 0.130005 9.28988 0.130005C11.6799 0.130005 13.9499 1.05 15.6799 2.73C15.9199 2.96 15.9199 3.35 15.6899 3.59C15.4599 3.83 15.0699 3.84 14.8299 3.6C13.3299 2.15 11.3599 1.35 9.28988 1.35C4.90988 1.35 1.34988 4.91 1.34988 9.29C1.34988 13.67 4.90988 17.23 9.28988 17.23C13.6699 17.23 17.2299 13.67 17.2299 9.29C17.2299 8.33 17.0599 7.39 16.7199 6.49C16.5999 6.17 16.7599 5.83 17.0699 5.7C17.3799 5.58 17.7399 5.74 17.8499 6.06Z" stroke="#F55C1C" stroke-width="0.26" stroke-miterlimit="10"/>
</g>
</g>
<defs>
<clipPath id="clip0_1_1468">
<rect width="18.58" height="18.57" fill="white"/>
</clipPath>
</defs>
</svg>
