<svg width="28" height="26" viewBox="0 0 28 26" fill="none" xmlns="http://www.w3.org/2000/svg">
<g clip-path="url(#clip0_1_460)">
<mask id="mask0_1_460" style="mask-type:luminance" maskUnits="userSpaceOnUse" x="0" y="0" width="29" height="26">
<path d="M28.01 0H0V25.24H28.01V0Z" fill="white"/>
</mask>
<g mask="url(#mask0_1_460)">
<path d="M14.0101 19.77C5.44012 19.77 1.61012 13.72 0.990117 12.62C1.62012 11.51 5.43012 5.47 14.0101 5.47C22.5901 5.47 26.4001 11.52 27.0301 12.62C26.4001 13.72 22.5901 19.77 14.0101 19.77ZM27.9701 12.45C27.9301 12.37 24.0001 4.63 14.0001 4.63C4.00012 4.63 0.0801172 12.37 0.0401172 12.45C-0.0198828 12.56 -0.0198828 12.69 0.0401172 12.8C0.0801172 12.88 4.01012 20.62 14.0101 20.62C24.0101 20.62 27.9401 12.88 27.9801 12.8C28.0401 12.69 28.0401 12.56 27.9801 12.45" fill="#0000FF"/>
<path d="M14.01 18.09C10.66 18.09 7.94001 15.64 7.94001 12.62C7.94001 9.6 10.66 7.15 14.01 7.15C17.36 7.15 20.08 9.6 20.08 12.62C20.08 15.64 17.36 18.09 14.01 18.09ZM14.01 6.31C10.15 6.31 7.01001 9.14 7.01001 12.62C7.01001 16.1 10.15 18.93 14.01 18.93C17.87 18.93 21.01 16.1 21.01 12.62C21.01 9.14 17.87 6.31 14.01 6.31Z" fill="#0000FF"/>
<path d="M14.01 3.79C14.27 3.79 14.48 3.6 14.48 3.37V0.42C14.47 0.19 14.26 0 14.01 0C13.76 0 13.54 0.19 13.54 0.42V3.36C13.54 3.59 13.75 3.78 14.01 3.78" fill="#0000FF"/>
<path d="M21.2402 4.99002C21.3202 5.03002 21.3902 5.05002 21.4702 5.05002C21.6302 5.05002 21.7902 4.97002 21.8802 4.84002L23.7502 1.90002C23.8802 1.70002 23.8002 1.44002 23.5802 1.33002C23.3502 1.22002 23.0702 1.28002 22.9402 1.49002L21.0702 4.43002C20.9402 4.63002 21.0202 4.89002 21.2402 5.00002V4.99002Z" fill="#0000FF"/>
<path d="M6.13012 4.84002C6.21012 4.98002 6.37012 5.05002 6.54012 5.05002C6.62012 5.05002 6.70012 5.03002 6.77012 5.00002C6.99012 4.89002 7.07012 4.63002 6.94012 4.43002L5.07012 1.49002C4.94012 1.29002 4.66012 1.22002 4.43012 1.33002C4.21012 1.44002 4.13012 1.70002 4.26012 1.90002L6.13012 4.84002Z" fill="#0000FF"/>
<path d="M14.01 21.46C13.75 21.46 13.54 21.65 13.54 21.88V24.82C13.54 25.05 13.75 25.24 14.01 25.24C14.27 25.24 14.48 25.05 14.48 24.82V21.88C14.48 21.65 14.27 21.46 14.01 21.46Z" fill="#0000FF"/>
<path d="M6.77013 20.25C6.55013 20.13 6.26013 20.2 6.14013 20.41L4.27013 23.35C4.14013 23.55 4.22013 23.81 4.44013 23.92C4.51013 23.96 4.59013 23.97 4.67013 23.97C4.83013 23.97 4.99013 23.89 5.08013 23.76L6.95013 20.82C7.08013 20.62 7.00013 20.36 6.78013 20.25H6.77013Z" fill="#0000FF"/>
<path d="M21.8802 20.4C21.7502 20.2 21.4602 20.13 21.2402 20.24C21.0202 20.35 20.9402 20.61 21.0702 20.81L22.9402 23.76C23.0202 23.89 23.1802 23.97 23.3502 23.97C23.4302 23.97 23.5102 23.95 23.5802 23.91C23.8002 23.8 23.8802 23.54 23.7502 23.34L21.8802 20.4Z" fill="#0000FF"/>
</g>
</g>
<defs>
<clipPath id="clip0_1_460">
<rect width="28.01" height="25.24" fill="white"/>
</clipPath>
</defs>
</svg>
