<svg width="25" height="25" viewBox="0 0 25 25" fill="none" xmlns="http://www.w3.org/2000/svg">
<g clip-path="url(#clip0_1_482)">
<mask id="mask0_1_482" style="mask-type:luminance" maskUnits="userSpaceOnUse" x="0" y="0" width="25" height="25">
<path d="M24.88 0H0V24.88H24.88V0Z" fill="white"/>
</mask>
<g mask="url(#mask0_1_482)">
<path d="M23.52 6.79C23.42 6.59 23.16 6.51 22.96 6.61C22.76 6.71 22.67 6.97 22.78 7.17C23.61 8.78 24.05 10.61 24.05 12.44C24.05 18.84 18.84 24.05 12.44 24.05C6.04 24.05 0.83 18.84 0.83 12.44C0.83 6.04 6.04 0.83 12.44 0.83C14.27 0.83 16.1 1.27 17.71 2.1C17.91 2.2 18.16 2.12 18.27 1.92C18.38 1.72 18.29 1.47 18.09 1.36C16.36 0.47 14.4 0 12.44 0C5.58 0 0 5.58 0 12.44C0 19.3 5.58 24.88 12.44 24.88C19.3 24.88 24.88 19.3 24.88 12.44C24.88 10.47 24.41 8.52 23.52 6.79Z" fill="#0000FF"/>
<path d="M17.0599 6.05002C17.1799 5.86002 17.1299 5.60002 16.9399 5.48002C15.5999 4.61002 14.0499 4.15002 12.4499 4.15002C7.87991 4.15002 4.15991 7.87002 4.15991 12.44C4.15991 17.01 7.87991 20.73 12.4499 20.73C17.0199 20.73 20.7399 17.01 20.7399 12.44C20.7399 10.83 20.2799 9.28002 19.4099 7.95002C19.2899 7.76002 19.0299 7.70002 18.8399 7.83002C18.6499 7.95002 18.5899 8.21002 18.7199 8.40002C19.4999 9.60002 19.9099 11 19.9099 12.45C19.9099 16.57 16.5599 19.91 12.4499 19.91C8.33991 19.91 4.98991 16.56 4.98991 12.45C4.98991 8.34002 8.32991 4.98002 12.4499 4.98002C13.8899 4.98002 15.2899 5.39002 16.4999 6.17002C16.6899 6.29002 16.9499 6.24002 17.0699 6.05002H17.0599Z" fill="#0000FF"/>
<path d="M12.44 9.12003C12.81 9.12003 13.16 9.18003 13.49 9.29003C13.71 9.36003 13.94 9.25003 14.02 9.03003C14.09 8.81003 13.98 8.58003 13.76 8.50003C13.34 8.35003 12.89 8.28003 12.43 8.28003C10.14 8.28003 8.28003 10.14 8.28003 12.43C8.28003 14.72 10.14 16.58 12.43 16.58C14.72 16.58 16.58 14.72 16.58 12.43C16.58 11.97 16.51 11.52 16.36 11.1C16.29 10.88 16.05 10.77 15.83 10.84C15.61 10.91 15.5 11.15 15.57 11.37C15.69 11.7 15.74 12.06 15.74 12.42C15.74 14.25 14.25 15.74 12.42 15.74C10.59 15.74 9.10003 14.25 9.10003 12.42C9.10003 10.59 10.59 9.10003 12.42 9.10003" fill="#0000FF"/>
<path d="M19.07 3.49006L21.14 1.42006V3.15006L19.07 5.22006V3.49006ZM21.73 3.73006H23.46L21.39 5.80006H19.66L21.73 3.73006ZM18.24 6.05006L12.14 12.1501C11.98 12.3101 11.98 12.5701 12.14 12.7401C12.22 12.8201 12.33 12.8601 12.43 12.8601C12.53 12.8601 12.64 12.8201 12.73 12.7401L18.83 6.64006H21.56C21.67 6.64006 21.78 6.59006 21.85 6.52006L24.75 3.62006C24.87 3.50006 24.9 3.32006 24.84 3.17006C24.78 3.02006 24.62 2.91006 24.46 2.91006H21.97V0.42006C21.97 0.25006 21.87 0.10006 21.71 0.0400597C21.55 -0.0299403 21.38 0.0100597 21.26 0.13006L18.36 3.03006C18.28 3.11006 18.24 3.21006 18.24 3.33006V6.06006V6.05006Z" fill="#0000FF"/>
</g>
</g>
<defs>
<clipPath id="clip0_1_482">
<rect width="24.88" height="24.88" fill="white"/>
</clipPath>
</defs>
</svg>
