<svg width="43" height="37" viewBox="0 0 43 37" fill="none" xmlns="http://www.w3.org/2000/svg">
<path d="M4.12946 0.896759C2.32067 0.896759 0.834715 2.38271 0.834715 4.19305V17.3797C0.834715 19.1901 2.32067 20.676 4.12946 20.676H5.51192L5.54127 26.3279C5.54436 26.8485 5.9676 27.2671 6.48814 27.264C6.78935 27.2624 7.07202 27.1172 7.24811 26.8716L11.6596 20.676H14.9544V26.799C14.9544 28.6094 16.4403 30.0953 18.2491 30.0953H31.4266L35.8396 36.2909C36.1424 36.7142 36.7309 36.8099 37.1526 36.5072C37.3982 36.3311 37.5434 36.0484 37.5449 35.7472L37.5743 30.0953H38.9567C40.7655 30.0953 42.2515 28.6094 42.2515 26.799V13.6123C42.2515 11.802 40.7655 10.3161 38.9567 10.3161H28.1318V4.19305C28.1318 2.38426 26.6474 0.896759 24.8371 0.896759H4.12946ZM4.12946 2.77969H24.8371C25.6357 2.77969 26.2504 3.39446 26.2504 4.19305V10.3161H18.2491C16.4403 10.3161 14.9544 11.802 14.9544 13.6123V18.7931H11.1746C10.8734 18.79 10.5892 18.9321 10.41 19.1746L7.40876 23.3838L7.39486 19.7199C7.38713 19.2055 6.96699 18.7931 6.45262 18.7931H4.12946C3.33087 18.7931 2.71765 18.1783 2.71765 17.3797V4.19305C2.71765 3.39446 3.33087 2.77969 4.12946 2.77969ZM18.2491 12.199H38.9567C39.7553 12.199 40.3686 12.8122 40.3686 13.6123V26.799C40.3686 27.5976 39.7553 28.2109 38.9567 28.2109H36.6336C36.1192 28.2109 35.7006 28.6248 35.6913 29.1392L35.6774 32.8031L32.6777 28.5939C32.4986 28.3514 32.2143 28.2093 31.9116 28.2109H18.2491C17.4505 28.2109 16.8373 27.5976 16.8373 26.799V13.6123C16.8373 12.8122 17.4505 12.199 18.2491 12.199Z" fill="#F55C1C"/>
<path d="M19.2848 16.5443H37.6384" stroke="#F55C1C" stroke-width="0.75"/>
<path d="M19.2848 20.1227H37.6384" stroke="#F55C1C" stroke-width="0.75"/>
<path d="M19.2848 23.7015H37.6384" stroke="#F55C1C" stroke-width="0.75"/>
</svg>
