<svg width="45" height="34" viewBox="0 0 45 34" fill="none" xmlns="http://www.w3.org/2000/svg">
<path d="M17.5033 12.0257H31.6295" stroke="#0000FF" stroke-width="0.75"/>
<path d="M7.09646 18.9824H31.6293" stroke="#0000FF" stroke-width="0.75"/>
<path d="M7.09646 25.4558H31.6293" stroke="#0000FF" stroke-width="0.75"/>
<path d="M4.99799 4.85957C2.61762 4.85957 0.688293 6.78735 0.688293 9.16618V28.7097C0.688293 31.0885 2.61762 33.0178 4.99799 33.0178H8.73461H16.2526H35.1628C37.5432 33.0178 39.4725 31.0885 39.4725 28.7097V9.16618C39.4725 6.78735 37.5432 4.85957 35.1628 4.85957H4.99799Z" stroke="#0000FF" stroke-width="0.665"/>
<path d="M14.5199 12.4463C14.2929 12.2207 14.0086 12.1064 13.6657 12.1064C13.0247 12.1064 12.6895 12.3721 12.6586 12.9035C12.4392 12.6069 12.3311 12.247 12.3311 11.8253C12.3311 10.8722 12.9783 10.2234 14.2743 9.88051C14.4612 9.83263 14.5555 9.75539 14.5555 9.64572C14.5555 9.5206 14.469 9.45727 14.2975 9.45727C13.8912 9.45727 13.3614 9.638 12.7049 9.99636C11.7997 10.4968 11.3471 11.3325 11.3471 12.5049C11.3471 13.146 11.5387 13.6696 11.9202 14.0759C12.3033 14.4822 12.7837 14.6845 13.3614 14.6845C13.7831 14.6845 14.1368 14.5486 14.4257 14.2736C14.7146 14.0018 14.8598 13.6696 14.8598 13.2788C14.8598 12.9498 14.7455 12.6733 14.5199 12.4463ZM10.2118 12.4463C9.9847 12.2207 9.70048 12.1064 9.35756 12.1064C8.73196 12.1064 8.40448 12.3721 8.37359 12.9035C8.15424 12.6069 8.04611 12.2547 8.04611 11.8485C8.04611 10.8799 8.68562 10.2234 9.96617 9.88051C10.1531 9.83263 10.2473 9.75539 10.2473 9.64572C10.2473 9.5206 10.1608 9.45727 9.98934 9.45727C9.59853 9.45727 9.07642 9.638 8.41993 9.99636C7.51474 10.4968 7.06214 11.3248 7.06214 12.4818C7.06214 13.1228 7.24905 13.6496 7.62441 14.0635C7.99823 14.4775 8.48172 14.6845 9.07642 14.6845C9.48113 14.6845 9.82869 14.5486 10.1175 14.2736C10.4064 14.0018 10.5516 13.6696 10.5516 13.2788C10.5516 12.9498 10.4373 12.6733 10.2118 12.4463Z" fill="#0000FF"/>
<path d="M38.8713 12.3726C41.9962 12.3726 44.5295 9.83621 44.5295 6.7082C44.5295 3.5802 41.9962 1.04535 38.8713 1.04535C35.7464 1.04535 33.2131 3.5802 33.2131 6.7082C33.2131 9.83621 35.7464 12.3726 38.8713 12.3726Z" fill="#F0EDED"/>
<path d="M38.7884 12.1211C41.8515 12.1211 44.3339 9.63568 44.3339 6.56946C44.3339 3.50324 41.8515 1.01782 38.7884 1.01782C35.7253 1.01782 33.243 3.50324 33.243 6.56946C33.243 9.63568 35.7253 12.1211 38.7884 12.1211Z" stroke="#0000FF" stroke-width="0.75"/>
<path d="M40.9297 4.45795V4.45949L37.8898 7.66937L36.6617 6.78889C36.4053 6.60507 36.05 6.66377 35.8647 6.91865C35.6809 7.17661 35.7396 7.53343 35.9975 7.71725H35.9944L37.6287 8.88968C37.8712 9.06268 38.2095 9.01943 38.4011 8.78927L41.7561 5.2442C41.9724 5.01713 41.9647 4.65412 41.7376 4.43787C41.5075 4.22006 41.1475 4.23088 40.9297 4.45795Z" fill="#0000FF"/>
</svg>
