<svg width="61" height="76" viewBox="0 0 61 76" fill="none" xmlns="http://www.w3.org/2000/svg">
<g clip-path="url(#clip0_1_235)">
<path d="M30.5052 7.82007C31.1996 7.82007 31.767 7.25492 31.767 6.56179V1.53299C31.767 0.842733 31.1996 0.277587 30.5052 0.277587C29.8109 0.277587 29.2434 0.842733 29.2434 1.53299V6.56179C29.2434 7.25492 29.8109 7.82007 30.5052 7.82007Z" fill="#E26634"/>
<path d="M30.5052 7.82007C31.1996 7.82007 31.767 7.25492 31.767 6.56179V1.53299C31.767 0.842733 31.1996 0.277587 30.5052 0.277587C29.8109 0.277587 29.2434 0.842733 29.2434 1.53299V6.56179C29.2434 7.25492 29.8109 7.82007 30.5052 7.82007Z" stroke="#F4EBE0" stroke-width="0.2"/>
<path d="M59.5028 29.1924H54.4591C53.7676 29.1924 53.198 29.7575 53.198 30.4506C53.198 31.1402 53.7676 31.7053 54.4591 31.7053H59.5028C60.1971 31.7053 60.7646 31.1402 60.7646 30.4506C60.7646 29.7575 60.1971 29.1924 59.5028 29.1924Z" fill="#E26634"/>
<path d="M59.5028 29.1924H54.4591C53.7676 29.1924 53.198 29.7575 53.198 30.4506C53.198 31.1402 53.7676 31.7053 54.4591 31.7053H59.5028C60.1971 31.7053 60.7646 31.1402 60.7646 30.4506C60.7646 29.7575 60.1971 29.1924 59.5028 29.1924Z" stroke="#F4EBE0" stroke-width="0.2"/>
<path d="M6.55075 29.1924H1.50707C0.815594 29.1924 0.245972 29.7575 0.245972 30.4506C0.245972 31.1402 0.815594 31.7053 1.50707 31.7053H6.55075C7.24511 31.7053 7.81257 31.1402 7.81257 30.4506C7.81257 29.7575 7.24511 29.1924 6.55075 29.1924Z" fill="#E26634"/>
<path d="M6.55075 29.1924H1.50707C0.815594 29.1924 0.245972 29.7575 0.245972 30.4506C0.245972 31.1402 0.815594 31.7053 1.50707 31.7053H6.55075C7.24511 31.7053 7.81257 31.1402 7.81257 30.4506C7.81257 29.7575 7.24511 29.1924 6.55075 29.1924Z" stroke="#F4EBE0" stroke-width="0.2"/>
<path d="M50.1221 9.11473L46.553 12.6739C46.0634 13.1621 46.0634 13.9559 46.553 14.4441C46.8061 14.6957 47.1226 14.8101 47.45 14.8101C47.7773 14.8101 48.0917 14.6828 48.344 14.4441L51.9132 10.8878C52.4028 10.3967 52.4028 9.60582 51.9132 9.11473C51.4207 8.62364 50.6254 8.62364 50.1351 9.11473H50.1221Z" fill="#E26634"/>
<path d="M50.1221 9.11473L46.553 12.6739C46.0634 13.1621 46.0634 13.9559 46.553 14.4441C46.8061 14.6957 47.1226 14.8101 47.45 14.8101C47.7773 14.8101 48.0917 14.6828 48.344 14.4441L51.9132 10.8878C52.4028 10.3967 52.4028 9.60582 51.9132 9.11473C51.4207 8.62364 50.6254 8.62364 50.1351 9.11473H50.1221Z" stroke="#F4EBE0" stroke-width="0.2"/>
<path d="M12.6783 46.4543L9.10913 50.0135C8.61955 50.5017 8.61955 51.2955 9.10913 51.7837C9.36222 52.0353 9.67875 52.1497 10.0061 52.1497C10.3335 52.1497 10.6478 52.0253 10.9002 51.7837L14.4693 48.2274C14.9589 47.7363 14.9589 46.9454 14.4693 46.4543C13.9769 45.9632 13.1816 45.9632 12.6913 46.4543H12.6783Z" fill="#E26634"/>
<path d="M12.6783 46.4543L9.10913 50.0135C8.61955 50.5017 8.61955 51.2955 9.10913 51.7837C9.36222 52.0353 9.67875 52.1497 10.0061 52.1497C10.3335 52.1497 10.6478 52.0253 10.9002 51.7837L14.4693 48.2274C14.9589 47.7363 14.9589 46.9454 14.4693 46.4543C13.9769 45.9632 13.1816 45.9632 12.6913 46.4543H12.6783Z" stroke="#F4EBE0" stroke-width="0.2"/>
<path d="M48.3325 46.4543C47.84 45.9632 47.0469 45.9632 46.5544 46.4543C46.0619 46.9454 46.0619 47.7363 46.5544 48.2274L50.1236 51.7837C50.3738 52.0353 50.6903 52.1497 51.0177 52.1497C51.345 52.1497 51.6623 52.0253 51.9125 51.7837C52.4042 51.2955 52.4042 50.5017 51.9125 50.0135L48.3455 46.4543H48.3325Z" fill="#E26634"/>
<path d="M48.3325 46.4543C47.84 45.9632 47.0469 45.9632 46.5544 46.4543C46.0619 46.9454 46.0619 47.7363 46.5544 48.2274L50.1236 51.7837C50.3738 52.0353 50.6903 52.1497 51.0177 52.1497C51.345 52.1497 51.6623 52.0253 51.9125 51.7837C52.4042 51.2955 52.4042 50.5017 51.9125 50.0135L48.3455 46.4543H48.3325Z" stroke="#F4EBE0" stroke-width="0.2"/>
<path d="M12.6782 14.4453C12.9313 14.6976 13.245 14.8091 13.5723 14.8091C13.9025 14.8091 14.2169 14.684 14.4693 14.4453C14.9589 13.9542 14.9589 13.1633 14.4693 12.6722L10.9001 9.11591C10.4077 8.62482 9.61524 8.62482 9.12277 9.11591C8.6303 9.60412 8.6303 10.3979 9.12277 10.8861L12.6912 14.4453H12.6782Z" fill="#E26634"/>
<path d="M12.6782 14.4453C12.9313 14.6976 13.245 14.8091 13.5723 14.8091C13.9025 14.8091 14.2169 14.684 14.4693 14.4453C14.9589 13.9542 14.9589 13.1633 14.4693 12.6722L10.9001 9.11591C10.4077 8.62482 9.61524 8.62482 9.12277 9.11591C8.6303 9.60412 8.6303 10.3979 9.12277 10.8861L12.6912 14.4453H12.6782Z" stroke="#F4EBE0" stroke-width="0.2"/>
<path d="M50.6773 30.45C50.6773 24.9057 48.458 19.7388 44.436 15.9036C40.4147 12.0684 35.1187 10.1098 29.5479 10.3593C19.1974 10.8367 10.7634 19.2981 10.3452 29.6325C10.1195 35.3041 12.3122 40.8348 16.3738 44.7951C18.7049 47.0694 20.0915 49.9857 20.3554 53.0803C18.9955 53.1048 17.8851 54.2243 17.8851 55.594V58.1099C17.8851 59.4925 19.0193 60.6235 20.4059 60.6235V63.1365H19.1469C18.4526 63.1365 17.8851 63.7045 17.8851 64.3948C17.8851 65.0872 18.4526 65.6523 19.1469 65.6523H20.4059V66.9106C20.4059 68.9835 22.109 70.6819 24.1906 70.6819H24.3154C24.8958 73.5479 27.4425 75.7085 30.4925 75.7085C33.5425 75.7085 36.0791 73.5479 36.6697 70.6819H36.798C38.876 70.6819 40.5799 68.9835 40.5799 66.9106V65.6523H41.8388C42.5332 65.6523 43.0999 65.0872 43.0999 64.3948C43.0999 63.7045 42.5332 63.1365 41.8388 63.1365H40.5799V60.6235C41.9664 60.6235 43.0999 59.4925 43.0999 58.1099V55.594C43.0999 54.2243 42.0039 53.1177 40.6412 53.0803C40.918 49.9993 42.3313 47.0586 44.7266 44.6937C48.5589 40.8988 50.6773 35.8297 50.6773 30.4371V30.45ZM30.5062 73.1948C28.8666 73.1948 27.4533 72.1386 26.9371 70.6819H34.0725C33.5562 72.1386 32.156 73.1948 30.5062 73.1948ZM38.0699 66.9077C38.0699 67.6009 37.5032 68.166 36.8088 68.166H24.2014C23.5092 68.166 22.9425 67.6009 22.9425 66.9077V65.6523H38.0699V66.9077ZM38.0699 63.1365H22.9425V60.6235H38.0699V63.1365ZM39.3317 58.107H20.4189V55.594H40.59V58.107H39.3317ZM38.1074 53.0803H22.9021C22.6252 49.3091 20.9618 45.7636 18.149 43.0084C14.5957 39.5398 12.6799 34.6987 12.8789 29.7332C13.2467 20.6937 20.6215 13.2892 29.6734 12.8751C34.5649 12.6472 39.1796 14.3692 42.6954 17.727C46.2141 21.0841 48.1544 25.5959 48.1544 30.463C48.1544 35.3278 46.302 39.6009 42.9485 42.9343C40.0874 45.7744 38.3843 49.3465 38.1074 53.0911V53.0803Z" fill="#E26634"/>
<path d="M50.6773 30.45C50.6773 24.9057 48.458 19.7388 44.436 15.9036C40.4147 12.0684 35.1187 10.1098 29.5479 10.3593C19.1974 10.8367 10.7634 19.2981 10.3452 29.6325C10.1195 35.3041 12.3122 40.8348 16.3738 44.7951C18.7049 47.0694 20.0915 49.9857 20.3554 53.0803C18.9955 53.1048 17.8851 54.2243 17.8851 55.594V58.1099C17.8851 59.4925 19.0193 60.6235 20.4059 60.6235V63.1365H19.1469C18.4526 63.1365 17.8851 63.7045 17.8851 64.3948C17.8851 65.0872 18.4526 65.6523 19.1469 65.6523H20.4059V66.9106C20.4059 68.9835 22.109 70.6819 24.1906 70.6819H24.3154C24.8958 73.5479 27.4425 75.7085 30.4925 75.7085C33.5425 75.7085 36.0791 73.5479 36.6697 70.6819H36.798C38.876 70.6819 40.5799 68.9835 40.5799 66.9106V65.6523H41.8388C42.5332 65.6523 43.0999 65.0872 43.0999 64.3948C43.0999 63.7045 42.5332 63.1365 41.8388 63.1365H40.5799V60.6235C41.9664 60.6235 43.0999 59.4925 43.0999 58.1099V55.594C43.0999 54.2243 42.0039 53.1177 40.6412 53.0803C40.918 49.9993 42.3313 47.0586 44.7266 44.6937C48.5589 40.8988 50.6773 35.8297 50.6773 30.4371V30.45ZM30.5062 73.1948C28.8666 73.1948 27.4533 72.1386 26.9371 70.6819H34.0725C33.5562 72.1386 32.156 73.1948 30.5062 73.1948ZM38.0699 66.9077C38.0699 67.6009 37.5032 68.166 36.8088 68.166H24.2014C23.5092 68.166 22.9425 67.6009 22.9425 66.9077V65.6523H38.0699V66.9077ZM38.0699 63.1365H22.9425V60.6235H38.0699V63.1365ZM39.3317 58.107H20.4189V55.594H40.59V58.107H39.3317ZM38.1074 53.0803H22.9021C22.6252 49.3091 20.9618 45.7636 18.149 43.0084C14.5957 39.5398 12.6799 34.6987 12.8789 29.7332C13.2467 20.6937 20.6215 13.2892 29.6734 12.8751C34.5649 12.6472 39.1796 14.3692 42.6954 17.727C46.2141 21.0841 48.1544 25.5959 48.1544 30.463C48.1544 35.3278 46.302 39.6009 42.9485 42.9343C40.0874 45.7744 38.3843 49.3465 38.1074 53.0911V53.0803Z" stroke="#F4EBE0" stroke-width="0.2"/>
<path d="M35.5482 26.6787C33.4673 26.6787 31.7663 28.377 31.7663 30.45V31.7082H29.2434V30.45C29.2434 28.377 27.5425 26.6787 25.4615 26.6787C23.3828 26.6787 21.6797 28.377 21.6797 30.45C21.6797 32.5258 23.3828 34.2212 25.4615 34.2212H26.7226V49.3091C26.7226 49.9993 27.2894 50.5645 27.9845 50.5645C28.6759 50.5645 29.2434 49.9993 29.2434 49.3091V34.2212H31.7663V49.3091C31.7663 49.9993 32.3331 50.5645 33.0281 50.5645C33.7196 50.5645 34.2864 49.9993 34.2864 49.3091V34.2212H35.5482C37.6291 34.2212 39.33 32.5258 39.33 30.45C39.33 28.377 37.6291 26.6787 35.5482 26.6787ZM24.2026 30.45C24.2026 29.7597 24.7693 29.1917 25.4637 29.1917C26.1559 29.1917 26.7226 29.7597 26.7226 30.45V31.7082H25.4637C24.7693 31.7082 24.2026 31.1424 24.2026 30.45ZM35.5482 31.7082H34.2864V30.45C34.2864 29.7597 34.8538 29.1917 35.5482 29.1917C36.2425 29.1917 36.81 29.7597 36.81 30.45C36.81 31.1424 36.2425 31.7082 35.5482 31.7082Z" fill="#E26634"/>
<path d="M35.5482 26.6787C33.4673 26.6787 31.7663 28.377 31.7663 30.45V31.7082H29.2434V30.45C29.2434 28.377 27.5425 26.6787 25.4615 26.6787C23.3828 26.6787 21.6797 28.377 21.6797 30.45C21.6797 32.5258 23.3828 34.2212 25.4615 34.2212H26.7226V49.3091C26.7226 49.9993 27.2894 50.5645 27.9845 50.5645C28.6759 50.5645 29.2434 49.9993 29.2434 49.3091V34.2212H31.7663V49.3091C31.7663 49.9993 32.3331 50.5645 33.0281 50.5645C33.7196 50.5645 34.2864 49.9993 34.2864 49.3091V34.2212H35.5482C37.6291 34.2212 39.33 32.5258 39.33 30.45C39.33 28.377 37.6291 26.6787 35.5482 26.6787ZM24.2026 30.45C24.2026 29.7597 24.7693 29.1917 25.4637 29.1917C26.1559 29.1917 26.7226 29.7597 26.7226 30.45V31.7082H25.4637C24.7693 31.7082 24.2026 31.1424 24.2026 30.45ZM35.5482 31.7082H34.2864V30.45C34.2864 29.7597 34.8538 29.1917 35.5482 29.1917C36.2425 29.1917 36.81 29.7597 36.81 30.45C36.81 31.1424 36.2425 31.7082 35.5482 31.7082Z" stroke="#F4EBE0" stroke-width="0.2"/>
</g>
<defs>
<clipPath id="clip0_1_235">
<rect width="61" height="76" fill="white"/>
</clipPath>
</defs>
</svg>
