<svg width="20" height="20" viewBox="0 0 20 20" fill="none" xmlns="http://www.w3.org/2000/svg">
<g clip-path="url(#clip0_1_1700)">
<mask id="mask0_1_1700" style="mask-type:luminance" maskUnits="userSpaceOnUse" x="0" y="0" width="20" height="20">
<path d="M20 0H0V20H20V0Z" fill="white"/>
</mask>
<g mask="url(#mask0_1_1700)">
<path d="M19.3474 6.48421C19.7684 7.6 20 8.8 20 10C20 15.5158 15.5158 20 10 20C4.48421 20 0 15.5158 0 10C0 4.48421 4.48421 0 10 0C12.6105 0 15.0947 1.01053 16.9895 2.84211C17.2632 3.09474 17.2632 3.51579 16.9895 3.78947C16.7368 4.04211 16.3158 4.06316 16.0421 3.78947C14.4 2.21053 12.2526 1.32632 9.97895 1.32632C5.22105 1.32632 1.32632 5.22105 1.32632 10C1.32632 14.7789 5.22105 18.6737 10 18.6737C14.7789 18.6737 18.6737 14.7789 18.6737 10C18.6737 8.94737 18.4842 7.91579 18.1263 6.94737C18 6.61053 18.1684 6.21053 18.5053 6.08421C18.8421 5.9579 19.2211 6.12632 19.3474 6.48421Z" fill="#F55C1C"/>
</g>
</g>
<defs>
<clipPath id="clip0_1_1700">
<rect width="20" height="20" fill="white"/>
</clipPath>
</defs>
</svg>
