<svg width="81" height="64" viewBox="0 0 81 64" fill="none" xmlns="http://www.w3.org/2000/svg">
<g clip-path="url(#clip0_1_236)">
<path d="M71.0459 24.2736C71.0039 23.9096 70.7869 23.5907 70.4637 23.4297C70.3506 23.373 67.7693 22.0969 64.0677 21.2216L63.8033 18.6723C63.7468 18.0875 63.3976 17.5931 62.8634 17.3478C60.6222 16.3169 49.0728 11.5005 40.3469 17.1562C31.618 11.5005 20.074 16.3169 17.8221 17.3478C17.2872 17.5992 16.9379 18.0875 16.8822 18.6639L16.617 21.2216C13.5321 21.9612 11.2129 22.966 10.5428 23.2826C10.0079 23.534 9.6617 24.0222 9.60515 24.6009L6.44692 54.9584C6.39113 55.5347 6.64101 56.0881 7.10332 56.4269C7.55341 56.7688 8.14716 56.8477 8.67901 56.63C8.89908 56.5396 9.11839 56.4576 9.34381 56.3786L8.75236 62.1049C8.69047 62.7227 8.94646 63.3129 9.44774 63.6831C9.75493 63.9084 10.121 64.0249 10.4862 64.0249C10.7201 64.0249 10.9539 63.9766 11.1762 63.8777C23.2659 58.7447 38.1622 61.8389 39.919 62.2291C40.0657 62.285 40.2201 62.3111 40.3722 62.3019C40.4929 62.3019 40.6167 62.2766 40.7298 62.2375C42.323 61.8788 57.3462 58.7141 69.5062 63.8777C70.0808 64.123 70.7311 64.0502 71.2293 63.6746C71.7329 63.3106 71.992 62.7173 71.924 62.0934L71.3333 56.3671C71.8514 56.5542 72.3465 56.7626 72.8218 56.9857C72.9685 57.0478 73.1237 57.0815 73.275 57.0815C73.495 57.0815 73.706 57.0194 73.8916 56.8899C74.2103 56.6699 74.37 56.2966 74.328 55.9157L71.0459 24.2736ZM61.7172 19.1659L62.0412 22.2693V22.2946L62.2322 24.1778L64.7516 48.4028C60.2172 46.6322 55.3251 46.1126 51.1054 46.1126C46.7987 46.1126 43.1957 46.6575 41.374 46.9963L41.3801 19.0195C48.907 14.0329 59.1443 18.02 61.7172 19.1659ZM39.2603 18.9881V46.9909C35.6069 46.3187 25.0479 44.8563 15.9331 48.4028L18.6527 22.1957L18.9675 19.1575C21.5488 18.02 31.7388 14.0582 39.2603 18.9881ZM40.3439 60.1565C38.3028 59.7105 23.3981 56.689 10.9287 61.6925L11.5537 55.7064C22.841 52.8153 39.9244 56.3786 40.1047 56.4185C40.1781 56.4353 40.2484 56.4438 40.3217 56.4438H40.3691C40.4425 56.4438 40.5158 56.4353 40.5892 56.4185C40.7665 56.3786 57.8414 52.8215 69.1401 55.7064L69.7622 61.6925C57.3012 56.6867 42.3849 59.7105 40.3439 60.1565ZM70.4323 53.8432C70.4239 53.8432 70.4239 53.8432 70.4323 53.8432C70.4239 53.8432 70.4155 53.8347 70.4071 53.8347C59.1535 50.6102 42.4468 53.8493 40.3439 54.2808C38.2387 53.8493 21.5351 50.6102 10.2868 53.8347C10.2784 53.8347 10.2784 53.8347 10.2723 53.8432H10.2616C9.71825 53.9987 9.18564 54.1681 8.65149 54.3628L11.6966 25.0953C12.46 24.7534 14.1687 24.0536 16.3946 23.4719L13.7461 48.9953C13.6842 49.5801 13.9234 50.1335 14.3964 50.4807C14.8579 50.8248 15.4799 50.8953 16.0064 50.6669C26.0275 46.4146 38.354 48.9393 39.9328 49.2949C40.0932 49.357 40.2652 49.3823 40.4257 49.3685C40.5242 49.357 40.6282 49.3425 40.7267 49.3034C42.1289 48.9868 54.5793 46.3785 64.6959 50.6784C64.9068 50.7658 65.1261 50.8079 65.3431 50.8079C65.6923 50.8079 66.0323 50.6922 66.3258 50.4837C66.7873 50.1365 67.0288 49.5831 66.973 49.0067L64.3604 23.9601L64.313 23.4803C66.4916 24.059 68.1888 24.745 69.008 25.1037L72.0455 54.3659C71.5159 54.1766 70.984 54.0102 70.4323 53.8432Z" fill="#E26634"/>
<path d="M23.455 24.137H35.7395C36.3218 24.137 36.8001 23.6572 36.8001 23.0754C36.8001 22.4906 36.3218 22.0108 35.7395 22.0108L23.455 22.0077C22.872 22.0077 22.3967 22.4883 22.3967 23.07C22.3913 23.6572 22.8635 24.137 23.455 24.137Z" fill="#E26634"/>
<path d="M22.7966 30.1812H35.0811C35.6634 30.1812 36.1418 29.7013 36.1418 29.1196C36.1418 28.5348 35.6634 28.055 35.0811 28.055L22.7966 28.0527C22.2136 28.0527 21.7383 28.5325 21.7383 29.1142C21.7383 29.7013 22.2082 30.1812 22.7966 30.1812Z" fill="#E26634"/>
<path d="M22.1326 36.2209H34.4171C34.9993 36.2209 35.4777 35.7411 35.4777 35.1594C35.4777 34.5746 34.9993 34.0948 34.4171 34.0948L22.1326 34.0925C21.5495 34.0925 21.0742 34.5723 21.0742 35.154C21.0742 35.7411 21.5495 36.2209 22.1326 36.2209Z" fill="#E26634"/>
<path d="M21.4784 42.2649H33.7629C34.3452 42.2649 34.8235 41.7851 34.8235 41.2033C34.8235 40.6185 34.3452 40.1387 33.7629 40.1387L21.4784 40.1364C20.8953 40.1364 20.42 40.6162 20.42 41.198C20.42 41.7851 20.8953 42.2649 21.4784 42.2649Z" fill="#E26634"/>
<path d="M45.1458 24.137H57.4302C58.0125 24.137 58.4909 23.6572 58.4909 23.0754C58.4909 22.4906 58.0125 22.0108 57.4302 22.0108L45.1458 22.0077C44.5627 22.0077 44.0874 22.4883 44.0874 23.07C44.0874 23.6572 44.5543 24.137 45.1458 24.137Z" fill="#E26634"/>
<path d="M45.8008 28.0428C45.2177 28.0428 44.7424 28.5226 44.7424 29.1043C44.7424 29.6891 45.2177 30.1689 45.8008 30.1689H58.0853C58.6676 30.1689 59.1459 29.6891 59.1459 29.1043C59.1459 28.5226 58.6676 28.0428 58.0853 28.0428H45.8008Z" fill="#E26634"/>
<path d="M46.4583 34.0923C45.8752 34.0923 45.3999 34.5721 45.3999 35.1539C45.3999 35.7387 45.8752 36.2185 46.4583 36.2185H58.7427C59.325 36.2185 59.8034 35.7387 59.8034 35.1539C59.8034 34.5721 59.325 34.0923 58.7427 34.0923H46.4583Z" fill="#E26634"/>
<path d="M47.1133 40.136C46.5302 40.136 46.0549 40.6158 46.0549 41.1976C46.0549 41.7824 46.5302 42.2622 47.1133 42.2622H59.3978C59.9801 42.2622 60.4584 41.7824 60.4584 41.1976C60.4584 40.6158 59.9801 40.136 59.3978 40.136H47.1133Z" fill="#E26634"/>
<path d="M40.838 11.1838C41.4211 11.1838 41.8964 10.704 41.8964 10.1223V3.63414C41.8964 3.04932 41.4211 2.56951 40.838 2.56951C40.2557 2.56951 39.7797 3.04932 39.7797 3.63414V10.1223C39.7797 10.704 40.2557 11.1838 40.838 11.1838Z" fill="#E26634"/>
<path d="M7.11545 23.8201L1.81224 18.5008C1.39578 18.0854 0.72562 18.0854 0.312214 18.5008C-0.101956 18.9155 -0.101956 19.5877 0.312214 20.0031L5.61542 25.3247C5.82938 25.537 6.09378 25.6328 6.36964 25.6328C6.6455 25.6328 6.91295 25.5286 7.1208 25.3247C7.53497 24.907 7.53497 24.2355 7.11545 23.8201Z" fill="#E26634"/>
<path d="M80.6675 19.3852C80.2534 18.9698 79.584 18.9698 79.1675 19.3852L74.7476 23.8207C74.3312 24.2362 74.3312 24.9076 74.7476 25.323C74.9593 25.5376 75.2237 25.6304 75.4996 25.6304C75.7754 25.6304 76.0429 25.5261 76.2507 25.323L80.6729 20.8898C81.0786 20.4835 81.0786 19.806 80.6675 19.3852Z" fill="#E26634"/>
<path d="M18.1918 8.90953C18.3691 9.30502 18.7573 9.55029 19.163 9.55029C19.309 9.55029 19.4473 9.51963 19.5933 9.46292C20.1282 9.22531 20.3765 8.60141 20.1366 8.05645L17.1984 1.33147C16.9646 0.794939 16.3426 0.543538 15.7962 0.783442C15.2643 1.02105 15.0137 1.64495 15.2529 2.18991L18.1918 8.90953Z" fill="#E26634"/>
<path d="M61.444 8.66568C61.5731 8.71396 61.703 8.73926 61.8321 8.73926C62.2547 8.73926 62.6574 8.47943 62.8202 8.06707L65.4045 1.42333C65.6155 0.878372 65.348 0.262899 64.8047 0.0429231C64.2614 -0.168622 63.6478 0.0996417 63.4315 0.641534L60.8472 7.28527C60.6278 7.82716 60.8953 8.4457 61.444 8.66568Z" fill="#E26634"/>
</g>
<defs>
<clipPath id="clip0_1_236">
<rect width="81" height="64" fill="white"/>
</clipPath>
</defs>
</svg>
