<svg width="75" height="58" viewBox="0 0 75 58" fill="none" xmlns="http://www.w3.org/2000/svg">
<path d="M7.29223 21.9345C4.55967 21.9345 2.34265 24.1484 2.34265 26.8786V43.784C2.34265 46.5142 4.55967 48.7281 7.29223 48.7281H12.2418V54.3103L20.2163 48.7281H39.69C42.4234 48.7281 44.6396 46.5142 44.6396 43.784V26.8786C44.6396 24.1484 42.4234 21.9345 39.69 21.9345H7.29223Z" stroke="#E26634" stroke-width="3"/>
<path d="M67.8266 2.31048C70.5592 2.31048 72.7762 4.52435 72.7762 7.25456V24.16C72.7762 26.8902 70.5592 29.1041 67.8266 29.1041H62.8771V34.6863L54.9026 29.1041H35.4288C32.6955 29.1041 30.4792 26.8902 30.4792 24.16V7.25456C30.4792 4.52435 32.6955 2.31048 35.4288 2.31048H67.8266Z" stroke="#E26634" stroke-width="3"/>
</svg>
