<svg width="33" height="32" viewBox="0 0 33 32" fill="none" xmlns="http://www.w3.org/2000/svg">
<path d="M30.4177 8.73761C30.2839 8.47651 29.9585 8.3749 29.6974 8.50866C29.4363 8.64243 29.3295 8.96656 29.4684 9.22895C30.5347 11.3023 31.1006 13.6497 31.1006 16.0061C31.1006 24.2405 24.402 30.9391 16.1676 30.9391C7.93315 30.9391 1.23449 24.2405 1.23449 16.0061C1.23449 7.77294 7.93315 1.07428 16.1676 1.07428C18.5252 1.07428 20.8713 1.63894 22.946 2.7065C23.2071 2.83898 23.5273 2.73737 23.6663 2.47627C23.8039 2.21516 23.6971 1.89489 23.436 1.75598C21.207 0.609955 18.695 0.00671453 16.1676 0.00671453C7.34664 0.00671453 0.168213 7.18514 0.168213 16.0061C0.168213 24.8283 7.34664 32.0067 16.1676 32.0067C24.9885 32.0067 32.1669 24.8283 32.1669 16.0061C32.1669 13.4786 31.5637 10.9666 30.4177 8.73761Z" fill="#0000FF"/>
<path d="M22.1087 7.78298C22.2682 7.53731 22.1987 7.20675 21.9543 7.04725C20.2308 5.9321 18.232 5.34043 16.1727 5.34043C10.2908 5.34043 5.50607 10.1239 5.50607 16.0071C5.50607 21.889 10.2908 26.6738 16.1727 26.6738C22.0546 26.6738 26.8394 21.889 26.8394 16.0071C26.8394 13.9427 26.2465 11.9426 25.1326 10.2255C24.9718 9.97985 24.6412 9.90525 24.3969 10.0712C24.1512 10.2307 24.0766 10.5612 24.2412 10.8069C25.2445 12.3529 25.7783 14.1562 25.7783 16.0122C25.7783 21.3076 21.4746 25.6113 16.1779 25.6113C10.8825 25.6113 6.57878 21.3076 6.57878 16.0122C6.57878 10.7156 10.8709 6.40671 16.1676 6.40671C18.0236 6.40671 19.8205 6.9405 21.3729 7.94247C21.6173 8.10325 21.9492 8.03379 22.1087 7.78812V7.78298Z" fill="#0000FF"/>
<path d="M16.1676 11.7404C16.6422 11.7404 17.0949 11.815 17.522 11.9642C17.7998 12.0606 18.1033 11.9114 18.1998 11.6336C18.295 11.3558 18.1458 11.0522 17.8693 10.957C17.3303 10.7693 16.7541 10.6792 16.1624 10.6792C13.2234 10.6792 10.8297 13.0742 10.8297 16.0119C10.8297 18.9509 13.2234 21.3459 16.1624 21.3459C19.1015 21.3459 21.4951 18.9509 21.4951 16.0119C21.4951 15.4202 21.3999 14.844 21.2186 14.3051C21.1221 14.0286 20.8186 13.8793 20.5407 13.9745C20.2629 14.071 20.1137 14.3745 20.2102 14.6524C20.3594 15.0794 20.434 15.5373 20.434 16.0068C20.434 18.3593 18.5201 20.2732 16.1676 20.2732C13.8164 20.2732 11.9012 18.3593 11.9012 16.0068C11.9012 13.6555 13.8164 11.7404 16.1676 11.7404Z" fill="#0000FF"/>
<path d="M23.634 7.78862L15.7893 15.6333C15.581 15.8417 15.581 16.1774 15.7893 16.3858C15.8961 16.4925 16.0286 16.5401 16.1675 16.5401C16.3064 16.5401 16.4402 16.4861 16.5469 16.3858L24.3916 8.53978H27.9056C28.0496 8.53978 28.1834 8.4819 28.285 8.38543L32.0176 4.65281C32.172 4.49717 32.2157 4.26822 32.1347 4.07143C32.0549 3.87335 31.8581 3.74087 31.6446 3.74087H28.4445V0.540743C28.4445 0.32723 28.3172 0.130437 28.1139 0.0494052C27.912 -0.0354857 27.6869 0.0121046 27.5326 0.167738L23.7999 3.90036C23.6983 4.00198 23.6443 4.13574 23.6443 4.2798V7.79377L23.634 7.78862ZM28.1191 4.80715H30.343L27.6766 7.4735H25.4527L28.1191 4.80715ZM24.7003 4.49203L27.3666 1.82568V4.04957L24.7003 6.7172V4.49203Z" fill="#0000FF"/>
</svg>
