<svg width="35" height="36" viewBox="0 0 35 36" fill="none" xmlns="http://www.w3.org/2000/svg">
<path d="M20.0872 25.7907V33.6514C20.0872 34.5195 19.4045 35.2239 18.5611 35.2239H2.28044C1.43861 35.2239 0.754328 34.5195 0.754328 33.6514V11.6401C0.754328 9.61506 2.34841 7.97155 4.3163 7.97155H13.9827V2.20691C13.9827 1.33881 14.6655 0.634453 15.5088 0.634453H32.8059C33.6492 0.634453 34.332 1.33881 34.332 2.20691V21.5985C34.332 23.9139 32.5108 25.7907 30.2618 25.7907H20.0872ZM14.9991 7.97155H23.1394C25.3869 7.97155 27.2096 9.84985 27.2096 12.1653V21.5985C27.2096 23.3347 28.5766 24.7418 30.2618 24.7418C31.9486 24.7418 33.3141 23.3347 33.3141 21.5985V2.20691C33.3141 1.91806 33.087 1.68327 32.8059 1.68327H15.5088C15.2277 1.68327 14.9991 1.91806 14.9991 2.20691V7.97155ZM4.3163 9.02037C2.91066 9.02037 1.77225 10.1928 1.77225 11.6401V33.6514C1.77225 33.9403 1.99932 34.175 2.28044 34.175H18.5611C18.8422 34.175 19.0693 33.9403 19.0693 33.6514V12.1653C19.0693 10.9126 19.6022 9.78806 20.4471 9.02037H4.3163ZM26.1917 21.5985V12.1653C26.1917 10.4276 24.8262 9.02037 23.1394 9.02037C21.4542 9.02037 20.0872 10.4276 20.0872 12.1653V24.7418H27.5695C26.7246 23.9742 26.1917 22.8496 26.1917 21.5985ZM5.33268 15.3087C5.05155 15.3087 4.82449 15.0739 4.82449 14.785C4.82449 14.4962 5.05155 14.2614 5.33268 14.2614H15.5088C15.79 14.2614 16.017 14.4962 16.017 14.785C16.017 15.0739 15.79 15.3087 15.5088 15.3087H5.33268ZM5.33268 20.5497C5.05155 20.5497 4.82449 20.3149 4.82449 20.026C4.82449 19.7372 5.05155 19.5024 5.33268 19.5024H15.5088C15.79 19.5024 16.017 19.7372 16.017 20.026C16.017 20.3149 15.79 20.5497 15.5088 20.5497H5.33268ZM12.9648 29.9829C11.5592 29.9829 10.4208 28.8105 10.4208 27.3631C10.4208 25.9158 11.5592 24.7418 12.9648 24.7418C14.3689 24.7418 15.5088 25.9158 15.5088 27.3631C15.5088 28.8105 14.3689 29.9829 12.9648 29.9829ZM12.9648 28.9356C13.8082 28.9356 14.4909 28.2312 14.4909 27.3631C14.4909 26.495 13.8082 25.7907 12.9648 25.7907C12.1214 25.7907 11.4387 26.495 11.4387 27.3631C11.4387 28.2312 12.1214 28.9356 12.9648 28.9356Z" fill="#737880"/>
</svg>
