<svg width="32" height="32" viewBox="0 0 32 32" fill="none" xmlns="http://www.w3.org/2000/svg">
<path d="M30.9631 10.3685C31.6462 12.1612 31.9974 14.0588 31.9974 16C31.9974 24.8221 24.8201 32 15.9987 32C7.17731 32 0 24.8221 0 16C0 7.17964 7.17731 0 15.9987 0C20.1796 0 24.1474 1.61101 27.1665 4.54472C27.5928 4.95009 27.5928 5.63154 27.1875 6.04914C26.7821 6.465 26.099 6.48597 25.6832 6.07011C23.0589 3.53129 19.6258 2.13345 15.9987 2.13345C8.3514 2.13345 2.13327 8.35208 2.13327 16C2.13327 23.6479 8.3514 29.8666 15.9987 29.8666C23.646 29.8666 29.8641 23.6479 29.8641 16C29.8641 14.3261 29.5653 12.6836 28.98 11.1146C28.7651 10.5607 29.0429 9.95261 29.5985 9.73943C30.1419 9.53675 30.7604 9.81282 30.9631 10.3685ZM10.3571 15.2434C9.94131 14.8276 9.26865 14.8276 8.85283 15.2434C8.43701 15.6593 8.43701 16.3302 8.85283 16.7478L14.1851 22.0806C14.3878 22.2938 14.6551 22.4004 14.9329 22.4004C15.209 22.4004 15.4763 22.2938 15.6894 22.0911L31.6881 6.09108C32.104 5.67522 32.104 5.00251 31.6881 4.58666C31.2723 4.1708 30.5997 4.1708 30.1838 4.58666L14.9329 19.8301L10.3571 15.2434Z" fill="#F55C1C"/>
</svg>
