<svg width="41" height="42" viewBox="0 0 41 42" fill="none" xmlns="http://www.w3.org/2000/svg">
<path d="M24.1174 16.8382V16.8413L19.6302 21.6374L17.8184 20.3198C17.4399 20.0464 16.9147 20.1345 16.6429 20.516C16.371 20.9006 16.4591 21.4335 16.8375 21.7085H16.8329L19.2472 23.4586C19.604 23.7181 20.1013 23.6547 20.384 23.3103L25.3377 18.0137C25.6559 17.6738 25.6451 17.1317 25.3084 16.8088C24.9701 16.4829 24.4387 16.4984 24.1174 16.8382Z" fill="#F0AB82"/>
<path d="M26.3322 32.352V34.9423C26.3322 35.6081 26.068 36.2476 25.5969 36.7187L25.5552 36.7542C25.393 36.9102 25.2123 37.0431 25.0146 37.1512C24.8555 39.4728 22.954 41.2909 20.6293 41.3387H20.4347C18.1131 41.2909 16.2101 39.4774 16.0494 37.1574C15.8347 37.0353 15.6385 36.8824 15.4671 36.7048L15.4316 36.6693C14.9821 36.2012 14.7318 35.5756 14.7318 34.9284V32.352C14.7318 30.503 13.6289 29.3723 12.387 28.1042C10.603 26.2521 8.52541 24.1607 8.52541 19.4232C8.52541 15.126 10.8146 11.1562 14.5326 9.00916C18.249 6.86055 22.8289 6.86055 26.5453 9.00916C30.2633 11.1562 32.5525 15.126 32.5525 19.4232C32.5525 24.1607 30.4749 26.2676 28.6677 28.115C27.4258 29.3909 26.3244 30.5154 26.3244 32.352H26.3322ZM5.34806 21.8221H5.34652C5.6678 21.8499 5.9134 22.1186 5.9134 22.4399C5.9134 22.7612 5.6678 23.03 5.34652 23.0562H1.39529C1.07555 23.03 0.828407 22.7612 0.828407 22.4399C0.828407 22.1186 1.07555 21.8499 1.39529 21.8221H5.34806ZM6.95913 13.311C7.11051 13.3867 7.22327 13.5226 7.2727 13.6833C7.32058 13.8455 7.29896 14.0231 7.214 14.1698C7.13059 14.315 6.98848 14.4201 6.82475 14.4587C6.65947 14.4973 6.48647 14.468 6.34436 14.3737L2.92604 12.3811C2.78548 12.2977 2.68199 12.1633 2.64183 12.0058C2.60012 11.8467 2.62329 11.6799 2.70516 11.5378C2.87507 11.2443 3.25197 11.1454 3.54545 11.3169L6.95913 13.311ZM12.4766 7.21737L10.5041 3.81758C10.3342 3.5241 9.95576 3.42215 9.66227 3.59361C9.36725 3.76507 9.26839 4.14351 9.43984 4.43854L11.4139 7.85994H11.4108C11.5823 8.15342 11.9607 8.25383 12.2542 8.08237C12.5492 7.91246 12.6481 7.53556 12.4766 7.24053V7.21737ZM20.3853 5.821C20.118 5.74686 19.9327 5.5028 19.9342 5.22322V1.26891C19.9327 0.99087 20.118 0.745271 20.3853 0.671127H20.6926C20.9614 0.745271 21.1452 0.99087 21.1437 1.26891V5.22322C21.1452 5.5028 20.9614 5.74686 20.6926 5.821H20.3853ZM35.7406 23.0454C35.4209 23.0161 35.1738 22.7473 35.1738 22.426C35.1738 22.1047 35.4209 21.8375 35.7406 21.8097H39.6919C40.0116 21.8375 40.2588 22.1047 40.2588 22.426C40.2588 22.7473 40.0116 23.0161 39.6919 23.0454H35.7406ZM34.7335 14.3552C34.5945 14.4726 34.4122 14.522 34.2331 14.4927C34.0554 14.4633 33.8979 14.3552 33.8067 14.1977C33.7156 14.0416 33.6971 13.8532 33.7573 13.6817C33.8176 13.5103 33.9504 13.3744 34.1188 13.311L37.5371 11.3354C37.6761 11.218 37.8584 11.1686 38.0375 11.1995C38.2152 11.2288 38.3727 11.337 38.4639 11.493C38.555 11.6505 38.5735 11.839 38.5133 12.0104C38.4531 12.1788 38.3218 12.3147 38.1518 12.3811L34.7289 14.3567L34.7335 14.3552ZM29.6671 7.83677L31.6411 4.41537H31.638C31.7616 4.12497 31.6473 3.79133 31.3739 3.63841C31.1005 3.48394 30.7545 3.56272 30.5738 3.81758L28.5997 7.24053H28.6013C28.4298 7.53556 28.5287 7.91246 28.8237 8.08237C29.1172 8.25383 29.4956 8.15342 29.6671 7.85994V7.83677ZM15.9645 33.478H25.1011V32.352C25.1011 30.0195 26.3692 28.7359 27.8104 27.2608C29.4539 25.5802 31.3368 23.6447 31.3368 19.4232C31.3368 15.5662 29.2809 12.0027 25.9445 10.075C22.608 8.1457 18.4961 8.1457 15.1597 10.075C11.8248 12.0027 9.76731 15.5662 9.76731 19.4232C9.76731 23.6447 11.641 25.5663 13.2814 27.2438C14.7087 28.7081 15.9907 30.0103 15.9907 32.352V33.478H15.9645ZM25.1011 34.706H15.9645V34.9423C15.9583 35.276 16.0834 35.6019 16.312 35.8475H16.3383C16.5761 36.0885 16.9036 36.2259 17.2419 36.2259H23.8221C24.148 36.2244 24.4616 36.0993 24.6979 35.8738L24.7242 35.8475C24.9651 35.6065 25.0995 35.2822 25.1011 34.9423V34.706ZM23.7464 37.4539L17.3284 37.4555C17.6172 38.9677 18.9209 40.0706 20.4579 40.1092H20.5305C20.5552 40.1077 20.5814 40.1077 20.6061 40.1092C21.4588 40.0907 22.2697 39.7354 22.8644 39.1237C23.3124 38.6649 23.6136 38.0842 23.7356 37.4555L23.7464 37.4539Z" fill="#F0AB82"/>
</svg>
